<svg xmlns="http://www.w3.org/2000/svg" xmlns:xlink="http://www.w3.org/1999/xlink" width="1616" height="498" viewBox="0 0 1616 498">
  <g class="cls-2" transform="translate(0 -2037)">
    <g transform="translate(-3908.461 7491.734)">
      <path fill="#1c16df" d="M4262.315-5131.559a313.259,313.259,0,0,1-222.966-92.354A313.264,313.264,0,0,1,3947-5446.879a313.265,313.265,0,0,1,92.354-222.966,313.257,313.257,0,0,1,222.966-92.354,313.256,313.256,0,0,1,222.967,92.354,313.261,313.261,0,0,1,92.354,222.966,313.261,313.261,0,0,1-92.354,222.966A313.259,313.259,0,0,1,4262.315-5131.559Zm0-498.611c-101.065,0-183.287,82.225-183.287,183.291s82.222,183.29,183.287,183.29,183.29-82.224,183.29-183.29S4363.381-5630.17,4262.315-5630.17Z" transform="translate(44.326 -53.675)"/>
    </g>
  </g>
</svg>
