<svg xmlns="http://www.w3.org/2000/svg" width="210" height="40.893" viewBox="0 0 210 40.893" preserveAspectRatio="xMidYMid meet">
  <g transform="translate(0 0)">
    <g transform="translate(0)">
      <path d="M135.688,946.574a21.358,21.358,0,0,0-6.657-4.377,21.21,21.21,0,0,0-22.962,4.377,20.528,20.528,0,0,0-4.447,6.47,20.3,20.3,0,0,0,0,15.9,20.121,20.121,0,0,0,4.447,6.47,21.226,21.226,0,0,0,6.628,4.349,21.6,21.6,0,0,0,16.334,0,21.6,21.6,0,0,0,6.657-4.349,19.918,19.918,0,0,0,6.1-14.436,19.544,19.544,0,0,0-1.621-7.937A20.326,20.326,0,0,0,135.688,946.574ZM133.2,966.022a12.7,12.7,0,0,1-2.853,4.1,13.745,13.745,0,0,1-4.251,2.761,13.652,13.652,0,0,1-14.684-2.761,12.88,12.88,0,0,1-2.825-4.1,12.8,12.8,0,0,1,0-10.081,12.88,12.88,0,0,1,2.825-4.1,13.782,13.782,0,0,1,14.684-2.762,13.765,13.765,0,0,1,4.251,2.762,12.7,12.7,0,0,1,2.853,4.1,12.8,12.8,0,0,1,0,10.081Z" transform="translate(-100 -940.476)"/>
      <path d="M206.93,940.651h-7.607v40.665h22.543v-7.242H206.93Z" transform="translate(-104.128 -940.478)"/>
      <path d="M250.178,953.384a12.519,12.519,0,0,0-4.531-3.2,15.067,15.067,0,0,0-5.984-1.173,16.935,16.935,0,0,0-6.013,1.106,15.484,15.484,0,0,0-8.838,8.357,16.849,16.849,0,0,0-1.371,6.982,16.43,16.43,0,0,0,1.4,6.928,15.839,15.839,0,0,0,3.692,5.148,16.427,16.427,0,0,0,11.019,4.313,14.566,14.566,0,0,0,6.041-1.256,12.335,12.335,0,0,0,4.587-3.449v4.649h7.552V949.068h-7.552Zm-.363,15.7a10.062,10.062,0,0,1-2.041,3.046,9.088,9.088,0,0,1-3.077,2.05,10.722,10.722,0,0,1-7.8,0,9.85,9.85,0,0,1-3.16-2.024,9.21,9.21,0,0,1-2.1-3.046,9.437,9.437,0,0,1-.754-3.757,9.256,9.256,0,0,1,.754-3.73,9,9,0,0,1,2.1-2.994,10.083,10.083,0,0,1,3.16-2,10.709,10.709,0,0,1,7.8,0,9.28,9.28,0,0,1,3.077,2.022,9.732,9.732,0,0,1,2.041,3.022,9.1,9.1,0,0,1,.755,3.676A9.236,9.236,0,0,1,249.815,969.08Z" transform="translate(-105.175 -940.954)"/>
      <path d="M296.843,958.1a15.91,15.91,0,0,0-3.608-5.129,15.477,15.477,0,0,0-5.146-3.194,16.781,16.781,0,0,0-5.985-1.1,14.027,14.027,0,0,0-6.069,1.31,12.458,12.458,0,0,0-4.5,3.482V940.628H263.98v40.687h7.5v-4.63a11.831,11.831,0,0,0,4.587,3.461,15.175,15.175,0,0,0,6.153,1.224,15.949,15.949,0,0,0,14.6-9.422,16.318,16.318,0,0,0,1.4-6.9A16.734,16.734,0,0,0,296.843,958.1Zm-6.824,10.587a9.169,9.169,0,0,1-2.1,3.034,9.944,9.944,0,0,1-3.133,2.016,10.541,10.541,0,0,1-7.719,0,9.358,9.358,0,0,1-5.146-5.075,9.478,9.478,0,0,1-.726-3.716,9.336,9.336,0,0,1,.726-3.661,9.075,9.075,0,0,1,2.042-3.01,9.585,9.585,0,0,1,3.1-2.014,10.3,10.3,0,0,1,10.852,1.988,8.956,8.956,0,0,1,2.1,2.982,9.17,9.17,0,0,1,.755,3.715A9.349,9.349,0,0,1,290.019,968.682Z" transform="translate(-106.875 -940.478)"/>
      <path d="M169.656,964.58a13.9,13.9,0,0,0,4.273-10.068,14.1,14.1,0,0,0-28.2,0h7.324a6.774,6.774,0,0,1,13.548,0,6.678,6.678,0,0,1-1.966,4.753l-18.228,15.2-.312.257v6.59H173.9v-7.115H158.141l11.417-9.519Z" transform="translate(-101.908 -940.472)"/>
    </g>
    <g transform="translate(199.737 1.144)">
      <g>
        <g>
          <path d="M313.364,951.922a5.131,5.131,0,1,1,5.132-5.131A5.136,5.136,0,0,1,313.364,951.922Zm0-9.321a4.189,4.189,0,1,0,4.19,4.19A4.194,4.194,0,0,0,313.364,942.6Z" transform="translate(-308.233 -941.659)"/>
        </g>
        <g transform="translate(3.584 2.867)">
          <g>
            <path d="M311.953,949.338v-4.7h1.508a2.169,2.169,0,0,1,.745.118,1.585,1.585,0,0,1,.551.335,1.442,1.442,0,0,1,.344.515,1.785,1.785,0,0,1,.119.668,1.637,1.637,0,0,1-.2.8,1.414,1.414,0,0,1-.591.576l.941,1.694h-1l-.753-1.436h-.786v1.436Zm1.431-2.242a1.328,1.328,0,0,0,.455-.068.745.745,0,0,0,.3-.187.686.686,0,0,0,.161-.274,1.076,1.076,0,0,0,.049-.328.745.745,0,0,0-.229-.573,1.051,1.051,0,0,0-.731-.213h-.554V947.1Z" transform="translate(-311.953 -944.635)"/>
          </g>
        </g>
      </g>
    </g>
  </g>
</svg>
