<svg xmlns="http://www.w3.org/2000/svg" width="1254.159" height="454.639" viewBox="0 0 1254.159 454.639">
  <defs>
    <style>
      .o2-ring-cls-1 {
        isolation: isolate;
      }

      .o2-ring-cls-2 {
        fill: #0f1011;
      }

      .o2-ring-cls-3 {
        fill: #1d08df;
      }
    </style>
  </defs>
  <g transform="translate(-286.703 -312.126)">
    <g class="o2-ring-cls-1">
      <g>
        <path d="M1453.336,462.934q8.418,4,16.162,8.045-.107,7.965-.406,15.991-7.76-4.059-16.2-8.066-.246,6.2-.606,12.445,8.453,4.011,16.228,8.077-.462,8.265-1.132,16.588-7.782-4.071-16.251-8.088-.511,6.288-1.141,12.61,12.348,5.86,23.246,11.837a664.77,664.77,0,0,0,3.243-69.968q-10.791-5.924-23.051-11.737.012,6.113-.088,12.266"/>
        <path d="M1400.339,499.572q4.642,1.761,9.16,3.537,2.5-24.888,3.345-49.173l12.952,34.74,14.974-22.6q-.751,24.086-3.2,48.751,4.092,1.821,8.046,3.654a698.133,698.133,0,0,0,3.474-69.851q-3.893-1.806-7.921-3.6l-14.242,23.2-14.106-35.03q-4.256-1.671-8.624-3.327-.3,34.173-3.854,69.692"/>
        <path d="M1370.97,443.395c-.073,5.8,2.8,13.154,9.262,15.608q3.762,1.316,7.454,2.641.78-12.855,1.129-25.525-3.678-1.321-7.425-2.632c-6.733-2.157-10.338,3.351-10.42,9.908m-10.257-2.794c.151-12.376,7.287-23.306,20.214-19.183q9,3.141,17.6,6.334-.345,34.158-3.9,69.675-4.716-1.752-9.553-3.488,1.028-10.158,1.791-20.212-4.017-1.441-8.116-2.872c-12.584-4.775-18.168-19.03-18.032-30.254"/>
        <path d="M1306.928,434.282c-.256,10.065,5.93,22.86,17.9,26.747,17.924,4.836,25.962-16.748,16.585-32.76-9.64-16.461-29.518-16.14-33.76.546a25.9,25.9,0,0,0-.723,5.467m-11.347-2.48c.487-18.138,13.647-33.605,34.058-26.966,31.23,11.963,34.483,57.284,11.236,68.168-20.2,9.458-46.024-14.031-45.294-41.2"/>
        <path d="M1223.486,447.649q6.206,1.44,12.334,2.9c5.375-13.761,12.763-32.026,17.872-45.888,2.868,15.786,7.024,36.78,9.491,52.634q6.074,1.548,12.058,3.116c6.979-19.315,16.244-45.09,22.584-64.624q-5.964-1.635-12.028-3.247c-4.438,13.535-10.1,31.671-14.828,45.107-3.107-15.488-6.923-36.209-10.413-51.615q-5.9-1.476-11.888-2.93c-5.056,13.41-11.589,31.372-16.888,44.688-2.77-15.258-6.16-35.661-9.267-50.854q-6.279-1.436-12.632-2.847c4.312,22.024,9.992,51.409,13.6,73.558"/>
        <path d="M1162.611,376.347q14.346,2.87,28.385,5.862-.51,7.836-1.12,15.763-14.07-3-28.458-5.877-.495,6.129-1.046,12.313,14.4,2.882,28.5,5.886-.7,8.188-1.511,16.468-14.112-3.009-28.54-5.895-.621,6.256-1.3,12.564,21.037,4.209,41.411,8.679,3.762-35.431,5.541-69.212-20.188-4.43-41.064-8.605-.374,6-.8,12.054"/>
        <path d="M1117.844,379.751c-.372,7.79,4.249,12.715,13.737,14.638q4.245.8,8.469,1.6,1.071-12.086,1.951-23.956-4.207-.8-8.439-1.6c-10.05-1.752-15.338,1.381-15.718,9.312m-4.793,45.212q-7.75-1.4-15.569-2.771l17.251-22.687c-17.155-13.211-12.914-38.389,6.982-41.447a35.108,35.108,0,0,1,11.519.4q11.5,2.151,22.839,4.381-2.154,33.674-5.949,69.126-6.648-1.308-13.354-2.589,1.167-10.819,2.184-21.482-6-1.146-12.046-2.27l-13.857,19.341"/>
        <path d="M1024.347,376.163c-.111,2.167-.362,21.3,24.643,25.636q2.734.424,5.464.856,2.433-22.983,4.427-45.176-2.407-.379-4.819-.755c-25.736-3.616-29.354,12.389-29.715,19.439m-14.23-1.394c.868-16.436,12.74-34.137,43.345-29.935q10.183,1.581,20.28,3.226-2.769,33.564-6.645,69-10.488-1.71-21.07-3.35c-25.987-4.547-36.76-22.836-35.91-38.943"/>
        <path d="M960.521,344.126q15.654,1.908,31.2,3.976-.8,7.785-1.631,15.675-15.584-2.072-31.283-3.986-.671,6.1-1.352,12.265,15.719,1.916,31.331,3.992-.876,8.158-1.783,16.421-15.629-2.079-31.373-4-.7,6.244-1.407,12.547,22.957,2.8,45.678,5.937,3.942-35.4,7.208-68.917-22.515-3.111-45.295-5.887-.642,5.955-1.3,11.975"/>
        <path d="M895.414,374.113c-1.14,19.252,29.984,34.069,56.3,13.9l-12.155-10.5c-11.221,12.295-28.939,7.257-28.9-2.4.021-6.138,7.32-7.254,16.56-8.668,10.319-1.579,24.451-3.741,24.953-17.544.319-8.77-6.842-18.569-23.561-20.69-14.067-1.4-21.368,2.881-27.107,7.007l10.938,9.3c10.433-9.977,24.775-4.152,24.787,2.729.009,5.555-6.405,6.621-16.114,8.234-9.89,1.642-24.835,4.125-25.7,18.636"/>
        <path d="M871.021,392.1q7.285.674,14.566,1.385,4.047-35.387,8.165-68.8-7.219-.7-14.444-1.374-4.219,33.378-8.287,68.793"/>
        <path d="M789.229,350.587c-4.014,37.641,42.843,47.139,65.928,28.327,22.725-18.518,14.707-55.329-20.642-59.442-.636-.074-1.486-.142-2.123-.2-19.752-1.231-31.331,7.134-37.567,14.369l11.933,6.888c16.434-18.192,45.9-7.786,46.716,11.4.957,22.541-29.85,29.455-43.025,18.327a19.277,19.277,0,0,1-6.588-11.493q12.42.831,24.865,1.779.765-6.16,1.543-12.258-20.215-1.539-40.369-2.773-.338,2.532-.671,5.075"/>
        <path d="M713.887,382.1q7.623.254,15.276.555c12.168-14.181,28.293-33.177,40.715-47.136q-3.351,23.857-6.278,48.73,7.234.382,14.487.808,4.145-35.379,9.066-68.734-8.142-.477-16.263-.9c-12,13.411-28.12,31.2-39.888,44.817q3.1-23.649,6.694-46.334-7.114-.279-14.206-.514-5.383,33.3-9.6,68.709"/>
        <path d="M602.577,381.145q6.534-.118,13.19-.194c6.626-14.712,15.163-34.469,22.149-49.014,2.579,14.673,5.816,34.274,8.639,48.9l2.014.008q6.09.029,12.209.092c9.247-20.6,21.625-48.048,31.452-68.376q-7.333-.145-14.629-.243c-6.476,14.248-15.37,33.132-21.554,47.511-2.45-14.31-5.94-33.354-8.129-47.7q-6.738,0-13.359.049c-6.79,14.281-16.15,33.182-22.586,47.626-1.645-14.166-4.118-33.026-5.453-47.225q-6.515.143-12.9.328c2.482,20.5,5.863,47.827,8.961,68.241"/>
        <path d="M564.477,382.246q6.215-.249,12.554-.456,4.329-35.376,10.75-68.706-6.286.2-12.449.452-6.49,33.306-10.855,68.71"/>
        <path d="M521.1,328.462q8.085-.619,16.44-1.155-5.212,27.7-8.822,56.791,5.828-.373,11.784-.706,3.585-29.078,8.752-56.787,8.493-.474,17.247-.862,1.1-6,2.261-11.93-23.6,1.046-45.29,2.712-1.224,5.936-2.372,11.937"/>
        <path d="M463.511,390.025q5.031-.61,10.2-1.184,1.824-14.589,4.124-28.844,10.619-1.178,21.8-2.19-2.267,14.25-4.083,28.841,5.447-.494,11.025-.946,4.394-35.379,11.34-68.739-5.532.45-10.933.938-2.868,13.654-5.31,27.663-11.166,1.01-21.769,2.186,2.482-14.01,5.418-27.674-5.123.568-10.111,1.174-7.238,33.363-11.7,68.775"/>
        <path d="M416.161,342.105q5.977-1.2,12.247-2.323-5.779,27.762-9.474,56.866,4.376-.785,8.891-1.535,3.669-29.087,9.421-56.857,6.439-1.068,13.162-2.062,1.229-6.01,2.546-11.956-18.12,2.679-34.163,5.9-1.365,5.952-2.63,11.97"/>
        <path d="M387.533,348.69q7.906-2.085,16.5-4.014-1.653,7.781-3.137,15.667-8.616,1.932-16.545,4.024-1.161,6.106-2.218,12.272,7.939-2.094,16.57-4.031-1.383,8.156-2.583,16.416-8.64,1.938-16.591,4.037-.914,6.244-1.716,12.549,11.594-3.06,24.658-5.78,4.488-35.393,12.212-68.857-12.949,2.694-24.452,5.731-1.4,5.961-2.7,11.986"/>
        <path d="M344.345,398.83c1.814,18.224,12.647,16.915,22.072,5.122,17.125-21.429,19.857-63.853,3.951-61.342a15.7,15.7,0,0,0-1.768.442c-3.671,1.347-10.869,6.012-17.832,22.113l3.615,4.823c8.23-18.974,16.075-16.436,18.26-10.955,5.5,13.786-8.827,44.792-18.466,39.972-1.395-.7-3.171-2.844-3.714-9.11-1.861,2.391-4.342,5.578-6.2,7.968.026.29.057.677.086.967"/>
        <path d="M319.579,428.157q2.116-1.266,4.389-2.505,1.88-14.6,4.406-28.914,4.673-2.547,10-4.972-2.508,14.3-4.386,28.9,2.589-1.179,5.333-2.328a634.449,634.449,0,0,1,12.74-69.013q-2.72,1.14-5.288,2.31-3.357,13.758-6.117,27.832-5.318,2.422-9.985,4.965,2.777-14.082,6.166-27.858-2.253,1.229-4.352,2.484a617.871,617.871,0,0,0-12.906,69.1"/>
        <path d="M302.166,441.7q1.4-1.494,2.977-2.958c4.74-16.655,10.738-38.974,16.319-55.366q-5.1,24.043-8.321,48.947,1.861-1.309,3.882-2.594a616.083,616.083,0,0,1,12.927-69.107q-2.268,1.44-4.335,2.916c-5.328,15.84-12.8,36.854-17.346,52.936q3.967-23.763,9.707-46.734-1.46,1.362-2.758,2.752A605.713,605.713,0,0,0,302.166,441.7"/>
        <path d="M298.55,422.3c-1.325,7.126-2.712,15.76-1.792,16.419a3.1,3.1,0,0,0,.471-.618c3.06-6.1,10.981-43.246,8.819-44.658-1.757,1.547-5.442,17.806-7.5,28.857m-.937,3.687c3.381-18.159,8.441-40.024,11.159-44.777l.374-.476.422-.032c2.41,5.585-9.846,64.819-14.735,71.214l-.391.019c-.893-2.574,1.231-15.531,3.171-25.948"/>
        <path d="M292.093,460.7q1.2-9.293,2.682-18.485l-2.812,19.377q.059-.447.13-.892"/>
        <path class="o2-ring-cls-2" d="M1450.7,579.716c-1.031,6.644.068,14.6,4.16,16.966,7.059,3.27,12.017-14.626,8.412-24.243-2.522-6.729-7.521-6.439-10.7.619a24.686,24.686,0,0,0-1.875,6.658m-4-1.5c1.836-11.886,8.12-22.233,15.072-18.224,11.507,8.032,7.311,43.752-5.345,45.5-7.189.993-12.007-12.518-9.727-27.278"/>
        <path class="o2-ring-cls-2" d="M1398.818,580.4q6.989,2.757,13.667,5.549,4.569-22.386,7.831-45.171-2.265-.947-4.567-1.89-2.667,18.722-6.226,37.192-4.5-1.845-9.137-3.674-.764,4-1.568,7.994"/>
        <path class="o2-ring-cls-2" d="M1384.4,556.067c-.5,3.418-.2,10.4,4.516,12.372,6.764,2.276,10.745-10.356,7.187-17.508-2.948-5.926-8.589-4.868-10.974,2.059a17.079,17.079,0,0,0-.729,3.077m-7.994,15.857q3.545-17.984,6.315-36.2,2.507.909,4.98,1.822-.366,2.4-.746,4.8c3.569-4.005,6.961-2.577,8.075-2.107,11.807,6.007,7.724,32.905-2.337,36.191-3.767,1.231-8.424-.7-10.334-7.8q-.49,2.559-1,5.114-2.463-.909-4.957-1.813"/>
        <path class="o2-ring-cls-2" d="M1358.2,546.837c-.692,4.912.81,10.728,5.02,12.34,7.025,2.155,11.071-10.505,7.338-17.574-3.171-6-9.555-4.6-11.778,2.585a17.793,17.793,0,0,0-.58,2.649m-5.328-1.109c2.27-16.192,13.012-19.325,18.3-12.631a14.417,14.417,0,0,1,2.454,4.954q1.128-7.156,2.134-14.347,2.567.9,5.1,1.812-3.2,22.8-7.621,45.268-2.5-.9-5.033-1.788.5-2.557.985-5.119c-6.475,7.508-15.774.693-16.582-12.154a29.869,29.869,0,0,1,.264-5.995"/>
        <path class="o2-ring-cls-2" d="M1431.312,563.74a28.526,28.526,0,0,0,.719,10.78l4.3,13.41q-4.281-2-8.725-3.975-.768,3.924-1.577,7.835,7.824,3.486,15.142,7.017.759-3.621,1.483-7.253l-.113-.351-6.712-21.442c-1.5-6.475,1.737-12.946,4.747-11.583.342.155,3.319,1.731,2.465,9.244q1.967.93,3.9,1.862c1.282-9.163-.736-16.726-5.142-19.266-5.911-2.1-9.691,6.763-10.487,13.723"/>
        <path class="o2-ring-cls-2" d="M1345.406,521.1c-.151,1.908.313,5.431,3.007,6.529,4.151,1.01,6.1-6.244,3.709-10.12-2-3.244-5.609-1.93-6.539,2.383a10.057,10.057,0,0,0-.177,1.208m-.885-.143c.282-3.593,2.62-7.777,6.273-6.286,5.017,2.925,3.691,12.98-.69,14.3-3.152.95-5.97-3.095-5.583-8.014"/>
        <path class="o2-ring-cls-2" d="M1348.654,520.6a2.265,2.265,0,0,0-.02.421c.1.51.169.818.725,1.013l.5.162q.168-1.155.335-2.31l-.5-.162c-.269-.076-.9-.253-1.041.876m-.659,4.308-.907-.294,1.21-2.112c-.975-1.346-.357-4.236,1.215-4.028a1.752,1.752,0,0,1,.275.062l1.371.446q-.473,3.323-.971,6.638l-.8-.26q.151-1.017.3-2.034l-.707-.229-.989,1.811"/>
        <path class="o2-ring-cls-3" d="M813.458,467.722A2829.783,2829.783,0,0,1,1106.891,505.2q3.773-25.506,6.928-51.237a2846.638,2846.638,0,0,0-295.185-37.706q-2.779,25.763-5.176,51.461"/>
        <path class="o2-ring-cls-3" d="M288.61,534.226q-.06-25.371,2.041-51.064L288.83,491.2c-.67,16.044-2.139,37.428-2.127,53.486a29.252,29.252,0,0,1,1.907-10.465"/>
        <path class="o2-ring-cls-2" d="M1293.379,537.526q12.194,3.43,23.93,6.951,3.02-17.017,5.441-34.209-3.025-.908-6.082-1.81-1.359,9.69-2.909,19.331-5.682-1.676-11.47-3.332,1.544-9.691,2.9-19.434-3.21-.918-6.451-1.83-2.4,17.244-5.361,34.333m-3.755,5.438q3.938-21.978,6.947-44.229,5.88,1.643,11.657,3.306-1.323,9.75-2.834,19.452,3.192.92,6.351,1.845,1.512-9.668,2.836-19.385,5.685,1.666,11.263,3.352-3.038,22.2-7.089,44.121-1.278-.387-2.562-.772.235-1.278.467-2.558-11.726-3.519-23.916-6.947-.227,1.281-.457,2.561-1.329-.374-2.663-.746"/>
        <path class="o2-ring-cls-2" d="M1255.456,528.011q13.179,3.372,25.923,6.847,1.648-9.585,3.127-19.22-3.866-1.053-7.771-2.1,1.263-8.281,2.4-16.6-5.062-1.354-10.194-2.693-1.131,8.316-2.385,16.6-4-1.044-8.04-2.077-1.449,9.642-3.06,19.237m-3.823,5.271q2.481-14.375,4.609-28.857,4.055,1.029,8.07,2.07,1.228-8.316,2.335-16.665,7.945,2.058,15.73,4.155-1.113,8.346-2.354,16.66,3.893,1.047,7.743,2.106-2.172,14.468-4.735,28.823l-2.7-.738q.21-1.185.419-2.371-12.732-3.473-25.907-6.842-.2,1.187-.408,2.373-1.4-.357-2.8-.714"/>
        <path class="o2-ring-cls-2" d="M1237.107,508.672l-1.008-3.323a37.669,37.669,0,0,1,8.694-3.793l1,3.159a29.9,29.9,0,0,0-8.682,3.957m-24.082,15.672-1.031-3.574a78.556,78.556,0,0,1,17.235-6.528c-.284-.959-.455-1.589-.706-2.593q-6.966-1.665-14.034-3.3.27-1.764.537-3.531,6.469,1.5,12.855,3.02a49.977,49.977,0,0,1,.155-11.363q.439-3.072.864-6.147l2.785.664q-.426,3.075-.866,6.146a43.712,43.712,0,0,0,.07,11.419q8.883,2.133,17.595,4.313-.274,1.764-.552,3.527-8.025-2.007-16.2-3.976c1.692,5.921,6.173,10.978,14.53,16.4l-2.088,2.756c-7.029-4.6-11.027-8.714-13.8-14.2a70.877,70.877,0,0,0-17.354,6.969m21.371-23.823-1.037-3.31a34.073,34.073,0,0,1,8.97-3.961l1.058,3.172a31.232,31.232,0,0,0-8.991,4.1m-16.709-9.116q.7-5,1.362-10.008,7.3,1.692,14.494,3.416c.941-2.25,1.47-3.432,2.266-5.059l2.85,1.34a39.036,39.036,0,0,0-2.256,4.407q7.535,1.818,14.944,3.67-.672,5.006-1.387,10l-2.737-.682q.463-3.249.91-6.5-13.175-3.271-26.736-6.435-.439,3.255-.9,6.508l-2.814-.655"/>
        <path class="o2-ring-cls-2" d="M1200.34,508.2q.258-1.685.513-3.37l.236.173a52.076,52.076,0,0,0,8.716,4.959l-.9,3.447a51.8,51.8,0,0,1-8.563-5.209m-11.451,1.378-2.428-1.328a146.882,146.882,0,0,1,5.766-14.136l2.388,1.641a129.2,129.2,0,0,0-5.726,13.823m-5.424-3.494-2.494-1.335c1.929-5.726,3.361-9.522,5.106-13.541l2.418,1.54a129.144,129.144,0,0,0-5.03,13.336M1170,512.643q.279-1.787.555-3.574,3.151.662,6.286,1.331a184.784,184.784,0,0,1-1.3-20.531l3-.28.022,1.569a188.583,188.583,0,0,0,1.183,19.865q6.73,1.444,13.384,2.916-.282,1.786-.568,3.571-11.177-2.472-22.57-4.867m26.4-12.685c.173-1.265.417-2.949.6-4.213l2.533.563.978-21.9q6.442,1.431,12.811,2.886-.222,1.719-.45,3.437-4.911-1.122-9.866-2.23l-.693,18.434q2.409.54,4.809,1.085l.377-14.687,2.722.4-.628,18.286q-5.166-1.179-10.382-2.343c-2.506,17.365-2.506,17.365,4.7,17.962l-1.305,3.137c-8.914-1.049-8.709-2.541-6.2-20.813m-4.434-14.342a61.4,61.4,0,0,1-4.168-12.494,40.319,40.319,0,0,1-7.236,10.032q5.73,1.221,11.4,2.462m-17.119,2.174-1.2-3.468A36.622,36.622,0,0,0,1186.9,469.16l2.734.59c1.754,8.208,4.167,14.014,8.33,20.038l-1.984,2.68a48.323,48.323,0,0,1-3.914-6.614q-.222,1.619-.449,3.236-5.8-1.268-11.659-2.516.225-1.619.446-3.237a37.457,37.457,0,0,1-5.556,4.453"/>
        <path class="o2-ring-cls-2" d="M1128.47,504.886q.263-1.764.524-3.53,8.538,1.637,16.978,3.316.487-3.24.963-6.484-6.789-1.352-13.643-2.674.252-1.743.5-3.488,6.857,1.323,13.649,2.675.42-2.907.831-5.817c-3.023-.816-4.864-1.33-9.222-2.564a40.073,40.073,0,0,0-3.153,3.341l-1.856-3.2a75.418,75.418,0,0,1,10.341-8.836l1.656,2.687c-1.76,1.366-2.767,2.193-4.307,3.541,5.617,1.584,8.953,2.481,17.843,4.8a48.553,48.553,0,0,1-4.674-9.1q-8.839-1.779-17.79-3.511.23-1.717.455-3.435,14.248,2.757,28.216,5.635-.229,1.717-.464,3.433-3.459-.713-6.935-1.418c1.449,3.052,3.64,7.665,6.24,9.53l-1.142,3.092c-7.483-1.935-8.444-2.184-12.091-3.155q-.4,2.8-.8,5.606,6.738,1.35,13.409,2.728-.257,1.743-.516,3.485-6.667-1.377-13.4-2.726-.477,3.243-.966,6.483,8.421,1.688,16.738,3.418-.272,1.762-.546,3.525-18.169-3.78-36.834-7.356m5.115-31.336q.669-5.064,1.311-10.136,8.075,1.549,16.063,3.138c1.152-2.236,1.79-3.395,2.732-4.963l3.324,1.416a35.734,35.734,0,0,0-2.717,4.214q8.181,1.64,16.263,3.318-.654,5.068-1.34,10.13-1.534-.319-3.074-.636.444-3.288.875-6.579-14.559-3-29.431-5.878-.424,3.293-.86,6.582l-3.146-.606"/>
        <path class="o2-ring-cls-2" d="M774.9,425.967q6.9.406,13.8.85-.445,4.37-.877,8.736-6.9-.444-13.792-.85-.33,3.383-.65,6.766,6.885.406,13.782.849-.432,4.479-.849,8.956-6.889-.442-13.766-.849-.308,3.381-.607,6.759,10.022.593,20.068,1.261,1.745-18.975,3.736-38-10.089-.672-20.155-1.266-.351,3.393-.693,6.786"/>
        <path class="o2-ring-cls-2" d="M726.122,454.886q3.162.131,6.329.268.713-8.668,1.5-17.346c1.024-8.53,8.163-7.912,10.579-4.663,1.428,1.92,1.27,4.425,1.175,5.922q-.763,8.319-1.462,16.629,3.153.153,6.309.313.745-8.765,1.561-17.539c1.077-8.834,8.429-7.218,10.529-4.35,1.439,1.967,1.271,4.522,1.171,6.049q-.773,8.236-1.489,16.465,3.118.172,6.242.353,1.338-15.2,2.864-30.438-3.113-.179-6.221-.351-.2,1.961-.388,3.921c-3.787-6.1-12.652-5.916-16.641.342a9.493,9.493,0,0,0-8.377-5.611c-4.581-.023-10.824,1.2-12.139,12.054q-.812,9-1.541,17.982"/>
        <path class="o2-ring-cls-2" d="M701.891,439.133c-.171,4.093,2.29,8.394,7.328,8.7,8.194.078,11.405-10.373,6.533-15.511-4.477-4.722-13.515-1.44-13.861,6.816m-6.114.35c.41-9.5,6.985-16.277,15.294-15.754a9.768,9.768,0,0,1,7.614,4.807q.208-2.238.423-4.475,3.081.114,6.166.237-2.144,22.239-3.769,44.427-3.066-.121-6.127-.235.654-9.064,1.4-18.144c-6.413,7.51-19.793,3.866-20.94-8.329a20.517,20.517,0,0,1-.058-2.534"/>
        <path class="o2-ring-cls-2" d="M672.4,438.488c-.155,3.983,2.213,8.136,7.038,8.367,7.935-.038,11-10.293,6.256-15.245-4.8-5.01-13-.768-13.294,6.878m-6.027.25c.3-7.958,6.438-16.266,15.817-15.813,13.454,1.393,15.362,19.315,5.8,27.279-9.366,7.8-22.092,1.047-21.614-11.466"/>
        <path class="o2-ring-cls-2" d="M631.663,452.895q2.866,0,5.754.007l8.193-21.05,5.211,21.128q2.985.025,5.976.061l11.255-30.333q-3.125-.048-6.243-.088l-7.565,20.907L649.381,422.5q-2.592-.018-5.179-.03l-.837,0-8.133,21.021L631,422.445q-3.018,0-6.013.018l6.672,30.432"/>
        <path class="o2-ring-cls-2" d="M618.391,433.742c-2.222-7.236-11.3-6-13.788-1.031a12.623,12.623,0,0,0-.485,1.187q7.066-.1,14.273-.156m-20.509,6.139q.09-1.245.181-2.489c.835-9.038,6.736-15.019,14.683-14.883,12.658.947,14.7,19.012,5.761,27.044-4.5,4.038-15.336,6.971-20.018-4.549l4.94-3.394c2.442,7.513,10.9,6.623,13.99.263a14.144,14.144,0,0,0,.82-2.244q-10.32.074-20.357.252"/>
        <path class="o2-ring-cls-2" d="M582.045,431.071c.085-.067,8.464-5.314,7.872,6.044q-.591,8.126-1.069,16.245,2.808-.063,5.638-.116.909-15.213,2.212-30.451-2.821.053-5.62.115-.194,2.262-.377,4.525c-1.185-3.222-2.554-4.244-5.857-4.376a7.684,7.684,0,0,0-4.362,1.416l1.563,6.6"/>
        <path class="o2-ring-cls-2" d="M549.145,439.9c-.088,2.843,1.123,8.2,6.336,8.132,7.565-.539,10.035-12.2,5.054-16.37-4.565-3.818-11.164.955-11.39,8.238m-5.865,15.078q.991-19.246,2.71-38.534,2.639-.132,5.3-.255-.549,6.129-1.025,12.256c5.947-8.11,16.187-5.081,17.962,5.312,2.369,13.879-9.048,24.614-16.895,19.418a8.519,8.519,0,0,1-2.576-2.772q-.121,2.163-.235,4.323-2.634.121-5.244.252"/>
        <path class="o2-ring-cls-2" d="M536.975,436.165c-1.743-6.494-8.934-5.789-11.574-1.519a9.194,9.194,0,0,0-.976,2.261q6.2-.395,12.55-.742m-18.03,6.962q.075-1.244.155-2.488c.729-9.041,5.926-15.244,12.932-15.435,11.4.437,12.951,19.133,4.632,27.182-4.038,3.907-13.218,6.692-17.165-4.179l4.316-3.585c2.134,7.157,8.832,5.855,11.662,1.016a13.587,13.587,0,0,0,1.382-3.6q-9.108.5-17.914,1.089"/>
        <path class="o2-ring-cls-2" d="M499.843,448.8c-.133,9.421,9.481,10.6,14.685,5.58a15.443,15.443,0,0,0,3.326-5.144l-4.429-2.606c-2.594,5.664-7.422,5.412-8.512,2.889-1.361-3.151,2.069-4.326,3.2-4.712,4.639-1.59,9.02-3.091,9.7-9.311.506-4.617-1.98-9.141-7.712-8.852-3.054.334-6.267,1.411-9.073,6.987l3.921,2.5c2.464-4.786,7.008-4.345,7.79-1.929.929,2.87-1.686,3.769-5.3,5.012-5.11,1.756-7.521,4.8-7.589,9.586"/>
        <path class="o2-ring-cls-2" d="M492.549,458.423q.657-15.2,1.829-30.432,2.388-.209,4.8-.411Q498,442.808,497.33,458.013q-2.4.2-4.781.41m1.813-37.351c.027-.847.333-5.079,3.745-5.177,3.364.324,2.723,6.5.495,8.209-1.329,1.022-4.374,1.223-4.24-3.032"/>
        <path class="o2-ring-cls-2" d="M474.646,445.388c-.077,2.837.967,8.124,5.461,7.827,6.672-.887,8.621-13.066,4.124-16.732-4.017-3.275-9.392,1.719-9.585,8.9m-4.954,14.131q.6-14.619,1.7-29.27,2.245-.246,4.518-.483-.164,2.148-.314,4.294c2.906-4.763,6.113-4.969,7.167-5.037,10.345.056,11.035,19.977,3.164,27.774-3.631,3.6-8.786,4.33-11.611-1.23q-.079,1.77-.154,3.54c-.234,8.86,5.59,9.67,8.71,6.722,1.492-1.41,2.6-4.163,3.014-5.2l4.007,3.417c-4.617,11.538-15.323,12.505-18.823,4.427a20.691,20.691,0,0,1-1.375-8.955"/>
        <path class="o2-ring-cls-2" d="M449.468,463.084q2.156-.281,4.336-.555.314-8.448.8-16.907c.713-9.249,5.686-8.593,7.1-7.123,1.724,1.8,1.607,4.97,1.545,6.675q-.471,8.158-.784,16.308,2.2-.256,4.419-.5.594-15.2,1.733-30.423-2.214.248-4.4.5-.154,2.073-.3,4.147c-1.873-3.822-4.324-3.621-5.371-3.536-4.881.9-7.575,5.383-8.236,13.714q-.513,8.857-.834,17.7"/>
        <path class="o2-ring-cls-2" d="M417.759,467.859q1.846-.32,3.717-.631l5.251-21.741,3.511,20.333q1.973-.3,3.97-.6l7.539-31.269q-2.118.3-4.21.608l-5.115,21.525-3.134-20.267q-1.977.312-3.929.632l-5.368,21.7L417.373,437.8q-1.938.34-3.848.687l4.234,29.373"/>
        <path class="o2-ring-cls-2" d="M406.79,469.846q.447-15.171,1.508-30.389,1.86-.354,3.748-.7-1.069,15.214-1.523,30.392-1.88.345-3.733.7m1.567-37.265c.032-.844.327-5.069,2.991-5.375,2.788.123,1.864,6.838.062,8.338-1.1.919-3.2,1-3.053-2.963"/>
        <path class="o2-ring-cls-2" d="M396.858,447.952q1.557-.327,3.135-.65-.347,5.694-.6,11.382c-.26,5.4-.639,6.155-3.379,6.764q-.12,3.3-.212,6.6l.5-.1c4.777-1.106,6.22-4.1,6.716-13.937q.26-5.713.61-11.431,1.344-.266,2.7-.528.192-3.144.412-6.289-1.361.262-2.706.529.162-2.316.337-4.633l-3.25-4.116q-.39,4.741-.718,9.478-1.578.322-3.136.65-.216,3.145-.407,6.288"/>
        <path class="o2-ring-cls-2" d="M380.515,475.5q1.675-.408,3.381-.809.216-8.406.629-16.829c.6-9.292,4.43-8.918,5.565-7.529.615.752,1.314,2.5,1.148,6.545q-.4,8.148-.617,16.281,1.731-.383,3.49-.758.525-19.193,2.062-38.459-1.755.375-3.482.756-.49,6.147-.876,12.287c-2.2-5.768-6.638-3.159-8.6,1.1a28.041,28.041,0,0,0-2.036,9.747q-.441,8.844-.662,17.67"/>
        <path class="o2-ring-cls-2" d="M366.2,455.451q1.332-.378,2.687-.753-.328,5.689-.563,11.372c-.236,5.392-.562,6.162-2.906,6.861q-.107,3.3-.181,6.59l.426-.121c4.086-1.262,5.327-4.3,5.774-14.129q.238-5.707.569-11.422,1.158-.309,2.33-.616.183-3.141.394-6.284-1.173.306-2.331.616.154-2.314.325-4.63l-2.75-3.993q-.381,4.737-.7,9.472-1.354.375-2.688.754-.209,3.143-.389,6.283"/>
        <path class="o2-ring-cls-2" d="M362.343,461.426c-.862-5.777-4.013-4.369-5.43-2.376a11.612,11.612,0,0,0-1.664,4.559q3.464-1.109,7.094-2.183M352.155,470.4q.049-1.239.1-2.479c.481-9.025,3.473-15.763,7.445-16.765,6.722-.925,7.648,19.623,1.27,28.188-5.472,7.348-8.7-2.987-8.531-3.981.231-1.4,1.686-2.835,2.409-4.05,1.182,6.947,4.47,3.77,5.286,2.539a17.422,17.422,0,0,0,2.1-6.6q-5.213,1.537-10.078,3.151"/>
        <path class="o2-ring-cls-2" d="M339.89,479.2c1.16,7.862,4.657,8.64,7.369,4.85,5.812-8.122,5.464-29.208-.471-28.559a3.773,3.773,0,0,0-.609.145c-1.443.589-4.118,2.829-5.827,11.209l2.149,1.615c1.336-6.393,3.864-7.258,5.1-5.413,2.9,4.329.265,17.321-3.356,16.55-.674-.143-1.58-1-2.073-4.252l-2.347,3.387c.019.14.044.328.065.468"/>
        <path class="o2-ring-cls-2" d="M329.18,492.366q1.148-.519,2.326-1.033.144-8.382.5-16.789c.524-9.778,3.344-8.639,3.751-8.129.738.923,1.046,3.18.915,6.706q-.346,8.131-.492,16.243,1.218-.5,2.466-.985.352-19.141,1.821-38.389-1.242.488-2.454.98-.47,6.141-.823,12.271c-1.686-6.439-4.916-.846-4.948-.788-2.053,3.724-2.413,10.167-2.531,12.284q-.389,8.828-.536,17.629"/>
        <path class="o2-ring-cls-2" d="M319.51,497.127q1-.542,2.042-1.076.131-8.4.483-16.827c.522-10.143,3.163-8.394,3.189-8.37,1.159,1.059,1.024,5.292.974,6.886q-.338,8.127-.468,16.232,1.075-.516,2.182-1.026.252-15.116,1.212-30.3-1.1.51-2.175,1.024-.131,2.067-.248,4.135c-.825-3.553-2-3.06-2.5-2.849-2.334,1.466-3.74,6.363-4.177,14.557q-.378,8.821-.512,17.617"/>
        <path class="o2-ring-cls-2" d="M312.536,486.737c-.1,3.928.558,7.517,2,6.776,2.745-1.881,3.722-16.963,1.124-17.353-1.465-.22-2.985,4.92-3.127,10.577m-1.707,1.441c.194-7.831,2.145-17.173,4.958-18.61,4.712-1.554,4.01,20.744.264,28.381-1.17,2.386-2.989,3.785-4.264-.124-.335-1.027-1.1-4.021-.958-9.647"/>
        <path class="o2-ring-cls-2" d="M308.08,504.117q.81-.568,1.648-1.133.263-19.1,1.7-38.325-.843.566-1.656,1.137-1.437,19.221-1.688,38.321"/>
        <path class="o2-ring-cls-2" d="M302.562,494c-.1,3.828.4,7.474,1.536,6.69,2.184-1.976,3.06-17.061,1.008-17.356-1.157-.166-2.393,5.018-2.544,10.666m-1.335,1.5c.205-7.815,1.812-17.2,4.049-18.746,3.574-1.656,3.075,19.7.171,27.881-.826,2.326-2.07,4.016-3.083,1.781-.843-1.858-1.268-5.939-1.137-10.916"/>
        <path class="o2-ring-cls-2" d="M296.53,499.792c-.092,3.26.155,7.762,1.208,6.8,1.836-2.147,2.654-17.548.941-17.719-.945-.1-1.989,5.212-2.149,10.92M295.2,514.517q.19-14.49,1.075-29.074.513-.615,1.055-1.224-.129,2.138-.245,4.273c.854-5.157,1.669-5.891,1.936-6.133,2.858-1.417,2.1,21.159-.271,28.488-.465,1.438-1.163,2.9-1.839,1.676a9.35,9.35,0,0,1-.614-2.66q-.034,1.756-.057,3.51c-.039,4.13.278,6.6.941,7.329,1.073-.159,1.505-2.629,2.016-7.759l1.1,2.711c-1.144,11.845-3.163,12.1-3.78,11.251-.9-1.231-1.39-5.862-1.315-12.387"/>
        <path class="o2-ring-cls-2" d="M293.106,532.182q.45-.63.931-1.256l-.827-14,2.758-31.109q-.535.656-1.036,1.317l-1.994,22.181-.048-19.239q-.42.664-.805,1.335l1.021,40.769"/>
        <path d="M1537.059,591.754a31.09,31.09,0,0,1,.968,9.5q1.172-12.082,1.854-24.1l.886-48.7q-.009-.441-.031-.884.59,28.688-1.607,57.866a32.041,32.041,0,0,0-.975-6.331q-.48,6.315-1.1,12.649"/>
        <path d="M1532.015,542.26c-.32,10.121.435,23.114,2.467,27.258.313.529,1.264,2.139,2.306-1.884,2.752-10.634,2.279-44.656-1.565-43.638-1.277.338-2.826,6.2-3.208,18.264m-2.6-2.745c.6-18.761,3.307-31.2,6.17-28.318a6.252,6.252,0,0,1,.769,1.292c5.453,13.379,3.786,73.293-1.983,71.231-3.174-1.134-5.629-23.031-4.956-44.2"/>
        <path d="M1507.354,517.071c-1.153,32.452,8.128,50.98,14.567,45.419,8.989-7.763,9.184-59.218-2.446-70.786-7.134-6.147-10.542,8.433-10.53,8.62.191,3.059,2.771,6.594,3.958,9.42,3.24-11.227,7.184-5.3,8.316-3.219,6.659,12.259,4.99,45.189-2.2,43.5-1-.235-6.047-2.388-6.993-21.746q3.836,3.094,7.138,6.145.33-6.271.531-12.513a152.189,152.189,0,0,0-12.14-10.025q-.089,2.591-.2,5.184"/>
        <path d="M1494.02,510.057q-.777,16.477-2.415,33.173,2.9,1.859,5.618,3.7,1.653-16.837,2.416-33.47l9.274-30.42q-2.624-1.992-5.47-4l-6.141,19.995-6.273-28.172q-3.3-2.039-6.826-4.093l9.817,43.284"/>
        <path class="o2-ring-cls-3" d="M1468.554,615.59c43.008,25.049,60.722,48.525,55.929,69.03,3-15.784,7.56-36.736,9.888-52.633,2.9-20.035-15.18-42.775-56.73-66.975q-3.608,25.575-9.087,50.578"/>
      </g>
    </g>
    <g class="o2-ring-cls-1">
      <g>
        <path d="M292.1,470.079a29.8,29.8,0,0,1-.134-8.489l2.812-19.377q4.161-25.866,10.454-50.882a28.919,28.919,0,0,0-.329,3.1q-6.993,27.87-11.377,56.813a30.245,30.245,0,0,0,.336,6.254q-.945,6.268-1.762,12.583"/>
        <path d="M303.353,451.2c-2.164,11-5.038,17.8-6.542,15.48a3.019,3.019,0,0,1-.14-.278c-2.866-7.368,4.228-47.6,7.906-44.843,1.857,1.393,1.727,14.644-1.224,29.641m2.116,4.045c3.877-19.722,4.939-40.791,2.319-46.009-2.657-3.945-6.8,9.29-9.728,24.157C293.371,457.2,291.933,484.015,297,480.2c2.08-1.567,5.5-9.891,8.465-24.954"/>
        <path d="M325.946,473.884c-4.225,21.982-11.626,32.572-17.217,24.634-9.978-14.167-.83-71.248,11.252-70.2a4.743,4.743,0,0,1,2.669,1.422c3.814,4.031,5.86,13.216,5.762,25.864l-5.057,3.018c.06-17.9-5.322-18.541-7.787-16.084-8.746,8.722-10.26,46.46-1.82,45.371,2.136-.276,4.239-3.845,6.248-10.607q-3.535-3.069-6.542-6.092,1.087-6.231,2.3-12.421a131.6,131.6,0,0,0,11.171,9.942q-.5,2.576-.976,5.156"/>
        <path d="M337.925,485.054q-2.958,16.431-5.1,33.115-2.724-1.847-5.264-3.679,2.16-16.824,5.166-33.393l-.379-42.578q2.433,1.975,5.086,3.97l.3,27.957,11.334-19.835q3.105,2.027,6.435,4.068l-17.574,30.375"/>
        <path class="o2-ring-cls-3" d="M337.448,603.47c-34.334-21.046-50.688-40.92-50.745-58.779.605-16.047.843-37.479,2.127-53.486,1.421,14.67,3.032,31.3,50.951,61.615q-2.175,25.59-2.333,50.65"/>
        <path d="M396.992,490.129q-8.706-3.971-16.749-8-1.689,7.98-3.2,16.019,8.059,4.037,16.792,8.017-1.154,6.228-2.2,12.486-8.74-3.985-16.817-8.029-1.4,8.273-2.614,16.6,8.082,4.047,16.839,8.04-.909,6.3-1.71,12.625-12.765-5.821-24.109-11.763a704.583,704.583,0,0,1,12.541-70Q387,472.02,399.668,477.8q-1.389,6.148-2.676,12.333"/>
        <path d="M438.43,568.707q-4.758-1.746-9.394-3.508,3.13-24.928,7.777-49.454l-19.876,23.23-8.958-34.334q-4.686,24.233-7.816,48.923-4.218-1.808-8.3-3.629,4.5-35.529,12.3-70.114,4.021,1.792,8.176,3.573l8.081,35.084L441.5,495.136q4.368,1.656,8.845,3.3-7.424,34.686-11.911,70.271"/>
        <path d="M478.622,535.488c-1.238,5.746-5.6,11-12.237,8.948q-3.846-1.3-7.625-2.618,2.13-12.972,4.647-25.829,3.765,1.308,7.6,2.608c6.846,2.53,9.015,10.413,7.62,16.891m10.329,4c2.621-12.217-1.673-27.815-14.8-32.661q-9.2-3.111-18.006-6.278-7.38,34.7-11.862,70.29,4.832,1.737,9.78,3.457,1.272-10.179,2.784-20.3,4.11,1.428,8.3,2.846c12.367,3.794,21.334-5.86,23.8-17.357"/>
        <path d="M541.465,565.453c-2.014,10.008-10.765,18.921-23.016,15.728-20.181-6.4-20.708-36.1-5.253-43.774,15.141-7.523,32.05,9.252,28.269,28.046m11.373,3.774c3.58-17.932-5.488-40.655-26.379-46.1-30.26-6.153-44.443,32.773-27.927,57.253,16.527,24.495,48.5,17.927,54.306-11.156"/>
        <path d="M618.31,620.029q-6.277-1.418-12.48-2.858c-2.081-15.976-5.132-37.245-6.882-53.261-6.265,13.977-14.865,32.506-20.832,46.614q-6.162-1.527-12.237-3.077c-2.37-22.557-5.468-52.649-7.089-75.273q6.056,1.615,12.208,3.207c1.2,15.712,2.485,36.688,4.031,52.37,6.456-13.791,14.836-32.289,21.559-45.952q5.976,1.453,12.029,2.885c1.835,15.721,4.012,36.718,6.159,52.4,6.088-13.9,14-32.53,20.319-46.327q6.35,1.413,12.771,2.8c-9.027,19.869-21.021,46.385-29.556,66.471"/>
        <path d="M692.835,575.723q-14.472-2.814-28.651-5.754-1.275,8.108-2.47,16.244,14.21,2.947,28.724,5.769-.9,6.3-1.757,12.615-14.531-2.826-28.767-5.778-1.158,8.351-2.228,16.723,14.252,2.955,28.806,5.786-.8,6.33-1.551,12.671-21.229-4.128-41.822-8.524,4.267-35.6,10.2-70.747,20.406,4.356,41.472,8.452-1,6.264-1.952,12.543"/>
        <path d="M735.269,596.074c-1.409,7.954-6.981,11.182-16.561,9.592q-4.285-.78-8.55-1.571,1.68-12.382,3.51-24.711,4.249.789,8.519,1.566c10.109,1.974,14.511,7.063,13.082,15.124m-5.5,46.219q7.806,1.374,15.677,2.708l-11.61-28.174c19.815-7.078,20.674-35.087,1.372-44.731a38.687,38.687,0,0,0-9.995-3.2q-11.594-2.1-23.025-4.291-5.543,35.18-9.784,70.831,6.7,1.281,13.451,2.534,1.285-10.878,2.691-21.728,6.055,1.124,12.154,2.225l9.068,23.823"/>
        <path d="M826.678,622.612c-.381,2.206-4.456,21.452-29.7,18.113q-2.742-.412-5.478-.83,2.787-23.3,5.873-46.48,2.412.367,4.83.733c25.791,4.287,25.707,21.334,24.473,28.464m14.131,2.615c2.838-16.63-4.708-37.878-35.317-43.031q-10.241-1.539-20.4-3.144-4.923,35.288-9.083,70.953,10.554,1.667,21.2,3.263c26.1,3.373,40.9-12.171,43.605-28.041"/>
        <path d="M896.032,607.1q-15.695-1.836-31.295-3.835-.984,8.156-1.956,16.329,15.634,2,31.375,3.846-.726,6.327-1.449,12.662-15.759-1.844-31.423-3.851-.984,8.377-1.955,16.768,15.681,2.008,31.465,3.856-.722,6.342-1.442,12.689-23.022-2.694-45.835-5.734,4.084-35.631,8.518-71.035,22.607,3.012,45.451,5.686-.728,6.3-1.454,12.619"/>
        <path d="M952.839,651.654c-3.28,19.691-37.038,27.828-58.119,1.69l14.22-7.627c7.808,14.116,25.509,13.578,28.535,4.718,2.265-6.632-4.908-9.466-13.988-13.054-9.178-3.626-23.047-9.106-20.389-23.419,1.667-8.973,10.875-17.365,27.689-15.884,12.646,1.463,19.1,6.22,24.9,12.913l-12.8,7.312c-7.954-12.4-23.275-9.574-24.83-2.581-1.279,5.75,5.076,8.334,13.873,11.911,9.848,4,23.335,9.487,20.914,24.021"/>
        <path d="M972.674,674.086q-7.287-.639-14.573-1.314,3.98-35.641,7.558-71.144,7.224.671,14.451,1.3-3.468,35.466-7.436,71.155"/>
        <path d="M1062.344,644.636c-4.595,38.977-52.759,41.725-71.161,19.123-18.583-22.822-1.245-59.073,35.85-57.217,19.705,1.653,29.176,11.8,33.653,20.013l-13.318,5.593c-12.009-20.954-43.3-14.7-48.456,4.724-6.056,22.828,22.642,34.4,38.112,24.991a22.305,22.305,0,0,0,9.073-10.724q-12.408-.768-24.85-1.651.644-6.344,1.261-12.682,20.2,1.435,40.327,2.562-.243,2.633-.491,5.268"/>
        <path d="M1129.535,683.242q-7.593-.208-15.221-.467c-8.832-15.455-20.566-36.086-29.507-51.479q-2.125,25.008-4.843,50.077-7.209-.344-14.438-.729,3.882-35.647,6.658-71.209,8.117.432,16.21.812c8.767,14.932,20.5,34.813,29.169,49.8q2.3-24.266,3.939-48.471,7.092.238,14.155.432-2.307,35.534-6.122,71.231"/>
        <path d="M1239.671,683.518q-6.417.16-12.956.278c-3.2-15.026-7.2-35.12-10.719-50.075-5.847,15.121-13.383,35.386-19.545,50.381q-6.965.016-14.052-.012c-4.531-21.464-10.619-50.075-15.629-71.432q7.3.1,14.57.155c3.162,14.969,7.619,34.879,10.508,49.9,5.661-14.962,13.486-34.812,18.822-49.893q6.624-.045,13.132-.134c3.439,14.815,8.3,34.508,11.424,49.394,4.846-14.988,11.627-34.874,16.117-49.972q6.39-.185,12.653-.411c-7.057,21.625-16.54,50.444-24.325,71.818"/>
        <path d="M1277.056,682.171q-6.092.289-12.312.538,3.7-35.652,4.989-71.227,6.168-.246,12.21-.533-1.215,35.526-4.887,71.222"/>
        <path d="M1332.338,620.267q-7.905.675-16.082,1.266-1.174,29.224-4.169,58.55-5.7.412-11.537.784,3.015-29.3,4.238-58.554-8.317.53-16.9.975.287-6.333.494-12.659,23.134-1.2,44.339-3.014-.15,6.323-.385,12.652"/>
        <path d="M1375.766,673.705q-4.9.648-9.938,1.257,1.488-14.7,2.449-29.383-10.353,1.253-21.276,2.342-.994,14.685-2.489,29.387-5.319.53-10.772,1.021,3.638-35.646,4.412-71.19,5.407-.486,10.682-1.012-.292,14.535-1.067,29.115,10.906-1.087,21.244-2.338.734-14.572.96-29.1,5-.6,9.855-1.246-.484,35.463-4.06,71.151"/>
        <path d="M1434.48,605.863q-5.782,1.245-11.859,2.419-.621,29.154-3.533,58.47-4.245.82-8.631,1.6,2.931-29.291,3.584-58.48-6.248,1.117-12.783,2.161.159-6.32.216-12.631,17.617-2.814,33.141-6.159-.014,6.3-.135,12.616"/>
        <path d="M1462.1,599.042q-7.6,2.154-15.9,4.153-.14,8.156-.465,16.329,8.316-2,15.94-4.163-.239,6.321-.593,12.65-7.635,2.163-15.964,4.17-.483,8.377-1.165,16.768,8.34-2.008,15.986-4.175-.508,6.339-1.137,12.684-11.148,3.159-23.778,5.983,3.546-35.634,3.564-71.065,12.518-2.8,23.579-5.934.023,6.294-.067,12.6"/>
        <path d="M1494.889,626.622c-6.818,25.061-19.791,30.818-26.4,19.048-8.618-15.344-3.556-58.628,14.431-65.958,10.161-3.315,13.269,12.291,13.247,12.467-.387,3.062-3.444,6.326-4.92,9.037-4.639-18.288-14.514-2.749-14.612-2.587-8.947,14.736-6.48,41.843,3.567,39.2,4.405-1.161,7.812-6.5,10.416-16.333l4.589,3.934c-.095.359-.219.838-.316,1.2"/>
        <path d="M1514.115,634.332q-1.968,1.293-4.095,2.56,1.434-14.684,2.178-29.311-4.365,2.6-9.389,5.082-.76,14.633-2.195,29.32-2.444,1.208-5.041,2.385a650.507,650.507,0,0,0,3.056-70.906q2.575-1.167,5-2.364.18,14.428-.287,28.939,5.015-2.478,9.375-5.074.45-14.5.24-28.914,2.107-1.256,4.06-2.539a629.63,629.63,0,0,1-2.9,70.822"/>
        <path d="M1529.983,620.532q-1.233,1.52-2.65,3.012c-1.168-13.008-2.4-30.407-4.419-43.31q-.421,24.81-2.848,49.845-1.71,1.335-3.58,2.645a627.027,627.027,0,0,0,2.881-70.808q2.1-1.47,4-2.975c1.905,12.5,4.826,29.137,5.927,41.735q1.452-24.143,1.006-48.047,1.306-1.389,2.454-2.8a612.268,612.268,0,0,1-2.768,70.706"/>
        <path d="M1539.757,571.5c-.432,10.3-1.531,23.039-2.922,26.678a4.054,4.054,0,0,1-.33.557l-.3.017c-2.288-3.713-.063-42,2.675-46.03l.284-.022c1.166,1.931.8,13.791.592,18.8m.47-2.4c.33-7.9.909-26.6-.853-29.594l-.437.032a4.421,4.421,0,0,0-.681,1.33c-3.9,11.741-7.245,65.063-3.536,71.227l.47-.008c2.723-3.85,4.486-29.8,5.037-42.987"/>
        <path d="M1539.881,577.151q1.329-23.367.846-46.443.064-1.122.04-2.254l-.886,48.7"/>
        <path class="o2-ring-cls-2" d="M373.835,598.911c-.472,6.477-3.2,12.031-7.5,10.113-7.72-4.236-8.532-26.949-1.035-28.932,4.812-1.273,9.278,8.576,8.531,18.819m4.04,2.345c.85-11.613-2.76-26.166-10.077-29.428-10.417-3.555-15.454,22.386-7.486,38.551,4.906,9.953,12.3,9.885,15.823-.146a34.991,34.991,0,0,0,1.74-8.977"/>
        <path class="o2-ring-cls-2" d="M422.265,641.4q-7.173-2.734-14.044-5.506.51-22.184,2.411-44.9,2.331.939,4.7,1.876-1.574,18.661-2.205,36.975,4.626,1.83,9.386,3.646-.144,3.964-.244,7.91"/>
        <path class="o2-ring-cls-2" d="M441.115,630.722c-.273,3.311-2.075,9.151-6.938,7.555-7.436-3-7.752-18.138-2.147-20.733,4.745-2.2,9.755,5.07,9.085,13.178m4.124,19.081q.528-17.731,1.885-35.832-2.566-.9-5.1-1.806-.178,2.388-.342,4.769c-2.26-5.39-5.167-6.879-7.158-7.53-10.949-2.722-14.611,18.214-7.7,30.136,3.526,6.08,9.539,9.02,13.5,3.417q-.09,2.529-.163,5.049,2.521.9,5.075,1.8"/>
        <path class="o2-ring-cls-2" d="M467.9,639.869c-.4,4.6-2.9,8.94-7.433,7.587-7.775-2.876-8.112-17.989-2.255-20.669,4.563-2.089,10.449,4.444,9.688,13.082m5.284,2.353c1.472-17.032-9.93-27.081-16.448-21.766a8.292,8.292,0,0,0-1.539,1.687q.493-7.1,1.114-14.254-2.617-.892-5.2-1.792-1.964,22.7-2.63,44.836,2.559.888,5.147,1.772.079-2.519.175-5.044c3.969,9.442,13.983,11.428,18.069.757a23.046,23.046,0,0,0,1.317-6.2"/>
        <path class="o2-ring-cls-2" d="M395.355,602.168c-.682,5.919-2.909,8.475-3,8.581l-6.889,7.612q4.419,1.98,9,3.944-.123,3.9-.2,7.784-8.066-3.461-15.635-6.968.063-3.6.165-7.222l.173-.193,10.87-12.164c3.479-5.324.112-15.31-3.457-14.042-2.181.775-2.607,4.474-2.768,5.866q-2.037-.926-4.038-1.854c.781-8.943,4.3-13.686,8.963-12.082,5.976,3.283,7.587,14.1,6.822,20.738"/>
        <path class="o2-ring-cls-2" d="M485.652,624.848c-.275,1.814-1.487,4.706-4.282,4.043-4.376-1.722-4.369-9.989-.96-11.6,2.895-1.373,5.932,3.009,5.242,7.562m.861.4c.519-3.419-.779-8.632-4.566-9.529-5.135-.418-6.341,8.691-2.866,12.9,2.786,3.374,6.676,1.61,7.432-3.37"/>
        <path class="o2-ring-cls-2" d="M482.679,622.412a1.976,1.976,0,0,1-.085.389c-.218.41-.338.635-.9.473l-.52-.164q.093-1.146.188-2.293l.519.164a1.17,1.17,0,0,1,.8,1.431m-.317,4.287.924.29-.686-2.643c1.219-.616,1.388-3.858-.545-4.5l-1.4-.442q-.279,3.3-.531,6.587l.8.254q.076-1.008.157-2.017l.731.231.544,2.237"/>
        <path class="o2-ring-cls-3" d="M1012.286,755.886a2837.373,2837.373,0,0,1-294.33-36.156q1.952-24.5,4.6-49.956a2854.3,2854.3,0,0,0,296.088,36.372q-3.03,25.4-6.363,49.74"/>
        <path class="o2-ring-cls-3" d="M1524.483,684.62q-.1.441-.221.882,5.726-24.663,9.42-50.161a29.408,29.408,0,0,0,.689-3.354c-2.935,15.8-6.258,36.982-9.888,52.633"/>
        <path class="o2-ring-cls-2" d="M531.6,668.969q-12.393-3.388-24.343-6.873.826-16.7,2.294-33.752,3.084.9,6.2,1.792-.832,9.611-1.463,19.112,5.781,1.658,11.664,3.294.646-9.544,1.492-19.2,3.261.907,6.553,1.808-1.5,17.09-2.4,33.821m2.4,6.786q1.023-21.465,3.046-43.543-5.973-1.623-11.847-3.267-.882,9.678-1.563,19.246-3.246-.909-6.459-1.824.674-9.537,1.548-19.185-5.783-1.645-11.46-3.313-1.984,22.047-2.887,43.523l2.6.76q.054-1.252.111-2.507,11.937,3.48,24.328,6.869-.063,1.253-.122,2.5,1.352.37,2.707.738"/>
        <path class="o2-ring-cls-2" d="M569.941,679.59q-13.365-3.326-26.307-6.758.515-9.372,1.213-18.862,3.929,1.043,7.9,2.075.608-8.152,1.351-16.391,5.137,1.336,10.341,2.657-.749,8.237-1.366,16.387,4.056,1.029,8.151,2.048-.727,9.483-1.281,18.844m2.511,6.537q.759-13.988,1.9-28.248-4.11-1.016-8.181-2.041.65-8.193,1.432-16.472-8.056-2.031-15.957-4.1-.774,8.28-1.411,16.477-3.957-1.036-7.872-2.082-1.1,14.27-1.775,28.28,1.368.365,2.741.729.057-1.155.116-2.314,12.928,3.43,26.291,6.755-.064,1.156-.127,2.311,1.419.354,2.841.705"/>
        <path class="o2-ring-cls-2" d="M591.761,670.782l1.7-2.563a55.993,55.993,0,0,0-7.516-7.514l-1.649,2.42a43.782,43.782,0,0,1,7.467,7.657m19.689,24.967,1.772-2.762a117.216,117.216,0,0,0-15.136-13.551c.434-.646.7-1.082,1.246-2.03q7.052,1.64,14.2,3.25.128-1.723.26-3.452-6.539-1.471-12.995-2.97a43.244,43.244,0,0,0,2.348-10.462q.255-3.022.524-6.056-1.411-.327-2.818-.654-.269,3.035-.522,6.056a35.916,35.916,0,0,1-2.589,10.405q-8.985-2.1-17.806-4.247-.125,1.73-.243,3.455,8.13,1.98,16.4,3.919c-3.034,4.65-8.438,7.128-17.522,8.034l1.4,3.443c7.718-.815,12.451-2.662,16.337-6.377a105.215,105.215,0,0,1,15.141,14m-15.3-31.161,1.722-2.561a50.367,50.367,0,0,0-7.731-7.8l-1.712,2.426a46.348,46.348,0,0,1,7.721,7.932m18.044-.857q.427-4.922.9-9.875-7.389-1.667-14.677-3.367c-.43-2.677-.665-3.966-1.045-5.746l-3.028-.069a48.05,48.05,0,0,1,1.189,5.141q-7.628-1.791-15.135-3.616-.459,4.956-.872,9.881,1.384.337,2.774.673.27-3.2.559-6.421,13.34,3.222,27.052,6.335-.3,3.216-.573,6.418l2.859.646"/>
        <path class="o2-ring-cls-2" d="M627.18,686.622q.12-1.641.245-3.286l-.264.057a43.635,43.635,0,0,1-9.48.767l.124,3.519a43.068,43.068,0,0,0,9.375-1.057m10.7,6.049,2.64-.2c-.8-6.5-1.482-10.794-2.443-15.313l-2.671.507a137.149,137.149,0,0,1,2.474,15.008m6-.943,2.7-.2c-.6-6.038-1.148-10.1-1.939-14.5l-2.68.418a136.016,136.016,0,0,1,1.924,14.281m11.53,11.382q.122-1.728.249-3.461-3.183-.649-6.348-1.307a153.446,153.446,0,0,0,5.759-18.257l-2.832-1.47-.367,1.437a151.686,151.686,0,0,1-5.5,17.678q-6.8-1.419-13.524-2.866-.12,1.734-.235,3.463,11.3,2.431,22.8,4.783m-22.634-22.337c.111-1.234.247-2.881.353-4.115q-1.283-.276-2.56-.554l3.888-20.711q-6.519-1.407-12.964-2.841-.166,1.7-.326,3.4,4.965,1.1,9.974,2.193l-3.383,17.347q-2.436-.531-4.861-1.067l2.871-13.715-2.7-.808-3.422,17.117q5.223,1.161,10.5,2.306c-1.4,16.867-1.4,16.867-8.455,14.327l.568,3.384c8.8,2.866,8.934,1.421,10.525-16.263m7.421-11.347a45.952,45.952,0,0,0,6.77-9.894,48.735,48.735,0,0,0,4.751,12.313q-5.787-1.2-11.521-2.419m16,9.021,1.912-2.728a45.347,45.347,0,0,1-9.4-19.527q-1.389-.289-2.775-.582c-3.485,6.957-7.088,11.347-12.436,15.152l1.331,3.31a34.375,34.375,0,0,0,5.222-4.466q-.142,1.591-.281,3.179,5.855,1.247,11.764,2.47.139-1.587.284-3.178a47.889,47.889,0,0,0,4.382,6.37"/>
        <path class="o2-ring-cls-2" d="M697.182,711.815q.132-1.7.268-3.407-8.607-1.6-17.121-3.249.242-3.133.5-6.283,6.848,1.326,13.758,2.621.14-1.691.284-3.386-6.914-1.3-13.765-2.622.234-2.828.479-5.667c3.182.4,5.128.626,9.465,1.091,1.014,1.71,1.575,2.742,2.309,4.247l2.482-2.27a95.252,95.252,0,0,0-8.02-12.028l-2.192,1.874c1.513,2.106,2.27,3.2,3.377,4.9-6.153-.678-10.251-1.207-18.271-2.361a36.936,36.936,0,0,0,6.513-6.618q8.918,1.746,17.943,3.443.157-1.685.319-3.372-14.365-2.7-28.464-5.526-.157,1.689-.31,3.373,3.491.7,7,1.392c-2.064,2.262-5.182,5.681-8.117,6.385l.406,3.292c5.676.85,8.332,1.23,12.356,1.767q-.235,2.736-.46,5.461-6.791-1.323-13.517-2.674-.137,1.7-.269,3.39,6.723,1.35,13.511,2.672-.254,3.15-.492,6.283-8.5-1.655-16.891-3.354-.126,1.708-.247,3.412,18.348,3.712,37.171,7.216m1.947-30.742q.471-4.971.975-9.975-8.141-1.518-16.2-3.076c-.583-2.454-.953-3.842-1.524-5.711l-3.519.052a42.935,42.935,0,0,1,1.687,5.008q-8.251-1.608-16.411-3.256-.49,5.007-.947,9.981,1.551.312,3.1.624.3-3.229.609-6.474,14.688,2.946,29.676,5.761-.32,3.244-.625,6.472l3.173.594"/>
        <path class="o2-ring-cls-2" d="M1059.49,721.07q-6.888-.371-13.791-.778-.537,4.265-1.086,8.5,6.9.406,13.781.777-.43,3.279-.867,6.54-6.877-.369-13.77-.776-.571,4.319-1.155,8.606,6.883.406,13.753.776-.447,3.235-.9,6.453-10-.537-20.033-1.154,2.494-18.077,4.785-36.741,10.073.618,20.119,1.159-.414,3.328-.834,6.64"/>
        <path class="o2-ring-cls-2" d="M1101.155,753.211q-3.159-.113-6.323-.233,1.222-8.249,2.38-16.623c.909-8.432-6.221-7.867-8.892-5.783-2.268,1.77-2.709,4.416-2.973,6q-1.1,8.024-2.256,15.934-3.144-.135-6.292-.278,1.211-8.343,2.361-16.813c.865-8.231-6.254-7.666-8.911-5.628-2.3,1.764-2.765,4.585-3.015,6.1q-1.071,7.944-2.192,15.779-3.112-.156-6.228-.319,2.055-14.478,3.953-29.334,3.105.164,6.208.318-.246,1.913-.493,3.819c5.184-5.516,13.737-4.5,16.343,1.942,3.775-4.739,7.936-4.7,9.5-4.683,4.533.359,10.429,2.052,9.307,12.569q-1.2,8.684-2.48,17.235"/>
        <path class="o2-ring-cls-2" d="M1128.61,739.776a9.5,9.5,0,0,1-9.2,7.881c-7.592-.4-8.853-9.863-3.627-14.722,4.916-4.57,13.369-2.087,12.984,5.519a11.039,11.039,0,0,1-.159,1.322m5.956.651c1.715-9.138-3.276-16.026-11.609-16.023a11.873,11.873,0,0,0-8.6,4.161q.294-2.173.582-4.356-3.063-.1-6.13-.2-2.854,21.683-6.163,42.557,3.048.1,6.092.2,1.36-8.529,2.646-17.2c5,8.088,20.062,4.324,23.008-8.31.058-.248.127-.581.174-.832"/>
        <path class="o2-ring-cls-2" d="M1157.936,740.392c-.724,3.829-3.993,7.729-8.839,7.776-7.328-.3-8.484-9.528-3.406-14.33,5.116-4.838,12.547-1.931,12.424,4.86a10.247,10.247,0,0,1-.179,1.694m5.933.4c1.474-7.654-2.752-15.854-12.151-15.755-13.956.88-19.69,18.761-11.373,26.419,7.669,7.062,21.3.883,23.524-10.664"/>
        <path class="o2-ring-cls-2" d="M1195,754.637q-2.82.02-5.659.029l-3.374-20.2-9.858,20.21q-2.128-.006-4.268-.015l-1.653-.009-4.394-29.387q3.1.03,6.2.05l2.834,20.3,9.514-20.256q2.976,0,5.929,0l3.3,20.312,8.843-20.372q2.974-.024,5.924-.056L1195,754.637"/>
        <path class="o2-ring-cls-2" d="M1212.31,736.082c3.457-6.5,12.363-6.5,13.8-1.379a10.1,10.1,0,0,1,.212,1.133q-6.936.148-14.011.246m18.837,5.3q.191-1.2.377-2.4c1.189-8.7-3.292-14.313-11.151-13.961-13.327,1.332-18.954,20.327-10.84,27.066,3.329,2.765,12.951,5.154,19.863-5.755l-4.1-3.077c-4.089,7.255-12.226,6.641-13.85.645a11.183,11.183,0,0,1-.309-2.142q10.149-.138,20.012-.38"/>
        <path class="o2-ring-cls-2" d="M1248.725,732.053c-.069-.06-7.157-4.679-9.106,6.294q-1.226,7.832-2.558,15.555-2.756.08-5.536.152,2.481-14.471,4.6-29.324,2.771-.072,5.518-.151-.315,2.205-.639,4.4c1.875-3.2,3.455-4.275,6.759-4.591a6.154,6.154,0,0,1,3.99,1.128l-3.029,6.535"/>
        <path class="o2-ring-cls-2" d="M1279.3,738.055c-.551,2.747-2.95,8.048-8.084,8.445-6.619.137-7.323-9.292-2.527-14.352,4.245-4.478,10.56-3.49,10.826,3.372a10.643,10.643,0,0,1-.215,2.535m2.454,13.934q3.3-18.32,5.916-37.244-2.592.148-5.208.29-.829,6.014-1.728,11.968c-4.24-7.788-16.077-2.767-19.485,8.265-4.135,13.388,4.509,20.092,11.871,16.392a12.8,12.8,0,0,0,4.224-3.506q-.36,2.064-.729,4.121,2.582-.14,5.139-.286"/>
        <path class="o2-ring-cls-2" d="M1292.182,733.134c3.319-6.734,10.665-6.6,12.008-2.443a7.858,7.858,0,0,1,.291,1.618q-6.076.435-12.3.825m16.342,4.486q.2-1.2.4-2.4c1.295-8.7-2.474-14.094-9.377-13.417-12.695,2.037-17.6,22.336-9.467,28.013,2.508,1.751,10.409,3.871,16.771-7.2l-3.487-2.887c-3.692,7.168-10.407,7.217-12,1.839a10.013,10.013,0,0,1-.364-2.74q8.914-.557,17.525-1.208"/>
        <path class="o2-ring-cls-2" d="M1326.266,740.189c-1.99,9.21-12.926,12.359-16.676,6.661a10.62,10.62,0,0,1-1.345-3.464l4.993-3.157c1.3,5.218,6.323,3.859,7.816,1.489,2.063-3.273-1.09-3.867-2.126-4.062-4.077-.769-8.294-1.563-7.574-7.628a11.178,11.178,0,0,1,9.648-9.849c1.862-.094,5.738-.288,7.463,5.41l-4.461,3.1c-1.328-4.27-6.014-3.136-7.308-.674-1.568,2.982.954,3.47,4.146,4.087,4.7.908,6.419,3.477,5.424,8.084"/>
        <path class="o2-ring-cls-2" d="M1331.388,748.2q2.727-14.484,4.975-29.345-2.337.227-4.7.446-2.239,14.857-4.957,29.343,2.353-.218,4.682-.444m6.544-36.219c.163-.84.808-5-2.568-4.494-3.632.978-4.073,7.454-2.11,8.412,1.208.589,3.909.034,4.678-3.918"/>
        <path class="o2-ring-cls-2" d="M1352.155,732.061c-.562,2.754-2.789,8.126-7.2,8.747-5.757.436-5.9-9.349-1.45-14.445,3.5-4.011,8.442-3.573,8.888,2.388a12.077,12.077,0,0,1-.238,3.31m1.787,12.633q2.659-13.954,4.848-28.254-2.19.261-4.405.514-.32,2.1-.65,4.184c-1.8-4.086-4.975-3.638-6.016-3.491-11.38,2.363-15.643,24.064-8.325,28.584,2.566,1.585,6.938,1.4,10.812-4.349q-.315,1.7-.635,3.383c-1.8,8.833-8.569,10.8-10.719,7.575a10.917,10.917,0,0,1-1.311-3.752l-4.755,4.021c2.048,10.623,12.513,8.375,17.427,1.046a25.873,25.873,0,0,0,3.729-9.461"/>
        <path class="o2-ring-cls-2" d="M1373.4,743.237q-2.1.3-4.221.586,1.569-8.061,2.976-16.237c1.492-9.8-4.613-6.012-4.676-5.967-2.785,1.976-3.578,6.1-3.876,7.66q-1.355,7.879-2.856,15.653-2.142.271-4.308.536,2.79-14.492,5.069-29.356,2.16-.262,4.294-.533-.311,2.023-.632,4.042c2.728-4.231,5.14-4.646,6.17-4.824,4.69-.339,6.383,3.4,5.178,11.431q-1.469,8.566-3.118,17.009"/>
        <path class="o2-ring-cls-2" d="M1404.211,738.226q-1.79.333-3.605.659l-.435-19.525-8.071,21q-1.915.32-3.857.633l-.575-28.466q2.06-.316,4.093-.639l.316,19.694,7.7-21.013q1.92-.328,3.814-.662l.542,19.646,7.205-21.06q1.879-.354,3.73-.716l-10.855,30.45"/>
        <path class="o2-ring-cls-2" d="M1414.841,736.154q2.934-14.514,5.288-29.39-1.8.367-3.63.73-2.346,14.872-5.274,29.387,1.821-.36,3.616-.727m6.771-36.306c.158-.843.813-5.013-1.809-4.3-2.875,1.211-3.6,7.967-1.74,8.56,1.259.4,2.93-.957,3.549-4.26"/>
        <path class="o2-ring-cls-2" d="M1429.8,710.6q-1.5.339-3.03.675-.93,5.542-1.944,11.036c-.945,5.2-.731,5.786,1.909,5.221q-.615,3.174-1.259,6.331l-.481.109c-4.59.931-5.382-1.4-3.683-10.857q1.016-5.516,1.948-11.082-1.305.277-2.625.551.511-3.06,1-6.135,1.32-.273,2.627-.551.358-2.265.7-4.537l4.221-5.521q-.678,4.667-1.413,9.3,1.527-.334,3.032-.675-.489,3.077-1,6.136"/>
        <path class="o2-ring-cls-2" d="M1440.216,730.288q-1.611.421-3.251.835,1.656-8.055,3.128-16.22c1.454-8.812-2.329-6.411-2.765-6.109-.982.682-2.786,2.658-3.835,8.235q-1.424,7.893-3.017,15.682-1.672.4-3.371.786,3.75-18.377,6.548-37.324,1.7-.39,3.363-.784-.892,6.045-1.885,12.034c3.527-6.762,7.446-6.243,8.49-2.932.861,2.728.222,6.65-.122,8.757q-1.538,8.58-3.283,17.04"/>
        <path class="o2-ring-cls-2" d="M1459.336,702.849q-1.28.39-2.579.777-.948,5.547-1.984,11.046c-.968,5.205-.807,5.78,1.435,5.126q-.63,3.177-1.29,6.339l-.408.124c-3.9,1.085-4.483-1.208-2.739-10.667q1.038-5.521,1.988-11.093-1.112.32-2.24.636.522-3.062,1.016-6.138,1.128-.316,2.242-.637.365-2.266.715-4.54l3.717-5.64q-.686,4.668-1.433,9.3,1.3-.386,2.581-.777-.5,3.077-1.021,6.14"/>
        <path class="o2-ring-cls-2" d="M1461.931,706.582c2.293-6.566,5.516-7.163,6.437-5.286a7.046,7.046,0,0,1,.362,3.036q-3.315,1.143-6.8,2.25m8.45,2.5q.227-1.2.45-2.4c1.539-8.722-.015-13.588-3.867-12.109-7.032,3.439-12.585,27.075-6.909,29.409.732.3,4.6,1.243,8.921-9.783l-1.575-2.427c-2.559,7.106-5.336,7.1-6.188,5.527-.758-1.4-.55-3.994-.472-4.971q4.993-1.584,9.64-3.241"/>
        <path class="o2-ring-cls-2" d="M1481.079,708.96c-3.383,9.874-7.671,12.8-9.4,9.245-2.782-5.706,2.186-25.586,8.206-28.277,3.95-1.355,3.531,6.9,3.5,6.995-.423,1.185-1.811,2.311-2.587,3.3.045-5.8-2.543-3.545-2.838-3.268-3.795,3.558-5.92,16.2-2.74,16.291.509.015,2.329-.4,4.362-6.364l1.677,1.56c-.053.155-.122.362-.175.516"/>
        <path class="o2-ring-cls-2" d="M1489.274,712.946q-1.085.531-2.2,1.057,1.725-8.078,3.247-16.261c1.212-6.882-.158-6.825-1.082-6.178-.485.339-2.167,1.972-3.463,8.739q-1.473,7.908-3.137,15.72-1.152.507-2.334,1.008,3.916-18.429,6.779-37.4,1.179-.5,2.329-1.005-.914,6.052-1.935,12.051c2.8-6.981,4.946-6.17,5.548-4.684.954,2.356.04,7.619-.351,9.866q-1.588,8.6-3.4,17.083"/>
        <path class="o2-ring-cls-2" d="M1498.361,708.078q-.94.552-1.912,1.1,1.743-8.109,3.279-16.32c1.214-6.816.02-6.736-.8-6.081-.674.538-1.99,2.4-3.243,8.8q-1.484,7.912-3.16,15.731-1.013.527-2.055,1.05,3.12-14.574,5.571-29.48,1.039-.52,2.049-1.047-.333,2.031-.68,4.055c1.672-4.5,2.8-5.2,3.279-5.5,2.129-.905,2.5,2.662,1.1,10.6q-1.6,8.6-3.427,17.1"/>
        <path class="o2-ring-cls-2" d="M1508.1,689.479c-.763,3.787-2.306,8.351-3.662,9.35-1.632.941-1.257-4.667.143-9.937,1.475-5.555,3.176-7.921,3.839-6.646.5.957.372,3.8-.32,7.233m1.506-.778c1.727-8.559,1.331-14.579-.864-13.145-.062.04-.14.1-.2.147-4.768,4.271-9.942,29.246-6.152,29.693,1.967.232,5.406-7.726,7.216-16.7"/>
        <path class="o2-ring-cls-2" d="M1508.967,700.944q-.744.581-1.517,1.155,4-18.476,6.9-37.461.777-.578,1.524-1.16-2.892,18.982-6.9,37.466"/>
        <path class="o2-ring-cls-2" d="M1517.245,682.077c-.757,3.791-2.135,8.388-3.2,9.44-.98.777-.7-2.369-.541-3.757.726-6.149,3.234-14.006,4.193-13.138.516.467.329,3.533-.454,7.455m1.128-.837c1.663-8.318,1.73-14.088.154-13.135a1.978,1.978,0,0,0-.306.273c-3.71,4.384-8.871,30.227-5.938,29.734,1.5-.252,4.343-8.136,6.09-16.872"/>
        <path class="o2-ring-cls-2" d="M1522.638,676.036c-.639,3.232-1.941,8.5-2.909,9.761-.145.156-.164.155-.287.145-1.02-1.232,2.606-17.564,3.88-17.475.623.76-.46,6.438-.684,7.569m-1.835,12.048q3.048-14.086,5.443-28.456-.444.625-.92,1.245-.351,2.106-.716,4.206c.15-2.467-.111-2.623-.364-2.773a2.23,2.23,0,0,0-.4.362c-2.827,4.546-7.615,28.476-5.957,29.773.31-.152,1.037-.51,2.72-6.476q-.359,1.708-.728,3.414c-.325,1.487-2.016,8.966-3.328,10.153l-.221-.089c-.085-.449-.158-.836.341-4.319l-1.823,4.721c-.819,5.641-.341,5.85.008,6,2.329-1.4,5.584-16.092,5.947-17.763"/>
        <path class="o2-ring-cls-2" d="M1519.264,699.853q-.381.639-.793,1.274l4.079-15.808,3.963-26.07q.465-.668.9-1.341l-2.81,18.759,4.533-21.747q.348-.673.661-1.353l-10.528,46.286"/>
      </g>
    </g>
  </g>
</svg>
