<?xml version="1.0" encoding="utf-8"?>
<!-- Generator: Adobe Illustrator 25.0.1, SVG Export Plug-In . SVG Version: 6.00 Build 0)  -->
<svg version="1.1" id="图层_1" xmlns="http://www.w3.org/2000/svg" xmlns:xlink="http://www.w3.org/1999/xlink" x="0px" y="0px"
	 viewBox="0 0 2386.92 87.18" style="enable-background:new 0 0 2386.92 87.18;" xml:space="preserve">
<style type="text/css">
	.o2-text-st0{fill:#0F1011;}
</style>
<g>
	<path class="o2-text-st0" d="M2.57,0.05h28.58v7.02h-19.6v9.07h19.6v7.02h-19.6v9.29h19.6v7.02H2.57V0.05z"/>
	<path class="o2-text-st0" d="M36.16,0.05h8.91l14.59,16.58L74.84,0.05h8.51v39.42h-8.98V11.83L59.59,28.13L45.14,12.1v27.38h-8.98V0.05z"/>
	<path class="o2-text-st0" d="M88.83,0.05h16.5c2.51,0,4.82,0.37,6.93,1.11c2.11,0.74,3.94,1.74,5.48,3c1.54,1.26,2.75,2.75,3.63,4.46
		c0.88,1.71,1.32,3.54,1.32,5.48c0,1.94-0.44,3.78-1.32,5.51c-0.88,1.73-2.09,3.22-3.63,4.48c-1.54,1.26-3.38,2.26-5.51,3
		c-2.13,0.74-4.46,1.11-6.96,1.11H97.8v11.29h-8.98V0.05z M97.8,6.86v14.53h6.86c1.32,0,2.53-0.19,3.63-0.57
		c1.1-0.38,2.05-0.9,2.84-1.57c0.79-0.67,1.41-1.44,1.85-2.32c0.44-0.88,0.66-1.83,0.66-2.83c0-1.01-0.22-1.95-0.66-2.83
		c-0.44-0.88-1.06-1.65-1.85-2.29c-0.79-0.65-1.74-1.16-2.84-1.54c-1.1-0.38-2.31-0.57-3.63-0.57H97.8z"/>
	<path class="o2-text-st0" d="M151.13,39.53c-3.43,0-6.64-0.52-9.64-1.55c-2.99-1.04-5.6-2.44-7.82-4.22c-2.22-1.77-3.97-3.87-5.25-6.27
		c-1.28-2.41-1.91-4.98-1.91-7.72c0-2.74,0.64-5.3,1.91-7.69c1.28-2.39,3.02-4.48,5.25-6.27c2.22-1.79,4.83-3.21,7.82-4.24
		c2.99-1.04,6.2-1.56,9.64-1.56c3.43,0,6.64,0.52,9.64,1.56c2.99,1.04,5.61,2.45,7.85,4.24c2.24,1.79,4,3.88,5.28,6.27
		c1.28,2.39,1.91,4.95,1.91,7.69c0,2.74-0.64,5.31-1.91,7.72c-1.28,2.41-3.04,4.5-5.28,6.27c-2.24,1.77-4.86,3.18-7.85,4.22
		C157.77,39.01,154.56,39.53,151.13,39.53z M151.13,32.29c2.2,0,4.26-0.33,6.17-0.99c1.91-0.66,3.59-1.55,5.02-2.68
		c1.43-1.13,2.55-2.45,3.37-3.98c0.81-1.52,1.22-3.15,1.22-4.89c0-1.73-0.41-3.36-1.22-4.89c-0.81-1.52-1.94-2.85-3.37-3.98
		c-1.43-1.13-3.1-2.02-5.02-2.68c-1.91-0.66-3.97-0.99-6.17-0.99c-2.2,0-4.26,0.33-6.17,0.99c-1.91,0.66-3.58,1.55-4.98,2.68
		c-1.41,1.13-2.52,2.45-3.33,3.98c-0.81,1.53-1.22,3.15-1.22,4.89c0,1.73,0.41,3.36,1.22,4.89c0.81,1.53,1.92,2.85,3.33,3.98
		c1.41,1.13,3.07,2.02,4.98,2.68C146.87,31.96,148.93,32.29,151.13,32.29z"/>
	<path class="o2-text-st0" d="M175.48,0.05h9.37l9.11,27.59l10.1-27.59h8.84l10.03,27.49l9.04-27.49h9.04l-13.6,39.42h-8.91l-10.1-27.81
		l-10.1,27.81h-9.11L175.48,0.05z"/>
	<path class="o2-text-st0" d="M244.85,0.05h28.58v7.02h-19.6v9.07h19.6v7.02h-19.6v9.29h19.6v7.02h-28.58V0.05z"/>
	<path class="o2-text-st0" d="M278.44,39.47V0.05h15.44c2.86,0,5.4,0.33,7.62,1c2.22,0.67,4.1,1.6,5.64,2.81c1.54,1.21,2.72,2.65,3.53,4.32
		c0.81,1.67,1.22,3.54,1.22,5.59c0,2.38-0.69,4.6-2.08,6.67c-1.39,2.07-3.4,3.68-6.04,4.83l9.64,14.2h-10.23l-7.72-12.04h-8.05
		v12.04H278.44z M293.1,20.68c1.85,0,3.4-0.19,4.65-0.57c1.25-0.38,2.27-0.9,3.04-1.57c0.77-0.67,1.32-1.43,1.65-2.3
		c0.33-0.86,0.5-1.78,0.5-2.75c0-2.02-0.78-3.62-2.34-4.81c-1.56-1.19-4.06-1.78-7.49-1.78h-5.68v13.77H293.1z"/>
	<path class="o2-text-st0" d="M333.16,0.05h13.13c4.05,0,7.66,0.5,10.82,1.51c3.17,1.01,5.84,2.39,8.02,4.16c2.18,1.76,3.83,3.84,4.95,6.24
		c1.12,2.39,1.68,5,1.68,7.8s-0.62,5.42-1.85,7.83c-1.23,2.41-2.96,4.49-5.18,6.24c-2.22,1.75-4.87,3.12-7.95,4.13
		c-3.08,1.01-6.45,1.51-10.1,1.51h-13.53V0.05z M342.13,6.86v25.81h3.5c2.64,0,5.02-0.32,7.13-0.97c2.11-0.65,3.9-1.56,5.38-2.73
		c1.47-1.17,2.62-2.54,3.43-4.1c0.81-1.57,1.22-3.27,1.22-5.1c0-1.91-0.35-3.65-1.06-5.21c-0.7-1.57-1.78-2.92-3.23-4.08
		c-1.45-1.15-3.28-2.04-5.48-2.67c-2.2-0.63-4.8-0.95-7.79-0.95H342.13z"/>
	<path class="o2-text-st0" d="M375.93,0.05h28.58v7.02h-19.6v9.07h19.6v7.02h-19.6v9.29h19.6v7.02h-28.58V0.05z"/>
	<path class="o2-text-st0" d="M425.75,39.53c-4.36,0-8.03-0.67-11.02-2.02c-2.99-1.35-5.59-3.03-7.79-5.05l8.18-5.04
		c1.23,1.65,2.75,2.91,4.55,3.78c1.8,0.88,3.8,1.31,6.01,1.31c2.38,0,4.19-0.52,5.45-1.57c1.25-1.05,1.88-2.24,1.88-3.57
		c0-0.8-0.29-1.48-0.86-2.04c-0.57-0.56-1.32-1.04-2.24-1.44c-0.92-0.4-1.99-0.76-3.2-1.07c-1.21-0.31-2.45-0.63-3.73-0.94
		c-1.63-0.42-3.26-0.87-4.88-1.36c-1.63-0.49-3.09-1.14-4.39-1.97c-1.3-0.82-2.35-1.83-3.17-3.04c-0.81-1.21-1.22-2.72-1.22-4.54
		c0-1.54,0.4-2.97,1.19-4.3c0.79-1.33,1.9-2.49,3.33-3.49c1.43-1,3.12-1.77,5.08-2.33C420.88,0.28,423,0,425.29,0
		c1.94,0,3.68,0.14,5.25,0.43c1.56,0.29,2.99,0.68,4.29,1.19c1.3,0.5,2.49,1.11,3.56,1.81c1.08,0.7,2.1,1.47,3.07,2.29l-7.39,4.7
		c-2.07-2.6-4.97-3.89-8.71-3.89c-2.2,0-3.87,0.42-5.02,1.26c-1.15,0.84-1.72,1.87-1.72,3.09c0,0.77,0.26,1.42,0.79,1.94
		c0.53,0.52,1.24,0.99,2.15,1.39c0.9,0.4,1.95,0.76,3.13,1.08c1.19,0.31,2.44,0.65,3.76,1c1.63,0.42,3.27,0.9,4.92,1.44
		c1.65,0.54,3.15,1.24,4.49,2.1c1.34,0.86,2.43,1.91,3.27,3.15c0.83,1.24,1.25,2.79,1.25,4.64c0,1.5-0.38,2.97-1.12,4.41
		c-0.75,1.43-1.83,2.7-3.23,3.8c-1.41,1.1-3.15,1.99-5.21,2.68C430.75,39.19,428.39,39.53,425.75,39.53z"/>
	<path class="o2-text-st0" d="M447.01,0.05h8.98v39.42h-8.98V0.05z"/>
	<path class="o2-text-st0" d="M485.55,39.53c-3.74,0-7.15-0.53-10.23-1.58c-3.08-1.05-5.72-2.49-7.92-4.3c-2.2-1.81-3.89-3.91-5.08-6.3
		c-1.19-2.39-1.78-4.92-1.78-7.59c0-2.74,0.62-5.31,1.85-7.72c1.23-2.41,2.94-4.5,5.12-6.27c2.18-1.77,4.77-3.18,7.79-4.22
		c3.01-1.04,6.3-1.56,9.87-1.56c2.51,0,4.86,0.24,7.06,0.71c2.2,0.47,4.23,1.15,6.11,2.03c1.87,0.88,3.54,1.92,5.02,3.13
		c1.47,1.21,2.72,2.54,3.73,3.98l-7.92,3.52c-1.5-2.07-3.4-3.62-5.71-4.67c-2.31-1.05-5.05-1.57-8.22-1.57
		c-2.24,0-4.32,0.34-6.24,1.01c-1.91,0.68-3.59,1.59-5.02,2.73c-1.43,1.14-2.54,2.48-3.33,4c-0.79,1.53-1.19,3.15-1.19,4.89
		c0,1.77,0.4,3.41,1.19,4.94c0.79,1.53,1.9,2.86,3.33,4c1.43,1.14,3.14,2.05,5.12,2.7c1.98,0.66,4.14,0.99,6.47,0.99
		c3.61,0,6.61-0.77,9.01-2.32c2.4-1.55,4.04-3.62,4.92-6.21H484.1v-7.02h25.01v2.92c0,2.66-0.55,5.19-1.65,7.59
		c-1.1,2.39-2.67,4.49-4.72,6.29c-2.05,1.8-4.52,3.23-7.42,4.29C492.41,39,489.16,39.53,485.55,39.53z"/>
	<path class="o2-text-st0" d="M513.34,0.05h10.16l20.86,26.84V0.05h8.98v39.42h-9.57l-21.45-27.7v27.7h-8.98V0.05z"/>
	<path class="o2-text-st0" d="M573.2,0.05h9.37l9.11,27.59l10.1-27.59h8.84l10.03,27.49l9.04-27.49h9.04l-13.6,39.42h-8.91l-10.1-27.81
		l-10.1,27.81h-9.11L573.2,0.05z"/>
	<path class="o2-text-st0" d="M642.89,0.05h8.98v39.42h-8.98V0.05z"/>
	<path class="o2-text-st0" d="M669.55,7.07h-12.87V0.05h34.78v7.02h-12.94v32.4h-8.98V7.07z"/>
	<path class="o2-text-st0" d="M723.41,23.22h-18.48v16.25h-8.98V0.05h8.98V16.2h18.48V0.05h8.98v39.42h-8.98V23.22z"/>
	<path class="o2-text-st0" d="M765.91,7.07h-12.87V0.05h34.78v7.02h-12.94v32.4h-8.98V7.07z"/>
	<path class="o2-text-st0" d="M792.31,0.05h28.58v7.02h-19.6v9.07h19.6v7.02h-19.6v9.29h19.6v7.02h-28.58V0.05z"/>
	<path class="o2-text-st0" d="M849.67,39.53c-3.7,0-7.07-0.52-10.13-1.55c-3.06-1.04-5.67-2.44-7.82-4.22c-2.16-1.77-3.83-3.87-5.02-6.27
		c-1.19-2.41-1.78-4.98-1.78-7.72c0-2.88,0.64-5.52,1.91-7.93c1.28-2.41,3.02-4.49,5.25-6.25c2.22-1.76,4.84-3.13,7.85-4.11
		c3.01-0.98,6.26-1.48,9.74-1.48c2.24,0,4.41,0.24,6.5,0.71c2.09,0.47,4.05,1.14,5.87,2c1.83,0.86,3.48,1.9,4.95,3.12
		c1.47,1.22,2.74,2.58,3.79,4.07l-7.85,3.91c-1.41-2.03-3.19-3.63-5.35-4.81c-2.16-1.18-4.8-1.76-7.92-1.76
		c-2.29,0-4.4,0.32-6.34,0.96c-1.94,0.64-3.61,1.52-5.02,2.65c-1.41,1.13-2.51,2.45-3.3,3.98c-0.79,1.52-1.19,3.17-1.19,4.94
		c0,1.73,0.4,3.35,1.19,4.86c0.79,1.51,1.88,2.82,3.27,3.95c1.39,1.13,3.04,2.01,4.95,2.65c1.91,0.64,3.99,0.96,6.24,0.96
		c3.34,0,6.17-0.66,8.48-1.98c2.31-1.32,4.1-3.01,5.38-5.07l8.18,3.35c-1.06,1.63-2.34,3.12-3.86,4.49
		c-1.52,1.36-3.21,2.53-5.08,3.51c-1.87,0.97-3.89,1.73-6.07,2.26C854.32,39.26,852.04,39.53,849.67,39.53z"/>
	<path class="o2-text-st0" d="M902.4,23.22h-18.48v16.25h-8.98V0.05h8.98V16.2h18.48V0.05h8.98v39.42h-8.98V23.22z"/>
	<path class="o2-text-st0" d="M916.92,0.05h10.16l20.86,26.84V0.05h8.98v39.42h-9.57l-21.45-27.7v27.7h-8.98V0.05z"/>
	<path class="o2-text-st0" d="M985.76,39.53c-3.43,0-6.64-0.52-9.64-1.55c-2.99-1.04-5.6-2.44-7.82-4.22c-2.22-1.77-3.97-3.87-5.25-6.27
		c-1.28-2.41-1.91-4.98-1.91-7.72c0-2.74,0.64-5.3,1.91-7.69c1.28-2.39,3.02-4.48,5.25-6.27c2.22-1.79,4.83-3.21,7.82-4.24
		c2.99-1.04,6.2-1.56,9.64-1.56c3.43,0,6.64,0.52,9.64,1.56c2.99,1.04,5.61,2.45,7.85,4.24c2.24,1.79,4,3.88,5.28,6.27
		c1.28,2.39,1.91,4.95,1.91,7.69c0,2.74-0.64,5.31-1.91,7.72c-1.28,2.41-3.04,4.5-5.28,6.27c-2.24,1.77-4.86,3.18-7.85,4.22
		C992.4,39.01,989.19,39.53,985.76,39.53z M985.76,32.29c2.2,0,4.26-0.33,6.17-0.99c1.91-0.66,3.59-1.55,5.02-2.68
		c1.43-1.13,2.55-2.45,3.37-3.98c0.81-1.52,1.22-3.15,1.22-4.89c0-1.73-0.41-3.36-1.22-4.89c-0.81-1.52-1.94-2.85-3.37-3.98
		c-1.43-1.13-3.1-2.02-5.02-2.68c-1.91-0.66-3.97-0.99-6.17-0.99c-2.2,0-4.26,0.33-6.17,0.99c-1.91,0.66-3.58,1.55-4.98,2.68
		c-1.41,1.13-2.52,2.45-3.33,3.98c-0.81,1.53-1.22,3.15-1.22,4.89c0,1.73,0.41,3.36,1.22,4.89c0.81,1.53,1.92,2.85,3.33,3.98
		c1.41,1.13,3.07,2.02,4.98,2.68C981.5,31.96,983.55,32.29,985.76,32.29z"/>
	<path class="o2-text-st0" d="M1014.6,0.05h8.98v32.4h17.62v7.02h-26.6V0.05z"/>
	<path class="o2-text-st0" d="M1066.34,39.53c-3.43,0-6.64-0.52-9.64-1.55c-2.99-1.04-5.6-2.44-7.82-4.22c-2.22-1.77-3.97-3.87-5.25-6.27
		c-1.28-2.41-1.91-4.98-1.91-7.72c0-2.74,0.64-5.3,1.91-7.69c1.28-2.39,3.02-4.48,5.25-6.27c2.22-1.79,4.83-3.21,7.82-4.24
		c2.99-1.04,6.2-1.56,9.64-1.56c3.43,0,6.64,0.52,9.64,1.56c2.99,1.04,5.61,2.45,7.85,4.24c2.24,1.79,4,3.88,5.28,6.27
		c1.28,2.39,1.91,4.95,1.91,7.69c0,2.74-0.64,5.31-1.91,7.72c-1.28,2.41-3.04,4.5-5.28,6.27c-2.24,1.77-4.86,3.18-7.85,4.22
		C1072.98,39.01,1069.77,39.53,1066.34,39.53z M1066.34,32.29c2.2,0,4.26-0.33,6.17-0.99c1.91-0.66,3.58-1.55,5.02-2.68
		c1.43-1.13,2.55-2.45,3.37-3.98c0.81-1.52,1.22-3.15,1.22-4.89c0-1.73-0.41-3.36-1.22-4.89c-0.81-1.52-1.94-2.85-3.37-3.98
		c-1.43-1.13-3.1-2.02-5.02-2.68c-1.91-0.66-3.97-0.99-6.17-0.99c-2.2,0-4.26,0.33-6.17,0.99c-1.91,0.66-3.58,1.55-4.98,2.68
		c-1.41,1.13-2.52,2.45-3.33,3.98c-0.81,1.53-1.22,3.15-1.22,4.89c0,1.73,0.41,3.36,1.22,4.89c0.81,1.53,1.92,2.85,3.33,3.98
		c1.41,1.13,3.07,2.02,4.98,2.68C1062.08,31.96,1064.14,32.29,1066.34,32.29z"/>
	<path class="o2-text-st0" d="M1119.54,39.53c-3.74,0-7.15-0.53-10.23-1.58c-3.08-1.05-5.72-2.49-7.92-4.3c-2.2-1.81-3.89-3.91-5.08-6.3
		c-1.19-2.39-1.78-4.92-1.78-7.59c0-2.74,0.62-5.31,1.85-7.72c1.23-2.41,2.94-4.5,5.12-6.27c2.18-1.77,4.77-3.18,7.79-4.22
		c3.01-1.04,6.3-1.56,9.87-1.56c2.51,0,4.86,0.24,7.06,0.71c2.2,0.47,4.23,1.15,6.11,2.03c1.87,0.88,3.54,1.92,5.02,3.13
		c1.47,1.21,2.72,2.54,3.73,3.98l-7.92,3.52c-1.5-2.07-3.4-3.62-5.71-4.67c-2.31-1.05-5.05-1.57-8.22-1.57
		c-2.24,0-4.32,0.34-6.24,1.01c-1.91,0.68-3.59,1.59-5.02,2.73c-1.43,1.14-2.54,2.48-3.33,4c-0.79,1.53-1.19,3.15-1.19,4.89
		c0,1.77,0.4,3.41,1.19,4.94c0.79,1.53,1.9,2.86,3.33,4c1.43,1.14,3.13,2.05,5.12,2.7c1.98,0.66,4.14,0.99,6.47,0.99
		c3.61,0,6.61-0.77,9.01-2.32c2.4-1.55,4.04-3.62,4.92-6.21h-15.38v-7.02h25.01v2.92c0,2.66-0.55,5.19-1.65,7.59
		c-1.1,2.39-2.67,4.49-4.72,6.29c-2.05,1.8-4.52,3.23-7.42,4.29C1126.4,39,1123.14,39.53,1119.54,39.53z"/>
	<path class="o2-text-st0" d="M1156.43,20.79l-15.31-20.74h9.9l9.97,13.66l10.03-13.66h9.9l-15.51,20.9v18.52h-8.98V20.79z"/>
</g>
<g>
	<path class="o2-text-st0" d="M22.17,60.76c-1.18-1.15-2.56-2.06-4.14-2.73c-1.58-0.67-3.27-1-5.07-1s-3.5,0.33-5.07,1
		c-1.58,0.67-2.95,1.58-4.12,2.73c-1.17,1.15-2.09,2.5-2.76,4.04C0.34,66.34,0,67.99,0,69.75c0,1.76,0.34,3.42,1.01,4.97
		c0.67,1.55,1.59,2.9,2.76,4.04c1.17,1.14,2.54,2.05,4.12,2.71c1.58,0.67,3.27,1,5.07,1s3.5-0.33,5.07-1
		c1.58-0.67,2.95-1.57,4.14-2.71c1.18-1.14,2.11-2.49,2.78-4.04c0.67-1.55,1.01-3.21,1.01-4.97c0-1.76-0.34-3.41-1.01-4.95
		C24.28,63.26,23.36,61.92,22.17,60.76z M20.63,72.9c-0.43,0.98-1.02,1.83-1.77,2.56c-0.75,0.72-1.63,1.3-2.64,1.72
		c-1.01,0.42-2.09,0.64-3.25,0.64c-1.16,0-2.24-0.21-3.25-0.64c-1.01-0.42-1.88-1-2.62-1.72c-0.74-0.73-1.33-1.58-1.76-2.56
		c-0.43-0.98-0.64-2.03-0.64-3.14c0-1.11,0.21-2.16,0.64-3.14c0.43-0.98,1.01-1.83,1.76-2.56c0.74-0.72,1.62-1.3,2.62-1.72
		c1.01-0.42,2.09-0.64,3.25-0.64c1.16,0,2.24,0.21,3.25,0.64c1.01,0.42,1.89,1,2.64,1.72c0.75,0.72,1.34,1.58,1.77,2.56
		c0.43,0.98,0.64,2.03,0.64,3.14C21.27,70.87,21.06,71.92,20.63,72.9z"/>
	<polygon class="o2-text-st0" points="64.18,57.07 59.45,57.07 59.45,82.44 73.46,82.44 73.46,77.92 64.18,77.92 	"/>
	<path class="o2-text-st0" d="M90.5,64.79c-0.74-0.84-1.68-1.5-2.82-1.99c-1.14-0.49-2.38-0.73-3.72-0.73c-1.27,0-2.52,0.23-3.74,0.69
		c-1.22,0.46-2.29,1.12-3.23,1.99s-1.69,1.94-2.26,3.2c-0.57,1.26-0.85,2.71-0.85,4.34c0,1.61,0.29,3.04,0.87,4.3
		c0.58,1.26,1.34,2.33,2.29,3.2c0.95,0.87,2.02,1.54,3.21,1.99c1.19,0.46,2.4,0.69,3.63,0.69c1.34,0,2.59-0.26,3.75-0.78
		c1.16-0.52,2.11-1.23,2.85-2.14v2.89h4.69V62.11H90.5V64.79z M90.28,74.54c-0.31,0.72-0.74,1.35-1.27,1.89
		c-0.53,0.54-1.17,0.97-1.91,1.27c-0.74,0.3-1.55,0.46-2.43,0.46c-0.86,0-1.66-0.15-2.42-0.46c-0.75-0.3-1.41-0.72-1.96-1.26
		c-0.56-0.53-0.99-1.16-1.3-1.89c-0.31-0.73-0.47-1.51-0.47-2.33c0-0.83,0.16-1.6,0.47-2.32c0.31-0.72,0.75-1.34,1.3-1.86
		c0.56-0.52,1.21-0.94,1.96-1.24c0.75-0.3,1.56-0.46,2.42-0.46c0.88,0,1.69,0.15,2.43,0.46c0.74,0.3,1.38,0.72,1.91,1.26
		c0.53,0.53,0.96,1.16,1.27,1.88c0.31,0.72,0.47,1.48,0.47,2.28C90.75,73.05,90.59,73.82,90.28,74.54z"/>
	<path class="o2-text-st0" d="M118.57,67.95c-0.57-1.26-1.32-2.33-2.24-3.2c-0.93-0.87-1.99-1.54-3.2-1.99c-1.21-0.46-2.44-0.69-3.72-0.69
		c-1.37,0-2.62,0.27-3.77,0.82c-1.15,0.54-2.08,1.27-2.8,2.17v-8.01h-4.69v25.39h4.66v-2.89c0.74,0.93,1.69,1.65,2.85,2.16
		c1.16,0.51,2.43,0.76,3.82,0.76c1.23,0,2.43-0.23,3.61-0.69c1.18-0.46,2.24-1.12,3.18-1.99c0.94-0.87,1.7-1.94,2.28-3.2
		c0.58-1.26,0.87-2.7,0.87-4.3C119.43,70.66,119.14,69.21,118.57,67.95z M114.33,74.56c-0.31,0.73-0.75,1.36-1.3,1.89
		c-0.56,0.53-1.2,0.95-1.95,1.26c-0.74,0.3-1.54,0.46-2.4,0.46c-0.86,0-1.66-0.15-2.4-0.46c-0.74-0.3-1.38-0.73-1.93-1.27
		c-0.54-0.54-0.97-1.18-1.27-1.89c-0.3-0.72-0.45-1.49-0.45-2.32c0-0.8,0.15-1.57,0.45-2.28c0.3-0.72,0.72-1.34,1.27-1.88
		c0.54-0.53,1.19-0.95,1.93-1.26c0.74-0.3,1.54-0.46,2.4-0.46c0.86,0,1.66,0.15,2.4,0.46c0.74,0.3,1.39,0.72,1.95,1.24
		c0.56,0.52,0.99,1.14,1.3,1.86c0.31,0.72,0.47,1.49,0.47,2.32C114.8,73.05,114.65,73.83,114.33,74.56z"/>
	<path class="o2-text-st0" d="M42.24,72c1.71-1.66,2.65-3.89,2.65-6.28c0-4.83-3.93-8.76-8.76-8.76c-4.83,0-8.76,3.93-8.76,8.76h4.55
		c0-2.32,1.89-4.21,4.21-4.21c2.32,0,4.21,1.89,4.21,4.21c0,1.12-0.43,2.17-1.22,2.97L27.8,78.17l-0.19,0.16v4.11h17.28V78h-9.79
		l7.09-5.94L42.24,72z"/>
	<g>
		<g>
			<path class="o2-text-st0" d="M125.55,64.79c-2.23,0-4.04-1.81-4.04-4.04c0-2.23,1.81-4.04,4.04-4.04c2.23,0,4.04,1.81,4.04,4.04
				C129.59,62.98,127.78,64.79,125.55,64.79z M125.55,57.46c-1.82,0-3.29,1.48-3.29,3.29s1.48,3.29,3.29,3.29s3.29-1.48,3.29-3.29
				S127.37,57.46,125.55,57.46z"/>
		</g>
		<g>
			<g>
				<path class="o2-text-st0" d="M124.33,62.67v-3.7h1.19c0.22,0,0.41,0.03,0.59,0.09c0.17,0.06,0.31,0.15,0.43,0.26
					c0.12,0.11,0.21,0.25,0.27,0.41s0.09,0.33,0.09,0.52c0,0.22-0.05,0.43-0.16,0.63c-0.11,0.19-0.26,0.35-0.46,0.45l0.74,1.33
					h-0.79l-0.59-1.13h-0.62v1.13H124.33z M125.46,60.91c0.14,0,0.26-0.02,0.36-0.05c0.1-0.04,0.17-0.08,0.23-0.15
					c0.06-0.06,0.1-0.13,0.13-0.22c0.03-0.08,0.04-0.17,0.04-0.26c0-0.19-0.06-0.34-0.18-0.45c-0.12-0.11-0.31-0.17-0.58-0.17h-0.44
					v1.29H125.46z"/>
			</g>
		</g>
	</g>
</g>
<g>
	<path class="o2-text-st0" d="M169.79,81.67h-2.11v-1.45H148.3v1.45h-2.12V56.98h9.21v10.81h5.13V56.95h9.27V81.67z M167.68,78.19V59.01
		h-5.13v10.84h-9.27V59.07h-4.98v19.12H167.68z"/>
	<path class="o2-text-st0" d="M177.04,81.9h-2.12V65.76h6.03v-9.27h12.02v9.27h6.08V81.9h-2.12v-1.33h-19.91V81.9z M196.95,67.79h-6.08
		v-9.24h-7.79v9.24h-6.03v10.75h19.91V67.79z"/>
	<path class="o2-text-st0" d="M204.63,81.99l-1.16-1.77c5.39-1.39,9.16-3.27,11.3-5.59c0.35-0.41,0.64-0.84,0.93-1.3h-11.97v-1.97h12.98
		c0.75-1.8,1.16-3.85,1.25-6.14v-3.42h2.03v3.42c-0.09,2.29-0.43,4.35-1.07,6.14h9.3v1.97h-10.17c-0.26,0.46-0.52,0.9-0.78,1.3
		c4.11,1.62,7.91,3.51,11.33,5.71l-1.13,1.8c-3.71-2.49-7.48-4.46-11.36-5.97C213.76,78.65,209.94,80.6,204.63,81.99z M227.73,63.79
		h-2.03v-3.62h-19.53v3.62h-2.03v-5.56h11.01c-0.35-0.98-0.75-1.85-1.19-2.67l2.14-0.35c0.38,0.87,0.75,1.88,1.13,3.01h10.49V63.79z
		 M213.38,68.95l-1.07,1.65c-1.85-1.39-3.8-2.49-5.77-3.27l1.04-1.56C209.7,66.66,211.65,67.73,213.38,68.95z M216.16,64.92
		l-1.07,1.65c-1.94-1.45-3.94-2.58-5.97-3.39l1.07-1.56C212.37,62.52,214.37,63.62,216.16,64.92z"/>
	<path class="o2-text-st0" d="M238.02,74.97c-1.91,0.72-4.06,1.3-6.46,1.77l-0.26-1.97c2.55-0.43,4.81-0.99,6.72-1.68V74.97z M232.08,58.63
		v-1.91h9.1l-1.39,11.94h1.8c0,6.61-0.29,10.4-0.84,11.42c-0.58,0.99-1.77,1.51-3.59,1.51c-0.67,0-1.36-0.03-2.06-0.09l-0.55-1.85
		c1.01,0.12,1.74,0.17,2.14,0.17c1.39,0,2.23-0.46,2.52-1.33c0.29-0.93,0.46-3.56,0.46-7.97h-7.39l1.36-9.94l1.91,0.12l-1.16,7.97
		h3.42l1.27-10.03H232.08z M242.59,67.01l-1.1-1.68c3.25-2.52,5.77-5.8,7.5-9.82h1.91c1.45,3.71,4,6.92,7.59,9.71l-1.13,1.74
		c-1.25-0.96-2.35-1.97-3.33-3.04v1.8h-8.14v-1.8C244.85,65.07,243.75,66.11,242.59,67.01z M251.75,78.94
		c1.1-3.07,2.09-6.9,2.96-11.45l2,0.49c-0.81,4.11-1.77,7.76-2.93,10.95h4.38v2h-15.82v-2H251.75z M247.49,76.66l-1.8,0.43
		c-0.64-2.84-1.48-5.53-2.49-8.14l1.8-0.61C245.93,70.74,246.74,73.53,247.49,76.66z M249.95,57.53c-1.16,2.43-2.46,4.52-3.97,6.26
		h7.97C252.27,61.88,250.94,59.79,249.95,57.53z M251.58,75.41l-1.83,0.43c-0.52-2.69-1.22-5.3-2.09-7.79l1.8-0.55
		C250.24,69.79,250.94,72.42,251.58,75.41z"/>
	<path class="o2-text-st0" d="M283.51,62.81v1.91h-12.05c-1.51,2.03-2.81,3.48-3.94,4.4c4.09-0.17,8.17-0.38,12.26-0.67
		c-0.81-0.81-1.65-1.59-2.52-2.38l1.33-1.27c2.38,1.97,4.38,3.94,6,5.88l-1.51,1.54c-0.52-0.72-1.13-1.45-1.77-2.14
		c-2.06,0.15-4.17,0.29-6.32,0.41v3.24h9.24v1.94h-9.24v3.62h11.5v1.97h-25.15v-1.97h11.5v-3.62h-9.18v-1.94h9.18V70.6
		c-2.72,0.14-5.51,0.26-8.34,0.38l-0.46-1.8c0.17-0.06,0.32-0.14,0.43-0.2c1.19-0.52,2.72-1.94,4.61-4.26h-4.75v-1.91H283.51z
		 M275.2,58.11h10.84v5.62h-2.12v-3.65h-19.99v3.65h-2.11v-5.62h11.13c-0.43-0.93-0.93-1.8-1.45-2.58l2.32-0.41
		C274.27,56,274.73,57.01,275.2,58.11z"/>
</g>
<g>
	<path class="o2-text-st0" d="M500.08,58.32h12.47v3.74H504v4.84h8.55v3.74H504v4.95h8.55v3.74h-12.47V58.32z"/>
	<path class="o2-text-st0" d="M514.65,62.5h3.86v2.18c0.54-0.68,1.21-1.22,2.03-1.61c0.82-0.4,1.74-0.59,2.78-0.59
		c1.33,0,2.44,0.25,3.36,0.75c0.91,0.5,1.62,1.21,2.12,2.11c0.58-0.87,1.34-1.56,2.29-2.09c0.95-0.52,2.03-0.78,3.24-0.78
		c2.27,0,3.97,0.62,5.13,1.85c1.15,1.23,1.73,2.93,1.73,5.07v9.95h-3.98v-9.6c0-1.2-0.31-2.15-0.92-2.86
		c-0.62-0.7-1.53-1.06-2.74-1.06c-1.06,0-1.94,0.36-2.65,1.07c-0.71,0.71-1.07,1.79-1.07,3.24v9.2h-3.95v-9.71
		c0-1.18-0.3-2.11-0.89-2.79c-0.6-0.68-1.48-1.01-2.65-1.01c-1.09,0-2,0.37-2.72,1.1c-0.72,0.73-1.08,1.83-1.08,3.29v9.12h-3.89
		V62.5z"/>
	<path class="o2-text-st0" d="M552.76,79.38c-1.15,0-2.21-0.2-3.17-0.6c-0.96-0.4-1.74-0.98-2.33-1.73V87.1h-3.86V62.5h3.86v2.47
		c0.59-0.76,1.37-1.37,2.32-1.82c0.95-0.45,2-0.68,3.15-0.68c1.06,0,2.08,0.19,3.08,0.57c1,0.38,1.88,0.93,2.65,1.65
		c0.77,0.72,1.39,1.61,1.86,2.65c0.47,1.05,0.71,2.24,0.71,3.59c0,1.33-0.24,2.52-0.72,3.57c-0.48,1.05-1.11,1.93-1.89,2.65
		c-0.78,0.72-1.66,1.27-2.65,1.65C554.78,79.19,553.78,79.38,552.76,79.38z M552.13,75.81c0.71,0,1.37-0.13,1.99-0.38
		c0.61-0.25,1.15-0.6,1.61-1.04c0.46-0.44,0.82-0.96,1.08-1.57c0.26-0.6,0.39-1.25,0.39-1.93c0-0.68-0.13-1.33-0.39-1.92
		c-0.26-0.6-0.62-1.11-1.08-1.54c-0.46-0.43-1-0.78-1.61-1.03c-0.61-0.25-1.28-0.38-1.99-0.38c-0.73,0-1.4,0.13-2.02,0.38
		c-0.61,0.25-1.14,0.6-1.58,1.04c-0.44,0.44-0.79,0.96-1.04,1.56c-0.25,0.6-0.37,1.23-0.37,1.89c0,0.69,0.12,1.33,0.37,1.92
		c0.25,0.6,0.59,1.12,1.04,1.57c0.44,0.45,0.97,0.8,1.58,1.06C550.72,75.68,551.4,75.81,552.13,75.81z"/>
	<path class="o2-text-st0" d="M570.97,79.38c-1.21,0-2.35-0.22-3.41-0.65c-1.07-0.43-1.99-1.04-2.78-1.8c-0.79-0.77-1.41-1.67-1.86-2.69
		c-0.45-1.03-0.68-2.12-0.68-3.29c0-1.18,0.23-2.29,0.68-3.32c0.45-1.03,1.07-1.92,1.86-2.69c0.79-0.77,1.71-1.37,2.78-1.8
		c1.07-0.43,2.2-0.65,3.41-0.65c1.21,0,2.34,0.22,3.4,0.65c1.06,0.43,1.98,1.04,2.78,1.8c0.8,0.77,1.42,1.67,1.87,2.69
		c0.45,1.03,0.68,2.13,0.68,3.32c0,1.17-0.23,2.26-0.68,3.29c-0.45,1.03-1.08,1.93-1.87,2.69c-0.8,0.77-1.72,1.37-2.78,1.8
		C573.31,79.16,572.18,79.38,570.97,79.38z M570.97,75.72c0.69,0,1.33-0.13,1.93-0.38c0.59-0.25,1.11-0.59,1.56-1.03
		c0.44-0.43,0.79-0.94,1.04-1.53c0.25-0.59,0.37-1.2,0.37-1.85c0-0.67-0.12-1.29-0.37-1.88c-0.25-0.58-0.6-1.09-1.04-1.53
		c-0.44-0.43-0.96-0.77-1.56-1.03c-0.6-0.25-1.24-0.38-1.93-0.38s-1.34,0.13-1.94,0.38c-0.6,0.25-1.12,0.59-1.56,1.03
		c-0.43,0.43-0.77,0.94-1.02,1.53c-0.25,0.59-0.37,1.21-0.37,1.88c0,0.65,0.12,1.27,0.37,1.85c0.25,0.59,0.59,1.09,1.02,1.53
		c0.43,0.43,0.95,0.78,1.56,1.03C569.63,75.59,570.27,75.72,570.97,75.72z"/>
	<path class="o2-text-st0" d="M579.49,62.5h3.97l3.72,11.61l4.23-11.61h3.86l4.15,11.64l3.86-11.64h3.95l-5.9,16.85h-3.75l-4.26-11.67
		l-4.38,11.67h-3.83L579.49,62.5z"/>
	<path class="o2-text-st0" d="M615.96,79.38c-1.32,0-2.53-0.22-3.63-0.65c-1.09-0.43-2.03-1.03-2.81-1.79c-0.78-0.76-1.38-1.65-1.81-2.68
		c-0.43-1.03-0.65-2.12-0.65-3.29c0-1.18,0.23-2.3,0.68-3.33c0.45-1.04,1.07-1.93,1.86-2.69c0.79-0.76,1.71-1.36,2.78-1.8
		c1.07-0.44,2.21-0.67,3.44-0.67c1.25,0,2.41,0.2,3.47,0.61c1.07,0.41,1.98,0.97,2.75,1.7c0.77,0.73,1.37,1.59,1.8,2.58
		c0.43,0.99,0.65,2.07,0.65,3.24v1.38h-13.71c0.27,1.19,0.85,2.15,1.76,2.88c0.9,0.73,2.05,1.09,3.43,1.09
		c1.09,0,2.05-0.27,2.85-0.81c0.81-0.54,1.41-1.26,1.81-2.16l3.2,1.84c-0.73,1.36-1.75,2.46-3.07,3.3
		C619.44,78.96,617.84,79.38,615.96,79.38z M615.81,65.9c-1.17,0-2.18,0.26-3.04,0.78c-0.85,0.52-1.45,1.2-1.8,2.05h9.56
		c-0.29-0.93-0.84-1.63-1.67-2.11C618.04,66.14,617.02,65.9,615.81,65.9z"/>
	<path class="o2-text-st0" d="M626.21,62.5h3.86V65c0.79-1.67,2.23-2.51,4.32-2.51c0.61,0,1.17,0.07,1.66,0.2c0.49,0.13,0.93,0.31,1.31,0.52
		l-1.47,3.69c-0.29-0.19-0.61-0.35-0.96-0.48c-0.36-0.12-0.81-0.19-1.37-0.19c-1.13,0-1.99,0.32-2.58,0.96
		c-0.59,0.64-0.88,1.69-0.88,3.15v8.99h-3.89V62.5z"/>
	<path class="o2-text-st0" d="M653.43,79.38c-1.02,0-2.02-0.19-3.01-0.57c-0.99-0.38-1.88-0.93-2.66-1.65c-0.79-0.72-1.42-1.61-1.9-2.65
		c-0.48-1.05-0.72-2.23-0.72-3.57c0-1.35,0.23-2.55,0.71-3.59c0.47-1.05,1.09-1.93,1.87-2.65c0.78-0.72,1.67-1.27,2.68-1.65
		c1.01-0.38,2.04-0.57,3.1-0.57c1.09,0,2.11,0.21,3.05,0.62c0.94,0.41,1.72,0.98,2.33,1.71v-6.77h3.92v21.32h-3.89v-2.39
		c-0.62,0.75-1.4,1.34-2.36,1.78C655.58,79.16,654.55,79.38,653.43,79.38z M654.07,75.81c0.73,0,1.4-0.13,2.02-0.38
		c0.61-0.25,1.14-0.6,1.58-1.06c0.44-0.45,0.79-0.97,1.05-1.57c0.26-0.59,0.39-1.24,0.39-1.92c0-0.67-0.13-1.3-0.39-1.89
		c-0.26-0.59-0.61-1.11-1.05-1.56c-0.44-0.44-0.97-0.79-1.58-1.04c-0.61-0.25-1.29-0.38-2.02-0.38c-0.71,0-1.38,0.13-2,0.38
		c-0.62,0.25-1.17,0.59-1.63,1.03c-0.46,0.43-0.82,0.95-1.08,1.54c-0.26,0.6-0.39,1.24-0.39,1.92c0,0.69,0.13,1.33,0.39,1.93
		c0.26,0.6,0.62,1.13,1.08,1.57c0.46,0.44,1,0.79,1.63,1.04C652.69,75.68,653.36,75.81,654.07,75.81z"/>
	<path class="o2-text-st0" d="M673.36,79.38c-1.32,0-2.53-0.22-3.63-0.65c-1.09-0.43-2.03-1.03-2.81-1.79c-0.78-0.76-1.38-1.65-1.81-2.68
		c-0.43-1.03-0.65-2.12-0.65-3.29c0-1.18,0.23-2.3,0.68-3.33s1.07-1.93,1.86-2.69c0.79-0.76,1.71-1.36,2.78-1.8
		c1.07-0.44,2.21-0.67,3.44-0.67c1.25,0,2.41,0.2,3.47,0.61c1.07,0.41,1.98,0.97,2.75,1.7c0.77,0.73,1.37,1.59,1.8,2.58
		c0.43,0.99,0.65,2.07,0.65,3.24v1.38h-13.71c0.27,1.19,0.85,2.15,1.76,2.88c0.9,0.73,2.05,1.09,3.43,1.09
		c1.09,0,2.05-0.27,2.85-0.81c0.81-0.54,1.41-1.26,1.81-2.16l3.2,1.84c-0.73,1.36-1.75,2.46-3.07,3.3
		C676.85,78.96,675.25,79.38,673.36,79.38z M673.22,65.9c-1.17,0-2.18,0.26-3.04,0.78c-0.85,0.52-1.45,1.2-1.8,2.05h9.56
		c-0.29-0.93-0.84-1.63-1.67-2.11C675.45,66.14,674.43,65.9,673.22,65.9z"/>
	<path class="o2-text-st0" d="M689.96,79.38c-1.86,0-3.41-0.35-4.64-1.04c-1.23-0.69-2.18-1.7-2.85-3.01l3.6-1.62
		c0.4,0.74,0.95,1.31,1.64,1.7c0.69,0.4,1.5,0.59,2.42,0.59c0.96,0,1.68-0.19,2.16-0.58c0.48-0.38,0.72-0.84,0.72-1.37
		c0-0.29-0.11-0.53-0.33-0.71c-0.22-0.18-0.51-0.34-0.86-0.48c-0.36-0.14-0.77-0.25-1.25-0.34c-0.48-0.09-0.98-0.19-1.5-0.3
		c-0.73-0.15-1.45-0.32-2.15-0.52c-0.7-0.2-1.33-0.48-1.89-0.84c-0.56-0.36-1.01-0.81-1.35-1.37c-0.35-0.56-0.52-1.26-0.52-2.1
		c0-0.64,0.16-1.26,0.48-1.85c0.32-0.59,0.76-1.12,1.34-1.58c0.58-0.46,1.27-0.82,2.09-1.09c0.82-0.27,1.72-0.4,2.72-0.4
		c1.69,0,3.1,0.31,4.22,0.94c1.12,0.63,2.01,1.48,2.66,2.55l-3.31,1.57c-0.35-0.57-0.83-1.01-1.44-1.34
		c-0.62-0.33-1.33-0.49-2.13-0.49c-0.92,0-1.6,0.17-2.04,0.52c-0.44,0.35-0.66,0.75-0.66,1.21c0,0.53,0.33,0.91,0.98,1.14
		c0.65,0.23,1.61,0.47,2.88,0.73c0.69,0.13,1.39,0.3,2.09,0.51c0.7,0.21,1.34,0.49,1.91,0.85c0.58,0.36,1.04,0.81,1.4,1.37
		c0.35,0.56,0.53,1.26,0.53,2.1c0,0.57-0.13,1.16-0.4,1.77c-0.27,0.61-0.69,1.18-1.25,1.7c-0.57,0.52-1.28,0.95-2.15,1.28
		C692.2,79.21,691.17,79.38,689.96,79.38z"/>
	<path class="o2-text-st0" d="M698.05,58.38c0-0.73,0.22-1.32,0.66-1.77c0.44-0.45,1.04-0.68,1.79-0.68c0.77,0,1.37,0.23,1.8,0.68
		c0.43,0.45,0.65,1.04,0.65,1.77c0,0.73-0.22,1.32-0.65,1.76c-0.43,0.44-1.03,0.66-1.8,0.66c-0.79,0-1.39-0.22-1.81-0.66
		C698.26,59.69,698.05,59.11,698.05,58.38z M698.54,62.5h3.92v16.85h-3.92V62.5z"/>
	<path class="o2-text-st0" d="M717.95,76.79c-0.62,0.81-1.4,1.44-2.36,1.9c-0.96,0.46-2.01,0.69-3.14,0.69c-1.02,0-2.02-0.19-3.01-0.57
		c-0.99-0.38-1.88-0.93-2.66-1.65c-0.79-0.72-1.42-1.61-1.9-2.65c-0.48-1.05-0.72-2.23-0.72-3.57c0-1.35,0.24-2.55,0.71-3.59
		c0.47-1.05,1.09-1.93,1.87-2.65c0.78-0.72,1.67-1.27,2.68-1.65c1.01-0.38,2.04-0.57,3.1-0.57c1.11,0,2.14,0.22,3.08,0.65
		c0.94,0.43,1.72,1.02,2.33,1.76V62.5h3.89v16.21c0,1.18-0.19,2.27-0.56,3.3c-0.37,1.02-0.93,1.92-1.66,2.69
		c-0.73,0.77-1.64,1.37-2.72,1.82c-1.09,0.45-2.34,0.67-3.76,0.67c-1.09,0-2.09-0.12-2.98-0.36c-0.89-0.24-1.7-0.58-2.41-1.01
		c-0.71-0.43-1.34-0.94-1.87-1.53c-0.54-0.59-1-1.23-1.38-1.94l3.46-2.1c0.61,1.13,1.31,1.98,2.07,2.53
		c0.77,0.56,1.82,0.84,3.17,0.84c0.73,0,1.39-0.13,1.99-0.4c0.59-0.27,1.1-0.62,1.51-1.07c0.41-0.44,0.73-0.96,0.95-1.55
		c0.22-0.6,0.33-1.21,0.33-1.84V76.79z M713.09,75.81c0.73,0,1.4-0.13,2.02-0.38c0.61-0.25,1.14-0.6,1.58-1.06
		c0.44-0.45,0.79-0.97,1.05-1.57c0.26-0.59,0.39-1.24,0.39-1.92c0-0.67-0.13-1.3-0.39-1.89c-0.26-0.59-0.61-1.11-1.05-1.56
		c-0.44-0.44-0.97-0.79-1.58-1.04c-0.62-0.25-1.29-0.38-2.02-0.38c-0.71,0-1.38,0.13-2,0.38c-0.62,0.25-1.17,0.59-1.63,1.03
		c-0.46,0.43-0.82,0.95-1.08,1.54c-0.26,0.6-0.39,1.24-0.39,1.92c0,0.69,0.13,1.33,0.39,1.93c0.26,0.6,0.62,1.13,1.08,1.57
		c0.46,0.44,1,0.79,1.63,1.04C711.71,75.68,712.38,75.81,713.09,75.81z"/>
	<path class="o2-text-st0" d="M724.23,62.5h3.86v2.3c0.56-0.7,1.26-1.27,2.12-1.69c0.85-0.43,1.83-0.64,2.92-0.64
		c2.09,0,3.73,0.62,4.91,1.87c1.18,1.24,1.77,2.98,1.77,5.2v9.81h-3.95v-9.37c0-1.28-0.32-2.28-0.95-3.03
		c-0.63-0.74-1.58-1.11-2.85-1.11c-1.11,0-2.05,0.38-2.81,1.15c-0.76,0.77-1.14,1.88-1.14,3.32v9.03h-3.89V62.5z"/>
	<path class="o2-text-st0" d="M748.52,62.5h3.97l3.72,11.61l4.23-11.61h3.86l4.15,11.64l3.86-11.64h3.95l-5.9,16.85h-3.75l-4.26-11.67
		l-4.38,11.67h-3.83L748.52,62.5z"/>
	<path class="o2-text-st0" d="M777.29,58.38c0-0.73,0.22-1.32,0.66-1.77c0.44-0.45,1.04-0.68,1.79-0.68c0.77,0,1.37,0.23,1.8,0.68
		c0.43,0.45,0.65,1.04,0.65,1.77c0,0.73-0.22,1.32-0.65,1.76c-0.43,0.44-1.03,0.66-1.8,0.66c-0.79,0-1.39-0.22-1.81-0.66
		C777.5,59.69,777.29,59.11,777.29,58.38z M777.78,62.5h3.92v16.85h-3.92V62.5z"/>
	<path class="o2-text-st0" d="M783.34,62.5h2.88v-2.56l3.92-2.68v5.24h3.43v3.49h-3.43v6.31c0,0.73,0.04,1.32,0.12,1.77
		c0.08,0.45,0.24,0.8,0.48,1.04c0.24,0.24,0.58,0.4,1.04,0.48c0.45,0.08,1.05,0.12,1.8,0.12v3.66h-0.55c-1.31,0-2.4-0.12-3.27-0.35
		c-0.87-0.23-1.57-0.62-2.09-1.17c-0.52-0.55-0.89-1.27-1.11-2.16c-0.22-0.89-0.33-2.01-0.33-3.36v-6.34h-2.88V62.5z"/>
	<path class="o2-text-st0" d="M795.44,58.03h3.89v6.8c0.58-0.73,1.29-1.31,2.15-1.73c0.85-0.42,1.82-0.63,2.89-0.63
		c2.09,0,3.73,0.62,4.91,1.87c1.18,1.24,1.77,2.98,1.77,5.2v9.81h-3.97V70c0-1.29-0.32-2.31-0.95-3.05
		c-0.63-0.74-1.58-1.11-2.85-1.11c-0.54,0-1.05,0.1-1.53,0.3c-0.48,0.2-0.9,0.48-1.25,0.86c-0.36,0.38-0.63,0.84-0.83,1.41
		c-0.2,0.56-0.3,1.2-0.3,1.91v9.03h-3.92V58.03z"/>
	<path class="o2-text-st0" d="M819.72,62.5h2.88v-2.56l3.92-2.68v5.24h3.43v3.49h-3.43v6.31c0,0.73,0.04,1.32,0.12,1.77
		c0.08,0.45,0.24,0.8,0.48,1.04c0.24,0.24,0.58,0.4,1.04,0.48c0.45,0.08,1.05,0.12,1.8,0.12v3.66h-0.55c-1.31,0-2.4-0.12-3.27-0.35
		c-0.87-0.23-1.57-0.62-2.09-1.17c-0.52-0.55-0.89-1.27-1.11-2.16c-0.22-0.89-0.33-2.01-0.33-3.36v-6.34h-2.88V62.5z"/>
	<path class="o2-text-st0" d="M839.59,79.38c-1.33,0-2.53-0.22-3.63-0.65c-1.09-0.43-2.03-1.03-2.81-1.79c-0.78-0.76-1.38-1.65-1.81-2.68
		c-0.43-1.03-0.65-2.12-0.65-3.29c0-1.18,0.23-2.3,0.68-3.33c0.45-1.04,1.07-1.93,1.86-2.69c0.79-0.76,1.71-1.36,2.78-1.8
		c1.07-0.44,2.21-0.67,3.44-0.67c1.25,0,2.41,0.2,3.47,0.61c1.07,0.41,1.98,0.97,2.75,1.7c0.77,0.73,1.37,1.59,1.8,2.58
		c0.43,0.99,0.65,2.07,0.65,3.24v1.38h-13.71c0.27,1.19,0.85,2.15,1.76,2.88c0.9,0.73,2.04,1.09,3.43,1.09
		c1.09,0,2.04-0.27,2.85-0.81c0.81-0.54,1.41-1.26,1.82-2.16l3.2,1.84c-0.73,1.36-1.75,2.46-3.07,3.3
		C843.07,78.96,841.47,79.38,839.59,79.38z M839.45,65.9c-1.17,0-2.18,0.26-3.04,0.78c-0.85,0.52-1.46,1.2-1.8,2.05h9.56
		c-0.29-0.93-0.84-1.63-1.67-2.11C841.68,66.14,840.66,65.9,839.45,65.9z"/>
	<path class="o2-text-st0" d="M858.06,79.38c-1.23,0-2.38-0.22-3.44-0.67c-1.07-0.44-1.99-1.05-2.78-1.8c-0.79-0.76-1.41-1.65-1.86-2.68
		c-0.45-1.03-0.68-2.12-0.68-3.29c0-1.18,0.23-2.29,0.68-3.32c0.45-1.03,1.07-1.92,1.86-2.69c0.79-0.77,1.71-1.37,2.78-1.8
		c1.07-0.43,2.21-0.65,3.44-0.65c0.94,0,1.83,0.13,2.66,0.38c0.83,0.25,1.6,0.61,2.29,1.06c0.69,0.45,1.3,0.99,1.81,1.61
		c0.52,0.62,0.94,1.31,1.27,2.07l-3.49,1.38c-0.38-0.87-0.97-1.56-1.77-2.07c-0.8-0.51-1.71-0.77-2.75-0.77
		c-0.71,0-1.37,0.13-1.97,0.38c-0.61,0.25-1.13,0.59-1.58,1.03c-0.45,0.43-0.8,0.94-1.05,1.53c-0.25,0.59-0.38,1.21-0.38,1.88
		c0,0.65,0.12,1.27,0.38,1.85c0.25,0.59,0.6,1.09,1.05,1.53c0.45,0.43,0.98,0.78,1.6,1.03c0.62,0.25,1.28,0.38,1.99,0.38
		c1.09,0,2.03-0.27,2.81-0.82c0.78-0.55,1.36-1.26,1.74-2.12l3.49,1.4c-0.33,0.75-0.75,1.45-1.27,2.09
		c-0.52,0.64-1.12,1.19-1.8,1.65c-0.68,0.46-1.45,0.82-2.29,1.07C859.95,79.25,859.04,79.38,858.06,79.38z"/>
	<path class="o2-text-st0" d="M867.62,58.03h3.89v6.8c0.58-0.73,1.29-1.31,2.15-1.73c0.85-0.42,1.82-0.63,2.89-0.63
		c2.09,0,3.73,0.62,4.91,1.87c1.18,1.24,1.77,2.98,1.77,5.2v9.81h-3.97V70c0-1.29-0.32-2.31-0.95-3.05
		c-0.63-0.74-1.58-1.11-2.85-1.11c-0.54,0-1.05,0.1-1.53,0.3c-0.48,0.2-0.9,0.48-1.25,0.86c-0.36,0.38-0.63,0.84-0.83,1.41
		c-0.2,0.56-0.3,1.2-0.3,1.91v9.03h-3.92V58.03z"/>
	<path class="o2-text-st0" d="M885.45,62.5h3.86v2.3c0.56-0.7,1.26-1.27,2.12-1.69c0.85-0.43,1.83-0.64,2.92-0.64
		c2.09,0,3.73,0.62,4.91,1.87c1.18,1.24,1.77,2.98,1.77,5.2v9.81h-3.95v-9.37c0-1.28-0.32-2.28-0.95-3.03
		c-0.63-0.74-1.58-1.11-2.85-1.11c-1.11,0-2.05,0.38-2.81,1.15c-0.76,0.77-1.14,1.88-1.14,3.32v9.03h-3.89V62.5z"/>
	<path class="o2-text-st0" d="M911.46,79.38c-1.21,0-2.35-0.22-3.41-0.65c-1.07-0.43-1.99-1.04-2.78-1.8c-0.79-0.77-1.41-1.67-1.86-2.69
		c-0.45-1.03-0.68-2.12-0.68-3.29c0-1.18,0.23-2.29,0.68-3.32c0.45-1.03,1.07-1.92,1.86-2.69c0.79-0.77,1.71-1.37,2.78-1.8
		c1.07-0.43,2.2-0.65,3.41-0.65c1.21,0,2.34,0.22,3.4,0.65c1.06,0.43,1.98,1.04,2.78,1.8c0.8,0.77,1.42,1.67,1.87,2.69
		c0.45,1.03,0.68,2.13,0.68,3.32c0,1.17-0.23,2.26-0.68,3.29c-0.45,1.03-1.08,1.93-1.87,2.69c-0.8,0.77-1.72,1.37-2.78,1.8
		C913.8,79.16,912.67,79.38,911.46,79.38z M911.46,75.72c0.69,0,1.34-0.13,1.93-0.38c0.6-0.25,1.11-0.59,1.56-1.03
		c0.44-0.43,0.79-0.94,1.04-1.53c0.25-0.59,0.38-1.2,0.38-1.85c0-0.67-0.13-1.29-0.38-1.88c-0.25-0.58-0.6-1.09-1.04-1.53
		c-0.44-0.43-0.96-0.77-1.56-1.03c-0.59-0.25-1.24-0.38-1.93-0.38c-0.69,0-1.34,0.13-1.94,0.38c-0.6,0.25-1.12,0.59-1.56,1.03
		c-0.43,0.43-0.77,0.94-1.02,1.53c-0.25,0.59-0.37,1.21-0.37,1.88c0,0.65,0.12,1.27,0.37,1.85c0.25,0.59,0.59,1.09,1.02,1.53
		c0.43,0.43,0.95,0.78,1.56,1.03C910.12,75.59,910.77,75.72,911.46,75.72z"/>
	<path class="o2-text-st0" d="M921.89,58.03h3.92v21.32h-3.92V58.03z"/>
	<path class="o2-text-st0" d="M936.23,79.38c-1.21,0-2.35-0.22-3.41-0.65c-1.07-0.43-1.99-1.04-2.78-1.8c-0.79-0.77-1.41-1.67-1.86-2.69
		c-0.45-1.03-0.68-2.12-0.68-3.29c0-1.18,0.23-2.29,0.68-3.32c0.45-1.03,1.07-1.92,1.86-2.69c0.79-0.77,1.71-1.37,2.78-1.8
		c1.07-0.43,2.2-0.65,3.41-0.65c1.21,0,2.34,0.22,3.4,0.65c1.06,0.43,1.98,1.04,2.78,1.8c0.8,0.77,1.42,1.67,1.87,2.69
		c0.45,1.03,0.68,2.13,0.68,3.32c0,1.17-0.23,2.26-0.68,3.29c-0.45,1.03-1.08,1.93-1.87,2.69c-0.8,0.77-1.72,1.37-2.78,1.8
		C938.57,79.16,937.44,79.38,936.23,79.38z M936.23,75.72c0.69,0,1.34-0.13,1.93-0.38c0.6-0.25,1.11-0.59,1.56-1.03
		c0.44-0.43,0.79-0.94,1.04-1.53c0.25-0.59,0.38-1.2,0.38-1.85c0-0.67-0.13-1.29-0.38-1.88c-0.25-0.58-0.6-1.09-1.04-1.53
		c-0.44-0.43-0.96-0.77-1.56-1.03c-0.59-0.25-1.24-0.38-1.93-0.38s-1.34,0.13-1.94,0.38c-0.6,0.25-1.12,0.59-1.56,1.03
		c-0.43,0.43-0.77,0.94-1.02,1.53c-0.25,0.59-0.37,1.21-0.37,1.88c0,0.65,0.12,1.27,0.37,1.85c0.25,0.59,0.59,1.09,1.02,1.53
		c0.43,0.43,0.95,0.78,1.56,1.03C934.89,75.59,935.54,75.72,936.23,75.72z"/>
	<path class="o2-text-st0" d="M960.05,76.79c-0.61,0.81-1.4,1.44-2.36,1.9c-0.96,0.46-2.01,0.69-3.14,0.69c-1.02,0-2.02-0.19-3.01-0.57
		s-1.88-0.93-2.66-1.65c-0.79-0.72-1.42-1.61-1.9-2.65c-0.48-1.05-0.72-2.23-0.72-3.57c0-1.35,0.23-2.55,0.71-3.59
		c0.47-1.05,1.09-1.93,1.87-2.65c0.78-0.72,1.67-1.27,2.68-1.65c1.01-0.38,2.04-0.57,3.1-0.57c1.11,0,2.14,0.22,3.08,0.65
		c0.94,0.43,1.72,1.02,2.33,1.76V62.5h3.89v16.21c0,1.18-0.19,2.27-0.56,3.3c-0.38,1.02-0.93,1.92-1.66,2.69
		c-0.73,0.77-1.64,1.37-2.72,1.82c-1.08,0.45-2.34,0.67-3.76,0.67c-1.09,0-2.09-0.12-2.98-0.36c-0.89-0.24-1.69-0.58-2.41-1.01
		c-0.71-0.43-1.33-0.94-1.87-1.53c-0.54-0.59-1-1.23-1.38-1.94l3.46-2.1c0.61,1.13,1.31,1.98,2.07,2.53
		c0.77,0.56,1.82,0.84,3.17,0.84c0.73,0,1.39-0.13,1.99-0.4c0.6-0.27,1.1-0.62,1.51-1.07c0.41-0.44,0.73-0.96,0.95-1.55
		c0.22-0.6,0.33-1.21,0.33-1.84V76.79z M955.18,75.81c0.73,0,1.4-0.13,2.02-0.38c0.61-0.25,1.14-0.6,1.58-1.06
		c0.44-0.45,0.79-0.97,1.05-1.57c0.26-0.59,0.39-1.24,0.39-1.92c0-0.67-0.13-1.3-0.39-1.89c-0.26-0.59-0.61-1.11-1.05-1.56
		c-0.44-0.44-0.97-0.79-1.58-1.04c-0.61-0.25-1.29-0.38-2.02-0.38c-0.71,0-1.38,0.13-2,0.38c-0.62,0.25-1.17,0.59-1.63,1.03
		c-0.46,0.43-0.82,0.95-1.08,1.54c-0.26,0.6-0.39,1.24-0.39,1.92c0,0.69,0.13,1.33,0.39,1.93c0.26,0.6,0.62,1.13,1.08,1.57
		c0.46,0.44,1,0.79,1.63,1.04C953.81,75.68,954.47,75.81,955.18,75.81z"/>
	<path class="o2-text-st0" d="M972.01,78.62l-6.91-16.12h4.15l4.7,11.53l4.44-11.53h4.09l-10.05,24.6h-3.95L972.01,78.62z"/>
</g>
<g>
	<path class="o2-text-st0" d="M1208.56,0.05h28.58v7.02h-19.6v9.07h19.6v7.02h-19.6v9.29h19.6v7.02h-28.58V0.05z"/>
	<path class="o2-text-st0" d="M1242.16,0.05h8.91l14.59,16.58l15.18-16.58h8.51v39.42h-8.98V11.83l-14.78,16.31l-14.45-16.04v27.38h-8.98
		V0.05z"/>
	<path class="o2-text-st0" d="M1294.83,0.05h16.5c2.51,0,4.82,0.37,6.93,1.11c2.11,0.74,3.94,1.74,5.48,3c1.54,1.26,2.75,2.75,3.63,4.46
		c0.88,1.71,1.32,3.54,1.32,5.48c0,1.94-0.44,3.78-1.32,5.51c-0.88,1.73-2.09,3.22-3.63,4.48c-1.54,1.26-3.38,2.26-5.51,3
		c-2.13,0.74-4.46,1.11-6.96,1.11h-7.46v11.29h-8.98V0.05z M1303.8,6.86v14.53h6.86c1.32,0,2.53-0.19,3.63-0.57
		c1.1-0.38,2.05-0.9,2.84-1.57c0.79-0.67,1.41-1.44,1.85-2.32c0.44-0.88,0.66-1.83,0.66-2.83c0-1.01-0.22-1.95-0.66-2.83
		c-0.44-0.88-1.06-1.65-1.85-2.29c-0.79-0.65-1.74-1.16-2.84-1.54c-1.1-0.38-2.31-0.57-3.63-0.57H1303.8z"/>
	<path class="o2-text-st0" d="M1357.13,39.53c-3.43,0-6.64-0.52-9.64-1.55c-2.99-1.04-5.6-2.44-7.82-4.22c-2.22-1.77-3.97-3.87-5.25-6.27
		c-1.28-2.41-1.91-4.98-1.91-7.72c0-2.74,0.64-5.3,1.91-7.69c1.28-2.39,3.02-4.48,5.25-6.27c2.22-1.79,4.83-3.21,7.82-4.24
		c2.99-1.04,6.2-1.56,9.64-1.56c3.43,0,6.64,0.52,9.64,1.56c2.99,1.04,5.61,2.45,7.85,4.24c2.24,1.79,4,3.88,5.28,6.27
		c1.28,2.39,1.91,4.95,1.91,7.69c0,2.74-0.64,5.31-1.91,7.72c-1.28,2.41-3.04,4.5-5.28,6.27c-2.24,1.77-4.86,3.18-7.85,4.22
		C1363.77,39.01,1360.56,39.53,1357.13,39.53z M1357.13,32.29c2.2,0,4.26-0.33,6.17-0.99c1.91-0.66,3.58-1.55,5.02-2.68
		c1.43-1.13,2.55-2.45,3.37-3.98c0.81-1.52,1.22-3.15,1.22-4.89c0-1.73-0.41-3.36-1.22-4.89c-0.82-1.52-1.94-2.85-3.37-3.98
		c-1.43-1.13-3.1-2.02-5.02-2.68c-1.91-0.66-3.97-0.99-6.17-0.99s-4.26,0.33-6.17,0.99s-3.58,1.55-4.98,2.68
		c-1.41,1.13-2.52,2.45-3.33,3.98c-0.81,1.53-1.22,3.15-1.22,4.89c0,1.73,0.41,3.36,1.22,4.89c0.81,1.53,1.92,2.85,3.33,3.98
		c1.41,1.13,3.07,2.02,4.98,2.68C1352.87,31.96,1354.93,32.29,1357.13,32.29z"/>
	<path class="o2-text-st0" d="M1381.48,0.05h9.37l9.11,27.59l10.1-27.59h8.84l10.03,27.49l9.04-27.49h9.04l-13.6,39.42h-8.91l-10.1-27.81
		l-10.1,27.81h-9.11L1381.48,0.05z"/>
	<path class="o2-text-st0" d="M1450.85,0.05h28.58v7.02h-19.6v9.07h19.6v7.02h-19.6v9.29h19.6v7.02h-28.58V0.05z"/>
	<path class="o2-text-st0" d="M1484.44,39.47V0.05h15.44c2.86,0,5.4,0.33,7.62,1c2.22,0.67,4.1,1.6,5.64,2.81c1.54,1.21,2.72,2.65,3.53,4.32
		c0.81,1.67,1.22,3.54,1.22,5.59c0,2.38-0.69,4.6-2.08,6.67c-1.39,2.07-3.4,3.68-6.04,4.83l9.64,14.2h-10.23l-7.72-12.04h-8.05
		v12.04H1484.44z M1499.09,20.68c1.85,0,3.4-0.19,4.65-0.57c1.25-0.38,2.27-0.9,3.04-1.57c0.77-0.67,1.32-1.43,1.65-2.3
		c0.33-0.86,0.49-1.78,0.49-2.75c0-2.02-0.78-3.62-2.34-4.81c-1.56-1.19-4.06-1.78-7.49-1.78h-5.68v13.77H1499.09z"/>
	<path class="o2-text-st0" d="M1539.16,0.05h13.13c4.05,0,7.66,0.5,10.82,1.51c3.17,1.01,5.84,2.39,8.02,4.16c2.18,1.76,3.83,3.84,4.95,6.24
		c1.12,2.39,1.68,5,1.68,7.8s-0.62,5.42-1.85,7.83c-1.23,2.41-2.96,4.49-5.18,6.24c-2.22,1.75-4.87,3.12-7.95,4.13
		c-3.08,1.01-6.45,1.51-10.1,1.51h-13.53V0.05z M1548.13,6.86v25.81h3.5c2.64,0,5.02-0.32,7.13-0.97c2.11-0.65,3.9-1.56,5.38-2.73
		c1.47-1.17,2.62-2.54,3.43-4.1c0.81-1.57,1.22-3.27,1.22-5.1c0-1.91-0.35-3.65-1.06-5.21c-0.71-1.57-1.78-2.92-3.23-4.08
		c-1.45-1.15-3.28-2.04-5.48-2.67c-2.2-0.63-4.8-0.95-7.79-0.95H1548.13z"/>
	<path class="o2-text-st0" d="M1581.92,0.05h28.58v7.02h-19.6v9.07h19.6v7.02h-19.6v9.29h19.6v7.02h-28.58V0.05z"/>
	<path class="o2-text-st0" d="M1631.75,39.53c-4.36,0-8.03-0.67-11.02-2.02c-2.99-1.35-5.59-3.03-7.79-5.05l8.18-5.04
		c1.23,1.65,2.75,2.91,4.55,3.78c1.8,0.88,3.81,1.31,6.01,1.31c2.38,0,4.19-0.52,5.45-1.57c1.25-1.05,1.88-2.24,1.88-3.57
		c0-0.8-0.29-1.48-0.86-2.04c-0.57-0.56-1.32-1.04-2.24-1.44c-0.92-0.4-1.99-0.76-3.2-1.07c-1.21-0.31-2.45-0.63-3.73-0.94
		c-1.63-0.42-3.26-0.87-4.88-1.36c-1.63-0.49-3.09-1.14-4.39-1.97c-1.3-0.82-2.35-1.83-3.17-3.04c-0.81-1.21-1.22-2.72-1.22-4.54
		c0-1.54,0.4-2.97,1.19-4.3c0.79-1.33,1.9-2.49,3.33-3.49c1.43-1,3.12-1.77,5.08-2.33c1.96-0.56,4.08-0.84,6.37-0.84
		c1.94,0,3.68,0.14,5.25,0.43c1.56,0.29,2.99,0.68,4.29,1.19c1.3,0.5,2.49,1.11,3.56,1.81c1.08,0.7,2.1,1.47,3.07,2.29l-7.39,4.7
		c-2.07-2.6-4.97-3.89-8.71-3.89c-2.2,0-3.87,0.42-5.02,1.26c-1.14,0.84-1.72,1.87-1.72,3.09c0,0.77,0.26,1.42,0.79,1.94
		c0.53,0.52,1.24,0.99,2.14,1.39c0.9,0.4,1.95,0.76,3.14,1.08c1.19,0.31,2.44,0.65,3.76,1c1.63,0.42,3.27,0.9,4.92,1.44
		c1.65,0.54,3.15,1.24,4.49,2.1c1.34,0.86,2.43,1.91,3.27,3.15c0.83,1.24,1.25,2.79,1.25,4.64c0,1.5-0.37,2.97-1.12,4.41
		c-0.75,1.43-1.83,2.7-3.23,3.8c-1.41,1.1-3.15,1.99-5.21,2.68C1636.75,39.19,1634.39,39.53,1631.75,39.53z"/>
	<path class="o2-text-st0" d="M1653,0.05h8.98v39.42H1653V0.05z"/>
	<path class="o2-text-st0" d="M1691.55,39.53c-3.74,0-7.15-0.53-10.23-1.58c-3.08-1.05-5.72-2.49-7.92-4.3c-2.2-1.81-3.89-3.91-5.08-6.3
		c-1.19-2.39-1.78-4.92-1.78-7.59c0-2.74,0.62-5.31,1.85-7.72c1.23-2.41,2.94-4.5,5.12-6.27c2.18-1.77,4.77-3.18,7.79-4.22
		c3.01-1.04,6.3-1.56,9.87-1.56c2.51,0,4.86,0.24,7.06,0.71c2.2,0.47,4.23,1.15,6.11,2.03c1.87,0.88,3.54,1.92,5.02,3.13
		c1.47,1.21,2.72,2.54,3.73,3.98l-7.92,3.52c-1.5-2.07-3.4-3.62-5.71-4.67c-2.31-1.05-5.05-1.57-8.22-1.57
		c-2.24,0-4.32,0.34-6.24,1.01c-1.91,0.68-3.59,1.59-5.02,2.73c-1.43,1.14-2.54,2.48-3.33,4c-0.79,1.53-1.19,3.15-1.19,4.89
		c0,1.77,0.4,3.41,1.19,4.94c0.79,1.53,1.9,2.86,3.33,4c1.43,1.14,3.13,2.05,5.12,2.7c1.98,0.66,4.13,0.99,6.47,0.99
		c3.61,0,6.61-0.77,9.01-2.32c2.4-1.55,4.04-3.62,4.92-6.21h-15.38v-7.02h25.01v2.92c0,2.66-0.55,5.19-1.65,7.59
		c-1.1,2.39-2.67,4.49-4.72,6.29c-2.05,1.8-4.52,3.23-7.42,4.29C1698.41,39,1695.15,39.53,1691.55,39.53z"/>
	<path class="o2-text-st0" d="M1719.33,0.05h10.16l20.86,26.84V0.05h8.98v39.42h-9.57l-21.45-27.7v27.7h-8.98V0.05z"/>
	<path class="o2-text-st0" d="M1779.19,0.05h9.37l9.11,27.59l10.1-27.59h8.84l10.03,27.49l9.04-27.49h9.04l-13.6,39.42h-8.91l-10.1-27.81
		l-10.1,27.81h-9.11L1779.19,0.05z"/>
	<path class="o2-text-st0" d="M1848.89,0.05h8.98v39.42h-8.98V0.05z"/>
	<path class="o2-text-st0" d="M1875.55,7.07h-12.87V0.05h34.78v7.02h-12.94v32.4h-8.98V7.07z"/>
	<path class="o2-text-st0" d="M1929.41,23.22h-18.48v16.25h-8.98V0.05h8.98V16.2h18.48V0.05h8.98v39.42h-8.98V23.22z"/>
	<path class="o2-text-st0" d="M1971.91,7.07h-12.87V0.05h34.78v7.02h-12.94v32.4h-8.98V7.07z"/>
	<path class="o2-text-st0" d="M1998.31,0.05h28.58v7.02h-19.6v9.07h19.6v7.02h-19.6v9.29h19.6v7.02h-28.58V0.05z"/>
	<path class="o2-text-st0" d="M2055.66,39.53c-3.7,0-7.07-0.52-10.13-1.55c-3.06-1.04-5.67-2.44-7.82-4.22c-2.16-1.77-3.83-3.87-5.02-6.27
		c-1.19-2.41-1.78-4.98-1.78-7.72c0-2.88,0.64-5.52,1.91-7.93c1.28-2.41,3.02-4.49,5.25-6.25c2.22-1.76,4.84-3.13,7.85-4.11
		c3.01-0.98,6.26-1.48,9.74-1.48c2.24,0,4.41,0.24,6.5,0.71c2.09,0.47,4.05,1.14,5.87,2c1.83,0.86,3.48,1.9,4.95,3.12
		c1.47,1.22,2.74,2.58,3.79,4.07l-7.85,3.91c-1.41-2.03-3.19-3.63-5.35-4.81c-2.16-1.18-4.8-1.76-7.92-1.76
		c-2.29,0-4.4,0.32-6.34,0.96c-1.94,0.64-3.61,1.52-5.02,2.65c-1.41,1.13-2.51,2.45-3.3,3.98c-0.79,1.52-1.19,3.17-1.19,4.94
		c0,1.73,0.4,3.35,1.19,4.86c0.79,1.51,1.88,2.82,3.27,3.95c1.39,1.13,3.04,2.01,4.95,2.65c1.91,0.64,3.99,0.96,6.24,0.96
		c3.34,0,6.17-0.66,8.48-1.98c2.31-1.32,4.1-3.01,5.38-5.07l8.18,3.35c-1.06,1.63-2.34,3.12-3.86,4.49
		c-1.52,1.36-3.21,2.53-5.08,3.51c-1.87,0.97-3.89,1.73-6.07,2.26C2060.32,39.26,2058.04,39.53,2055.66,39.53z"/>
	<path class="o2-text-st0" d="M2108.4,23.22h-18.48v16.25h-8.98V0.05h8.98V16.2h18.48V0.05h8.98v39.42h-8.98V23.22z"/>
	<path class="o2-text-st0" d="M2122.92,0.05h10.16l20.86,26.84V0.05h8.98v39.42h-9.57l-21.45-27.7v27.7h-8.98V0.05z"/>
	<path class="o2-text-st0" d="M2191.75,39.53c-3.43,0-6.64-0.52-9.64-1.55c-2.99-1.04-5.6-2.44-7.82-4.22c-2.22-1.77-3.97-3.87-5.25-6.27
		c-1.28-2.41-1.91-4.98-1.91-7.72c0-2.74,0.64-5.3,1.91-7.69c1.28-2.39,3.02-4.48,5.25-6.27c2.22-1.79,4.83-3.21,7.82-4.24
		c2.99-1.04,6.2-1.56,9.64-1.56c3.43,0,6.64,0.52,9.64,1.56c2.99,1.04,5.61,2.45,7.85,4.24c2.24,1.79,4,3.88,5.28,6.27
		c1.28,2.39,1.91,4.95,1.91,7.69c0,2.74-0.64,5.31-1.91,7.72c-1.28,2.41-3.04,4.5-5.28,6.27c-2.24,1.77-4.86,3.18-7.85,4.22
		C2198.4,39.01,2195.19,39.53,2191.75,39.53z M2191.75,32.29c2.2,0,4.26-0.33,6.17-0.99c1.91-0.66,3.58-1.55,5.02-2.68
		c1.43-1.13,2.55-2.45,3.37-3.98c0.81-1.52,1.22-3.15,1.22-4.89c0-1.73-0.41-3.36-1.22-4.89c-0.81-1.52-1.94-2.85-3.37-3.98
		c-1.43-1.13-3.1-2.02-5.02-2.68c-1.91-0.66-3.97-0.99-6.17-0.99c-2.2,0-4.26,0.33-6.17,0.99c-1.91,0.66-3.58,1.55-4.98,2.68
		c-1.41,1.13-2.52,2.45-3.33,3.98c-0.81,1.53-1.22,3.15-1.22,4.89c0,1.73,0.41,3.36,1.22,4.89c0.81,1.53,1.92,2.85,3.33,3.98
		c1.41,1.13,3.07,2.02,4.98,2.68C2187.5,31.96,2189.55,32.29,2191.75,32.29z"/>
	<path class="o2-text-st0" d="M2220.6,0.05h8.98v32.4h17.62v7.02h-26.6V0.05z"/>
	<path class="o2-text-st0" d="M2272.34,39.53c-3.43,0-6.64-0.52-9.64-1.55c-2.99-1.04-5.6-2.44-7.82-4.22c-2.22-1.77-3.97-3.87-5.25-6.27
		c-1.28-2.41-1.91-4.98-1.91-7.72c0-2.74,0.64-5.3,1.91-7.69c1.28-2.39,3.02-4.48,5.25-6.27c2.22-1.79,4.83-3.21,7.82-4.24
		c2.99-1.04,6.2-1.56,9.64-1.56c3.43,0,6.64,0.52,9.64,1.56c2.99,1.04,5.61,2.45,7.85,4.24c2.24,1.79,4,3.88,5.28,6.27
		c1.28,2.39,1.91,4.95,1.91,7.69c0,2.74-0.64,5.31-1.91,7.72c-1.28,2.41-3.04,4.5-5.28,6.27c-2.24,1.77-4.86,3.18-7.85,4.22
		C2278.98,39.01,2275.77,39.53,2272.34,39.53z M2272.34,32.29c2.2,0,4.26-0.33,6.17-0.99c1.91-0.66,3.59-1.55,5.02-2.68
		c1.43-1.13,2.55-2.45,3.37-3.98c0.81-1.52,1.22-3.15,1.22-4.89c0-1.73-0.41-3.36-1.22-4.89c-0.81-1.52-1.94-2.85-3.37-3.98
		c-1.43-1.13-3.1-2.02-5.02-2.68c-1.91-0.66-3.97-0.99-6.17-0.99c-2.2,0-4.26,0.33-6.17,0.99c-1.91,0.66-3.58,1.55-4.98,2.68
		c-1.41,1.13-2.52,2.45-3.33,3.98c-0.81,1.53-1.22,3.15-1.22,4.89c0,1.73,0.41,3.36,1.22,4.89c0.81,1.53,1.92,2.85,3.33,3.98
		c1.41,1.13,3.07,2.02,4.98,2.68C2268.08,31.96,2270.14,32.29,2272.34,32.29z"/>
	<path class="o2-text-st0" d="M2325.53,39.53c-3.74,0-7.15-0.53-10.23-1.58c-3.08-1.05-5.72-2.49-7.92-4.3c-2.2-1.81-3.89-3.91-5.08-6.3
		c-1.19-2.39-1.78-4.92-1.78-7.59c0-2.74,0.61-5.31,1.85-7.72c1.23-2.41,2.94-4.5,5.12-6.27c2.18-1.77,4.77-3.18,7.79-4.22
		c3.01-1.04,6.3-1.56,9.87-1.56c2.51,0,4.86,0.24,7.06,0.71c2.2,0.47,4.23,1.15,6.11,2.03c1.87,0.88,3.54,1.92,5.02,3.13
		c1.47,1.21,2.72,2.54,3.73,3.98l-7.92,3.52c-1.5-2.07-3.4-3.62-5.71-4.67c-2.31-1.05-5.05-1.57-8.22-1.57
		c-2.24,0-4.32,0.34-6.24,1.01c-1.91,0.68-3.59,1.59-5.02,2.73c-1.43,1.14-2.54,2.48-3.33,4c-0.79,1.53-1.19,3.15-1.19,4.89
		c0,1.77,0.4,3.41,1.19,4.94c0.79,1.53,1.9,2.86,3.33,4c1.43,1.14,3.13,2.05,5.12,2.7c1.98,0.66,4.14,0.99,6.47,0.99
		c3.61,0,6.61-0.77,9.01-2.32c2.4-1.55,4.04-3.62,4.92-6.21h-15.38v-7.02h25.01v2.92c0,2.66-0.55,5.19-1.65,7.59
		c-1.1,2.39-2.67,4.49-4.72,6.29c-2.05,1.8-4.52,3.23-7.42,4.29C2332.4,39,2329.14,39.53,2325.53,39.53z"/>
	<path class="o2-text-st0" d="M2362.43,20.79l-15.31-20.74h9.9l9.97,13.66l10.03-13.66h9.9l-15.51,20.9v18.52h-8.98V20.79z"/>
</g>
<g>
	<path class="o2-text-st0" d="M1228.17,60.76c-1.18-1.15-2.56-2.06-4.14-2.73c-1.58-0.67-3.27-1-5.07-1s-3.5,0.33-5.07,1
		c-1.58,0.67-2.95,1.58-4.12,2.73c-1.17,1.15-2.09,2.5-2.76,4.04c-0.67,1.54-1.01,3.19-1.01,4.95c0,1.76,0.34,3.42,1.01,4.97
		c0.67,1.55,1.59,2.9,2.76,4.04c1.17,1.14,2.54,2.05,4.12,2.71c1.58,0.67,3.27,1,5.07,1s3.5-0.33,5.07-1
		c1.58-0.67,2.95-1.57,4.14-2.71c1.18-1.14,2.11-2.49,2.78-4.04c0.67-1.55,1.01-3.21,1.01-4.97c0-1.76-0.34-3.41-1.01-4.95
		C1230.28,63.26,1229.35,61.92,1228.17,60.76z M1226.63,72.9c-0.43,0.98-1.02,1.83-1.77,2.56c-0.75,0.72-1.63,1.3-2.64,1.72
		c-1.01,0.42-2.09,0.64-3.25,0.64c-1.16,0-2.24-0.21-3.25-0.64c-1.01-0.42-1.88-1-2.62-1.72c-0.74-0.73-1.33-1.58-1.76-2.56
		c-0.43-0.98-0.64-2.03-0.64-3.14c0-1.11,0.21-2.16,0.64-3.14c0.43-0.98,1.01-1.83,1.76-2.56c0.74-0.72,1.62-1.3,2.62-1.72
		c1.01-0.42,2.09-0.64,3.25-0.64c1.16,0,2.24,0.21,3.25,0.64c1.01,0.42,1.89,1,2.64,1.72c0.75,0.72,1.34,1.58,1.77,2.56
		c0.43,0.98,0.64,2.03,0.64,3.14C1227.27,70.87,1227.05,71.92,1226.63,72.9z"/>
	<polygon class="o2-text-st0" points="1270.18,57.07 1265.45,57.07 1265.45,82.44 1279.46,82.44 1279.46,77.92 1270.18,77.92 	"/>
	<path class="o2-text-st0" d="M1296.5,64.79c-0.74-0.84-1.68-1.5-2.82-1.99c-1.14-0.49-2.38-0.73-3.72-0.73c-1.27,0-2.52,0.23-3.74,0.69
		c-1.22,0.46-2.29,1.12-3.23,1.99c-0.94,0.87-1.69,1.94-2.26,3.2c-0.57,1.26-0.85,2.71-0.85,4.34c0,1.61,0.29,3.04,0.87,4.3
		c0.58,1.26,1.34,2.33,2.29,3.2c0.95,0.87,2.02,1.54,3.22,1.99c1.19,0.46,2.4,0.69,3.63,0.69c1.34,0,2.59-0.26,3.75-0.78
		c1.16-0.52,2.11-1.23,2.85-2.14v2.89h4.69V62.11h-4.69V64.79z M1296.27,74.54c-0.31,0.72-0.74,1.35-1.27,1.89
		c-0.53,0.54-1.17,0.97-1.91,1.27c-0.74,0.3-1.55,0.46-2.43,0.46c-0.86,0-1.66-0.15-2.42-0.46c-0.75-0.3-1.41-0.72-1.96-1.26
		c-0.56-0.53-0.99-1.16-1.3-1.89c-0.31-0.73-0.47-1.51-0.47-2.33c0-0.83,0.16-1.6,0.47-2.32c0.31-0.72,0.75-1.34,1.3-1.86
		c0.56-0.52,1.21-0.94,1.96-1.24c0.75-0.3,1.56-0.46,2.42-0.46c0.88,0,1.69,0.15,2.43,0.46c0.74,0.3,1.38,0.72,1.91,1.26
		c0.53,0.53,0.96,1.16,1.27,1.88c0.31,0.72,0.47,1.48,0.47,2.28C1296.74,73.05,1296.59,73.82,1296.27,74.54z"/>
	<path class="o2-text-st0" d="M1324.57,67.95c-0.57-1.26-1.32-2.33-2.24-3.2c-0.93-0.87-1.99-1.54-3.2-1.99c-1.21-0.46-2.44-0.69-3.72-0.69
		c-1.37,0-2.62,0.27-3.77,0.82c-1.15,0.54-2.08,1.27-2.8,2.17v-8.01h-4.69v25.39h4.66v-2.89c0.74,0.93,1.69,1.65,2.85,2.16
		c1.16,0.51,2.43,0.76,3.82,0.76c1.23,0,2.43-0.23,3.61-0.69c1.18-0.46,2.24-1.12,3.18-1.99c0.94-0.87,1.7-1.94,2.28-3.2
		c0.58-1.26,0.87-2.7,0.87-4.3C1325.42,70.66,1325.14,69.21,1324.57,67.95z M1320.33,74.56c-0.31,0.73-0.75,1.36-1.3,1.89
		c-0.56,0.53-1.21,0.95-1.95,1.26c-0.74,0.3-1.54,0.46-2.4,0.46c-0.86,0-1.66-0.15-2.4-0.46c-0.74-0.3-1.38-0.73-1.93-1.27
		c-0.54-0.54-0.97-1.18-1.27-1.89c-0.3-0.72-0.45-1.49-0.45-2.32c0-0.8,0.15-1.57,0.45-2.28c0.3-0.72,0.72-1.34,1.27-1.88
		c0.54-0.53,1.19-0.95,1.93-1.26c0.74-0.3,1.54-0.46,2.4-0.46c0.86,0,1.66,0.15,2.4,0.46c0.74,0.3,1.39,0.72,1.95,1.24
		c0.56,0.52,0.99,1.14,1.3,1.86c0.31,0.72,0.47,1.49,0.47,2.32C1320.8,73.05,1320.65,73.83,1320.33,74.56z"/>
	<path class="o2-text-st0" d="M1248.24,72c1.71-1.66,2.65-3.89,2.65-6.28c0-4.83-3.93-8.76-8.76-8.76c-4.83,0-8.76,3.93-8.76,8.76h4.55
		c0-2.32,1.89-4.21,4.21-4.21s4.21,1.89,4.21,4.21c0,1.12-0.43,2.17-1.22,2.97l-11.33,9.48l-0.19,0.16v4.11h17.28V78h-9.79
		l7.09-5.94L1248.24,72z"/>
	<g>
		<g>
			<path class="o2-text-st0" d="M1331.55,64.79c-2.23,0-4.04-1.81-4.04-4.04c0-2.23,1.81-4.04,4.04-4.04c2.23,0,4.04,1.81,4.04,4.04
				C1335.58,62.98,1333.77,64.79,1331.55,64.79z M1331.55,57.46c-1.82,0-3.29,1.48-3.29,3.29s1.48,3.29,3.29,3.29
				c1.82,0,3.29-1.48,3.29-3.29S1333.37,57.46,1331.55,57.46z"/>
		</g>
		<g>
			<g>
				<path class="o2-text-st0" d="M1330.33,62.67v-3.7h1.19c0.22,0,0.41,0.03,0.59,0.09c0.17,0.06,0.31,0.15,0.43,0.26
					c0.12,0.11,0.21,0.25,0.27,0.41c0.06,0.16,0.09,0.33,0.09,0.52c0,0.22-0.05,0.43-0.16,0.63c-0.11,0.19-0.26,0.35-0.46,0.45
					l0.74,1.33h-0.79l-0.59-1.13h-0.62v1.13H1330.33z M1331.46,60.91c0.14,0,0.26-0.02,0.36-0.05c0.1-0.04,0.17-0.08,0.23-0.15
					c0.06-0.06,0.1-0.13,0.13-0.22c0.03-0.08,0.04-0.17,0.04-0.26c0-0.19-0.06-0.34-0.18-0.45c-0.12-0.11-0.31-0.17-0.58-0.17h-0.44
					v1.29H1331.46z"/>
			</g>
		</g>
	</g>
</g>
<g>
	<path class="o2-text-st0" d="M1375.79,81.67h-2.11v-1.45h-19.38v1.45h-2.12V56.98h9.21v10.81h5.13V56.95h9.27V81.67z M1373.68,78.19V59.01
		h-5.13v10.84h-9.27V59.07h-4.98v19.12H1373.68z"/>
	<path class="o2-text-st0" d="M1383.04,81.9h-2.12V65.76h6.03v-9.27h12.02v9.27h6.08V81.9h-2.12v-1.33h-19.91V81.9z M1402.95,67.79h-6.08
		v-9.24h-7.79v9.24h-6.03v10.75h19.91V67.79z"/>
	<path class="o2-text-st0" d="M1410.63,81.99l-1.16-1.77c5.39-1.39,9.16-3.27,11.3-5.59c0.35-0.41,0.64-0.84,0.93-1.3h-11.97v-1.97h12.98
		c0.75-1.8,1.16-3.85,1.25-6.14v-3.42h2.03v3.42c-0.09,2.29-0.43,4.35-1.07,6.14h9.3v1.97h-10.17c-0.26,0.46-0.52,0.9-0.78,1.3
		c4.11,1.62,7.91,3.51,11.33,5.71l-1.13,1.8c-3.71-2.49-7.48-4.46-11.36-5.97C1419.76,78.65,1415.93,80.6,1410.63,81.99z
		 M1433.72,63.79h-2.03v-3.62h-19.53v3.62h-2.03v-5.56h11.01c-0.35-0.98-0.75-1.85-1.19-2.67l2.14-0.35
		c0.38,0.87,0.75,1.88,1.13,3.01h10.49V63.79z M1419.38,68.95l-1.07,1.65c-1.85-1.39-3.8-2.49-5.77-3.27l1.04-1.56
		C1415.7,66.66,1417.64,67.73,1419.38,68.95z M1422.16,64.92l-1.07,1.65c-1.94-1.45-3.94-2.58-5.97-3.39l1.07-1.56
		C1418.37,62.52,1420.37,63.62,1422.16,64.92z"/>
	<path class="o2-text-st0" d="M1444.01,74.97c-1.91,0.72-4.06,1.3-6.46,1.77l-0.26-1.97c2.55-0.43,4.81-0.99,6.72-1.68V74.97z
		 M1438.08,58.63v-1.91h9.1l-1.39,11.94h1.8c0,6.61-0.29,10.4-0.84,11.42c-0.58,0.99-1.77,1.51-3.59,1.51
		c-0.67,0-1.36-0.03-2.06-0.09l-0.55-1.85c1.01,0.12,1.74,0.17,2.14,0.17c1.39,0,2.23-0.46,2.52-1.33c0.29-0.93,0.46-3.56,0.46-7.97
		h-7.39l1.36-9.94l1.91,0.12l-1.16,7.97h3.42l1.28-10.03H1438.08z M1448.59,67.01l-1.1-1.68c3.25-2.52,5.77-5.8,7.5-9.82h1.91
		c1.45,3.71,4,6.92,7.59,9.71l-1.13,1.74c-1.25-0.96-2.35-1.97-3.33-3.04v1.8h-8.14v-1.8C1450.85,65.07,1449.75,66.11,1448.59,67.01
		z M1457.75,78.94c1.1-3.07,2.09-6.9,2.96-11.45l2,0.49c-0.81,4.11-1.77,7.76-2.93,10.95h4.38v2h-15.82v-2H1457.75z M1453.49,76.66
		l-1.8,0.43c-0.64-2.84-1.48-5.53-2.49-8.14l1.8-0.61C1451.92,70.74,1452.74,73.53,1453.49,76.66z M1455.95,57.53
		c-1.16,2.43-2.46,4.52-3.97,6.26h7.97C1458.27,61.88,1456.94,59.79,1455.95,57.53z M1457.57,75.41l-1.83,0.43
		c-0.52-2.69-1.22-5.3-2.09-7.79l1.8-0.55C1456.24,69.79,1456.94,72.42,1457.57,75.41z"/>
	<path class="o2-text-st0" d="M1489.51,62.81v1.91h-12.05c-1.51,2.03-2.81,3.48-3.94,4.4c4.09-0.17,8.17-0.38,12.26-0.67
		c-0.81-0.81-1.65-1.59-2.52-2.38l1.33-1.27c2.38,1.97,4.38,3.94,6,5.88l-1.51,1.54c-0.52-0.72-1.13-1.45-1.77-2.14
		c-2.06,0.15-4.17,0.29-6.32,0.41v3.24h9.24v1.94h-9.24v3.62h11.5v1.97h-25.15v-1.97h11.5v-3.62h-9.18v-1.94h9.18V70.6
		c-2.72,0.14-5.51,0.26-8.34,0.38l-0.46-1.8c0.17-0.06,0.32-0.14,0.43-0.2c1.19-0.52,2.72-1.94,4.61-4.26h-4.75v-1.91H1489.51z
		 M1481.19,58.11h10.84v5.62h-2.12v-3.65h-19.99v3.65h-2.11v-5.62h11.13c-0.43-0.93-0.93-1.8-1.45-2.58l2.32-0.41
		C1480.27,56,1480.73,57.01,1481.19,58.11z"/>
</g>
<g>
	<path class="o2-text-st0" d="M1706.08,58.32h12.47v3.74h-8.55v4.84h8.55v3.74h-8.55v4.95h8.55v3.74h-12.47V58.32z"/>
	<path class="o2-text-st0" d="M1720.65,62.5h3.86v2.18c0.54-0.68,1.21-1.22,2.03-1.61c0.82-0.4,1.74-0.59,2.78-0.59
		c1.33,0,2.44,0.25,3.36,0.75c0.91,0.5,1.62,1.21,2.12,2.11c0.58-0.87,1.34-1.56,2.29-2.09c0.95-0.52,2.03-0.78,3.24-0.78
		c2.27,0,3.97,0.62,5.13,1.85c1.15,1.23,1.73,2.93,1.73,5.07v9.95h-3.98v-9.6c0-1.2-0.31-2.15-0.92-2.86
		c-0.62-0.7-1.53-1.06-2.74-1.06c-1.06,0-1.94,0.36-2.65,1.07c-0.71,0.71-1.07,1.79-1.07,3.24v9.2h-3.95v-9.71
		c0-1.18-0.3-2.11-0.89-2.79c-0.6-0.68-1.48-1.01-2.65-1.01c-1.09,0-2,0.37-2.72,1.1c-0.72,0.73-1.08,1.83-1.08,3.29v9.12h-3.89
		V62.5z"/>
	<path class="o2-text-st0" d="M1758.76,79.38c-1.15,0-2.21-0.2-3.17-0.6c-0.96-0.4-1.74-0.98-2.33-1.73V87.1h-3.86V62.5h3.86v2.47
		c0.59-0.76,1.37-1.37,2.32-1.82c0.95-0.45,2-0.68,3.15-0.68c1.06,0,2.08,0.19,3.08,0.57c1,0.38,1.88,0.93,2.65,1.65
		c0.77,0.72,1.39,1.61,1.86,2.65c0.47,1.05,0.71,2.24,0.71,3.59c0,1.33-0.24,2.52-0.72,3.57c-0.48,1.05-1.11,1.93-1.89,2.65
		c-0.78,0.72-1.66,1.27-2.65,1.65S1759.78,79.38,1758.76,79.38z M1758.12,75.81c0.71,0,1.37-0.13,1.99-0.38
		c0.61-0.25,1.15-0.6,1.61-1.04s0.82-0.96,1.08-1.57c0.26-0.6,0.39-1.25,0.39-1.93c0-0.68-0.13-1.33-0.39-1.92
		c-0.26-0.6-0.62-1.11-1.08-1.54c-0.46-0.43-1-0.78-1.61-1.03c-0.61-0.25-1.28-0.38-1.99-0.38c-0.73,0-1.4,0.13-2.02,0.38
		c-0.61,0.25-1.14,0.6-1.58,1.04c-0.44,0.44-0.79,0.96-1.04,1.56c-0.25,0.6-0.37,1.23-0.37,1.89c0,0.69,0.12,1.33,0.37,1.92
		c0.25,0.6,0.59,1.12,1.04,1.57c0.44,0.45,0.97,0.8,1.58,1.06C1756.72,75.68,1757.39,75.81,1758.12,75.81z"/>
	<path class="o2-text-st0" d="M1776.96,79.38c-1.21,0-2.35-0.22-3.41-0.65c-1.07-0.43-1.99-1.04-2.78-1.8c-0.79-0.77-1.41-1.67-1.86-2.69
		c-0.45-1.03-0.68-2.12-0.68-3.29c0-1.18,0.23-2.29,0.68-3.32c0.45-1.03,1.07-1.92,1.86-2.69c0.79-0.77,1.71-1.37,2.78-1.8
		c1.07-0.43,2.2-0.65,3.41-0.65s2.34,0.22,3.4,0.65c1.06,0.43,1.98,1.04,2.78,1.8c0.8,0.77,1.42,1.67,1.87,2.69
		c0.45,1.03,0.68,2.13,0.68,3.32c0,1.17-0.23,2.26-0.68,3.29c-0.45,1.03-1.08,1.93-1.87,2.69c-0.8,0.77-1.72,1.37-2.78,1.8
		C1779.31,79.16,1778.17,79.38,1776.96,79.38z M1776.96,75.72c0.69,0,1.33-0.13,1.93-0.38c0.59-0.25,1.11-0.59,1.56-1.03
		c0.44-0.43,0.79-0.94,1.04-1.53c0.25-0.59,0.37-1.2,0.37-1.85c0-0.67-0.12-1.29-0.37-1.88c-0.25-0.58-0.6-1.09-1.04-1.53
		c-0.44-0.43-0.96-0.77-1.56-1.03c-0.6-0.25-1.24-0.38-1.93-0.38s-1.34,0.13-1.94,0.38c-0.6,0.25-1.12,0.59-1.56,1.03
		c-0.43,0.43-0.77,0.94-1.02,1.53c-0.25,0.59-0.37,1.21-0.37,1.88c0,0.65,0.12,1.27,0.37,1.85c0.25,0.59,0.59,1.09,1.02,1.53
		c0.43,0.43,0.95,0.78,1.56,1.03C1775.62,75.59,1776.27,75.72,1776.96,75.72z"/>
	<path class="o2-text-st0" d="M1785.49,62.5h3.97l3.72,11.61l4.23-11.61h3.86l4.15,11.64l3.86-11.64h3.95l-5.9,16.85h-3.75l-4.26-11.67
		l-4.38,11.67h-3.83L1785.49,62.5z"/>
	<path class="o2-text-st0" d="M1821.95,79.38c-1.32,0-2.53-0.22-3.63-0.65c-1.09-0.43-2.03-1.03-2.81-1.79c-0.78-0.76-1.38-1.65-1.81-2.68
		c-0.43-1.03-0.65-2.12-0.65-3.29c0-1.18,0.23-2.3,0.68-3.33s1.07-1.93,1.86-2.69c0.79-0.76,1.71-1.36,2.78-1.8
		c1.07-0.44,2.21-0.67,3.44-0.67c1.25,0,2.41,0.2,3.47,0.61c1.07,0.41,1.98,0.97,2.75,1.7c0.77,0.73,1.37,1.59,1.8,2.58
		c0.43,0.99,0.65,2.07,0.65,3.24v1.38h-13.71c0.27,1.19,0.85,2.15,1.76,2.88c0.9,0.73,2.05,1.09,3.43,1.09
		c1.09,0,2.05-0.27,2.85-0.81c0.81-0.54,1.41-1.26,1.81-2.16l3.2,1.84c-0.73,1.36-1.75,2.46-3.07,3.3
		C1825.43,78.96,1823.84,79.38,1821.95,79.38z M1821.81,65.9c-1.17,0-2.18,0.26-3.04,0.78c-0.85,0.52-1.45,1.2-1.8,2.05h9.56
		c-0.29-0.93-0.84-1.63-1.67-2.11C1824.04,66.14,1823.02,65.9,1821.81,65.9z"/>
	<path class="o2-text-st0" d="M1832.21,62.5h3.86V65c0.79-1.67,2.23-2.51,4.32-2.51c0.61,0,1.17,0.07,1.66,0.2s0.93,0.31,1.31,0.52
		l-1.47,3.69c-0.29-0.19-0.61-0.35-0.96-0.48c-0.36-0.12-0.81-0.19-1.37-0.19c-1.13,0-1.99,0.32-2.58,0.96
		c-0.59,0.64-0.88,1.69-0.88,3.15v8.99h-3.89V62.5z"/>
	<path class="o2-text-st0" d="M1859.43,79.38c-1.02,0-2.02-0.19-3.01-0.57s-1.88-0.93-2.66-1.65c-0.79-0.72-1.42-1.61-1.9-2.65
		c-0.48-1.05-0.72-2.23-0.72-3.57c0-1.35,0.23-2.55,0.71-3.59c0.47-1.05,1.09-1.93,1.87-2.65c0.78-0.72,1.67-1.27,2.68-1.65
		c1.01-0.38,2.04-0.57,3.1-0.57c1.09,0,2.11,0.21,3.05,0.62c0.94,0.41,1.72,0.98,2.33,1.71v-6.77h3.92v21.32h-3.89v-2.39
		c-0.62,0.75-1.4,1.34-2.36,1.78C1861.58,79.16,1860.54,79.38,1859.43,79.38z M1860.06,75.81c0.73,0,1.4-0.13,2.02-0.38
		c0.61-0.25,1.14-0.6,1.58-1.06c0.44-0.45,0.79-0.97,1.05-1.57c0.26-0.59,0.39-1.24,0.39-1.92c0-0.67-0.13-1.3-0.39-1.89
		c-0.26-0.59-0.61-1.11-1.05-1.56c-0.44-0.44-0.97-0.79-1.58-1.04c-0.61-0.25-1.29-0.38-2.02-0.38c-0.71,0-1.38,0.13-2,0.38
		c-0.62,0.25-1.17,0.59-1.63,1.03c-0.46,0.43-0.82,0.95-1.08,1.54c-0.26,0.6-0.39,1.24-0.39,1.92c0,0.69,0.13,1.33,0.39,1.93
		c0.26,0.6,0.62,1.13,1.08,1.57s1,0.79,1.63,1.04C1858.68,75.68,1859.35,75.81,1860.06,75.81z"/>
	<path class="o2-text-st0" d="M1879.36,79.38c-1.32,0-2.53-0.22-3.63-0.65c-1.09-0.43-2.03-1.03-2.81-1.79c-0.78-0.76-1.38-1.65-1.81-2.68
		c-0.43-1.03-0.65-2.12-0.65-3.29c0-1.18,0.23-2.3,0.68-3.33s1.07-1.93,1.86-2.69c0.79-0.76,1.71-1.36,2.78-1.8
		c1.07-0.44,2.21-0.67,3.44-0.67c1.25,0,2.41,0.2,3.47,0.61c1.07,0.41,1.98,0.97,2.75,1.7c0.77,0.73,1.37,1.59,1.8,2.58
		c0.43,0.99,0.65,2.07,0.65,3.24v1.38h-13.71c0.27,1.19,0.85,2.15,1.76,2.88c0.9,0.73,2.05,1.09,3.43,1.09
		c1.09,0,2.05-0.27,2.85-0.81c0.81-0.54,1.41-1.26,1.81-2.16l3.2,1.84c-0.73,1.36-1.75,2.46-3.07,3.3
		C1882.84,78.96,1881.24,79.38,1879.36,79.38z M1879.22,65.9c-1.17,0-2.18,0.26-3.04,0.78c-0.85,0.52-1.45,1.2-1.8,2.05h9.56
		c-0.29-0.93-0.84-1.63-1.67-2.11C1881.45,66.14,1880.43,65.9,1879.22,65.9z"/>
	<path class="o2-text-st0" d="M1895.95,79.38c-1.86,0-3.41-0.35-4.64-1.04c-1.23-0.69-2.18-1.7-2.85-3.01l3.6-1.62
		c0.4,0.74,0.95,1.31,1.64,1.7c0.69,0.4,1.5,0.59,2.42,0.59c0.96,0,1.68-0.19,2.16-0.58c0.48-0.38,0.72-0.84,0.72-1.37
		c0-0.29-0.11-0.53-0.33-0.71c-0.22-0.18-0.51-0.34-0.86-0.48c-0.36-0.14-0.77-0.25-1.25-0.34c-0.48-0.09-0.98-0.19-1.5-0.3
		c-0.73-0.15-1.45-0.32-2.15-0.52c-0.7-0.2-1.33-0.48-1.89-0.84c-0.56-0.36-1.01-0.81-1.35-1.37c-0.35-0.56-0.52-1.26-0.52-2.1
		c0-0.64,0.16-1.26,0.48-1.85c0.32-0.59,0.76-1.12,1.34-1.58c0.58-0.46,1.27-0.82,2.09-1.09c0.82-0.27,1.72-0.4,2.72-0.4
		c1.69,0,3.1,0.31,4.22,0.94c1.12,0.63,2.01,1.48,2.67,2.55l-3.31,1.57c-0.35-0.57-0.83-1.01-1.44-1.34
		c-0.62-0.33-1.33-0.49-2.13-0.49c-0.92,0-1.6,0.17-2.04,0.52c-0.44,0.35-0.66,0.75-0.66,1.21c0,0.53,0.33,0.91,0.98,1.14
		c0.65,0.23,1.61,0.47,2.88,0.73c0.69,0.13,1.39,0.3,2.09,0.51c0.7,0.21,1.34,0.49,1.92,0.85c0.58,0.36,1.04,0.81,1.4,1.37
		c0.35,0.56,0.53,1.26,0.53,2.1c0,0.57-0.13,1.16-0.4,1.77c-0.27,0.61-0.69,1.18-1.25,1.7c-0.57,0.52-1.28,0.95-2.15,1.28
		C1898.2,79.21,1897.16,79.38,1895.95,79.38z"/>
	<path class="o2-text-st0" d="M1904.05,58.38c0-0.73,0.22-1.32,0.66-1.77c0.44-0.45,1.04-0.68,1.79-0.68c0.77,0,1.37,0.23,1.8,0.68
		c0.43,0.45,0.65,1.04,0.65,1.77c0,0.73-0.22,1.32-0.65,1.76c-0.43,0.44-1.03,0.66-1.8,0.66c-0.79,0-1.39-0.22-1.81-0.66
		C1904.26,59.69,1904.05,59.11,1904.05,58.38z M1904.54,62.5h3.92v16.85h-3.92V62.5z"/>
	<path class="o2-text-st0" d="M1923.95,76.79c-0.62,0.81-1.4,1.44-2.36,1.9c-0.96,0.46-2.01,0.69-3.14,0.69c-1.02,0-2.02-0.19-3.01-0.57
		c-0.99-0.38-1.88-0.93-2.67-1.65c-0.79-0.72-1.42-1.61-1.9-2.65c-0.48-1.05-0.72-2.23-0.72-3.57c0-1.35,0.24-2.55,0.71-3.59
		c0.47-1.05,1.09-1.93,1.87-2.65c0.78-0.72,1.67-1.27,2.68-1.65c1.01-0.38,2.04-0.57,3.1-0.57c1.11,0,2.14,0.22,3.08,0.65
		c0.94,0.43,1.72,1.02,2.33,1.76V62.5h3.89v16.21c0,1.18-0.19,2.27-0.56,3.3c-0.37,1.02-0.93,1.92-1.66,2.69
		c-0.73,0.77-1.64,1.37-2.72,1.82c-1.09,0.45-2.34,0.67-3.76,0.67c-1.09,0-2.09-0.12-2.98-0.36c-0.89-0.24-1.7-0.58-2.41-1.01
		c-0.71-0.43-1.33-0.94-1.87-1.53c-0.54-0.59-1-1.23-1.38-1.94l3.46-2.1c0.61,1.13,1.31,1.98,2.07,2.53
		c0.77,0.56,1.82,0.84,3.17,0.84c0.73,0,1.39-0.13,1.99-0.4c0.59-0.27,1.1-0.62,1.51-1.07c0.41-0.44,0.73-0.96,0.95-1.55
		c0.22-0.6,0.33-1.21,0.33-1.84V76.79z M1919.08,75.81c0.73,0,1.4-0.13,2.02-0.38c0.61-0.25,1.14-0.6,1.58-1.06
		c0.44-0.45,0.79-0.97,1.05-1.57c0.26-0.59,0.39-1.24,0.39-1.92c0-0.67-0.13-1.3-0.39-1.89c-0.26-0.59-0.61-1.11-1.05-1.56
		c-0.44-0.44-0.97-0.79-1.58-1.04c-0.62-0.25-1.29-0.38-2.02-0.38c-0.71,0-1.38,0.13-2,0.38c-0.62,0.25-1.17,0.59-1.63,1.03
		c-0.46,0.43-0.82,0.95-1.08,1.54c-0.26,0.6-0.39,1.24-0.39,1.92c0,0.69,0.13,1.33,0.39,1.93c0.26,0.6,0.62,1.13,1.08,1.57
		s1,0.79,1.63,1.04C1917.71,75.68,1918.37,75.81,1919.08,75.81z"/>
	<path class="o2-text-st0" d="M1930.23,62.5h3.86v2.3c0.56-0.7,1.26-1.27,2.12-1.69c0.85-0.43,1.83-0.64,2.92-0.64
		c2.09,0,3.73,0.62,4.91,1.87c1.18,1.24,1.77,2.98,1.77,5.2v9.81h-3.95v-9.37c0-1.28-0.32-2.28-0.95-3.03
		c-0.63-0.74-1.58-1.11-2.85-1.11c-1.11,0-2.05,0.38-2.81,1.15c-0.76,0.77-1.14,1.88-1.14,3.32v9.03h-3.89V62.5z"/>
	<path class="o2-text-st0" d="M1954.51,62.5h3.97l3.72,11.61l4.23-11.61h3.86l4.15,11.64l3.86-11.64h3.95l-5.9,16.85h-3.75l-4.26-11.67
		l-4.38,11.67h-3.83L1954.51,62.5z"/>
	<path class="o2-text-st0" d="M1983.29,58.38c0-0.73,0.22-1.32,0.66-1.77c0.44-0.45,1.04-0.68,1.79-0.68c0.77,0,1.37,0.23,1.8,0.68
		c0.43,0.45,0.65,1.04,0.65,1.77c0,0.73-0.22,1.32-0.65,1.76c-0.43,0.44-1.03,0.66-1.8,0.66c-0.79,0-1.39-0.22-1.81-0.66
		C1983.5,59.69,1983.29,59.11,1983.29,58.38z M1983.78,62.5h3.92v16.85h-3.92V62.5z"/>
	<path class="o2-text-st0" d="M1989.34,62.5h2.88v-2.56l3.92-2.68v5.24h3.43v3.49h-3.43v6.31c0,0.73,0.04,1.32,0.12,1.77
		c0.08,0.45,0.24,0.8,0.48,1.04c0.24,0.24,0.58,0.4,1.04,0.48c0.45,0.08,1.05,0.12,1.8,0.12v3.66h-0.55c-1.31,0-2.4-0.12-3.27-0.35
		c-0.87-0.23-1.57-0.62-2.09-1.17c-0.52-0.55-0.89-1.27-1.11-2.16c-0.22-0.89-0.33-2.01-0.33-3.36v-6.34h-2.88V62.5z"/>
	<path class="o2-text-st0" d="M2001.43,58.03h3.89v6.8c0.58-0.73,1.29-1.31,2.15-1.73c0.85-0.42,1.82-0.63,2.89-0.63
		c2.09,0,3.73,0.62,4.91,1.87c1.18,1.24,1.77,2.98,1.77,5.2v9.81h-3.97V70c0-1.29-0.32-2.31-0.95-3.05
		c-0.63-0.74-1.58-1.11-2.85-1.11c-0.54,0-1.05,0.1-1.53,0.3c-0.48,0.2-0.9,0.48-1.25,0.86c-0.36,0.38-0.63,0.84-0.83,1.41
		c-0.2,0.56-0.3,1.2-0.3,1.91v9.03h-3.92V58.03z"/>
	<path class="o2-text-st0" d="M2025.72,62.5h2.88v-2.56l3.92-2.68v5.24h3.43v3.49h-3.43v6.31c0,0.73,0.04,1.32,0.12,1.77
		c0.08,0.45,0.24,0.8,0.48,1.04c0.24,0.24,0.58,0.4,1.04,0.48c0.45,0.08,1.05,0.12,1.8,0.12v3.66h-0.55c-1.31,0-2.4-0.12-3.27-0.35
		c-0.87-0.23-1.57-0.62-2.09-1.17c-0.52-0.55-0.89-1.27-1.11-2.16c-0.22-0.89-0.33-2.01-0.33-3.36v-6.34h-2.88V62.5z"/>
	<path class="o2-text-st0" d="M2045.59,79.38c-1.33,0-2.53-0.22-3.63-0.65c-1.09-0.43-2.03-1.03-2.81-1.79c-0.78-0.76-1.38-1.65-1.81-2.68
		c-0.43-1.03-0.65-2.12-0.65-3.29c0-1.18,0.23-2.3,0.68-3.33s1.07-1.93,1.86-2.69c0.79-0.76,1.71-1.36,2.78-1.8
		c1.07-0.44,2.21-0.67,3.44-0.67c1.25,0,2.41,0.2,3.47,0.61c1.07,0.41,1.98,0.97,2.75,1.7c0.77,0.73,1.37,1.59,1.8,2.58
		c0.43,0.99,0.65,2.07,0.65,3.24v1.38h-13.71c0.27,1.19,0.85,2.15,1.76,2.88c0.9,0.73,2.04,1.09,3.43,1.09
		c1.09,0,2.04-0.27,2.85-0.81c0.81-0.54,1.41-1.26,1.82-2.16l3.2,1.84c-0.73,1.36-1.75,2.46-3.07,3.3
		C2049.07,78.96,2047.47,79.38,2045.59,79.38z M2045.45,65.9c-1.17,0-2.18,0.26-3.04,0.78c-0.85,0.52-1.46,1.2-1.8,2.05h9.56
		c-0.29-0.93-0.84-1.63-1.67-2.11C2047.67,66.14,2046.66,65.9,2045.45,65.9z"/>
	<path class="o2-text-st0" d="M2064.05,79.38c-1.23,0-2.38-0.22-3.44-0.67c-1.07-0.44-1.99-1.05-2.78-1.8c-0.79-0.76-1.41-1.65-1.86-2.68
		c-0.45-1.03-0.68-2.12-0.68-3.29c0-1.18,0.23-2.29,0.68-3.32c0.45-1.03,1.07-1.92,1.86-2.69c0.79-0.77,1.71-1.37,2.78-1.8
		c1.07-0.43,2.21-0.65,3.44-0.65c0.94,0,1.83,0.13,2.66,0.38c0.83,0.25,1.6,0.61,2.29,1.06c0.69,0.45,1.3,0.99,1.81,1.61
		c0.52,0.62,0.94,1.31,1.27,2.07l-3.49,1.38c-0.38-0.87-0.97-1.56-1.77-2.07c-0.8-0.51-1.71-0.77-2.75-0.77
		c-0.71,0-1.37,0.13-1.97,0.38c-0.61,0.25-1.13,0.59-1.58,1.03c-0.45,0.43-0.8,0.94-1.05,1.53c-0.25,0.59-0.38,1.21-0.38,1.88
		c0,0.65,0.12,1.27,0.38,1.85c0.25,0.59,0.6,1.09,1.05,1.53c0.45,0.43,0.98,0.78,1.6,1.03c0.62,0.25,1.28,0.38,1.99,0.38
		c1.09,0,2.03-0.27,2.81-0.82c0.78-0.55,1.36-1.26,1.74-2.12l3.49,1.4c-0.33,0.75-0.75,1.45-1.27,2.09
		c-0.52,0.64-1.12,1.19-1.8,1.65c-0.68,0.46-1.45,0.82-2.29,1.07C2065.94,79.25,2065.03,79.38,2064.05,79.38z"/>
	<path class="o2-text-st0" d="M2073.62,58.03h3.89v6.8c0.58-0.73,1.29-1.31,2.15-1.73c0.85-0.42,1.82-0.63,2.89-0.63
		c2.09,0,3.73,0.62,4.91,1.87c1.18,1.24,1.77,2.98,1.77,5.2v9.81h-3.97V70c0-1.29-0.32-2.31-0.95-3.05
		c-0.63-0.74-1.58-1.11-2.85-1.11c-0.54,0-1.05,0.1-1.53,0.3c-0.48,0.2-0.9,0.48-1.25,0.86c-0.36,0.38-0.63,0.84-0.83,1.41
		c-0.2,0.56-0.3,1.2-0.3,1.91v9.03h-3.92V58.03z"/>
	<path class="o2-text-st0" d="M2091.45,62.5h3.86v2.3c0.56-0.7,1.26-1.27,2.12-1.69c0.85-0.43,1.83-0.64,2.92-0.64
		c2.09,0,3.73,0.62,4.91,1.87c1.18,1.24,1.77,2.98,1.77,5.2v9.81h-3.95v-9.37c0-1.28-0.32-2.28-0.95-3.03
		c-0.63-0.74-1.58-1.11-2.85-1.11c-1.11,0-2.05,0.38-2.81,1.15c-0.76,0.77-1.14,1.88-1.14,3.32v9.03h-3.89V62.5z"/>
	<path class="o2-text-st0" d="M2117.46,79.38c-1.21,0-2.35-0.22-3.41-0.65c-1.07-0.43-1.99-1.04-2.78-1.8c-0.79-0.77-1.41-1.67-1.86-2.69
		c-0.45-1.03-0.68-2.12-0.68-3.29c0-1.18,0.23-2.29,0.68-3.32c0.45-1.03,1.07-1.92,1.86-2.69c0.79-0.77,1.71-1.37,2.78-1.8
		c1.07-0.43,2.2-0.65,3.41-0.65c1.21,0,2.34,0.22,3.4,0.65c1.06,0.43,1.98,1.04,2.78,1.8c0.8,0.77,1.42,1.67,1.87,2.69
		c0.45,1.03,0.68,2.13,0.68,3.32c0,1.17-0.23,2.26-0.68,3.29c-0.45,1.03-1.08,1.93-1.87,2.69c-0.8,0.77-1.72,1.37-2.78,1.8
		C2119.8,79.16,2118.67,79.38,2117.46,79.38z M2117.46,75.72c0.69,0,1.34-0.13,1.93-0.38c0.6-0.25,1.11-0.59,1.56-1.03
		c0.44-0.43,0.79-0.94,1.04-1.53c0.25-0.59,0.38-1.2,0.38-1.85c0-0.67-0.13-1.29-0.38-1.88c-0.25-0.58-0.6-1.09-1.04-1.53
		c-0.44-0.43-0.96-0.77-1.56-1.03c-0.59-0.25-1.24-0.38-1.93-0.38s-1.34,0.13-1.94,0.38c-0.6,0.25-1.12,0.59-1.56,1.03
		c-0.43,0.43-0.77,0.94-1.02,1.53c-0.25,0.59-0.37,1.21-0.37,1.88c0,0.65,0.12,1.27,0.37,1.85c0.25,0.59,0.59,1.09,1.02,1.53
		c0.43,0.43,0.95,0.78,1.56,1.03C2116.12,75.59,2116.76,75.72,2117.46,75.72z"/>
	<path class="o2-text-st0" d="M2127.88,58.03h3.92v21.32h-3.92V58.03z"/>
	<path class="o2-text-st0" d="M2142.23,79.38c-1.21,0-2.35-0.22-3.41-0.65c-1.07-0.43-1.99-1.04-2.78-1.8c-0.79-0.77-1.41-1.67-1.86-2.69
		c-0.45-1.03-0.68-2.12-0.68-3.29c0-1.18,0.23-2.29,0.68-3.32c0.45-1.03,1.07-1.92,1.86-2.69c0.79-0.77,1.71-1.37,2.78-1.8
		c1.07-0.43,2.2-0.65,3.41-0.65c1.21,0,2.34,0.22,3.4,0.65c1.06,0.43,1.98,1.04,2.78,1.8c0.8,0.77,1.42,1.67,1.87,2.69
		c0.45,1.03,0.68,2.13,0.68,3.32c0,1.17-0.23,2.26-0.68,3.29c-0.45,1.03-1.08,1.93-1.87,2.69c-0.8,0.77-1.72,1.37-2.78,1.8
		C2144.57,79.16,2143.44,79.38,2142.23,79.38z M2142.23,75.72c0.69,0,1.34-0.13,1.93-0.38c0.6-0.25,1.11-0.59,1.56-1.03
		c0.44-0.43,0.79-0.94,1.04-1.53c0.25-0.59,0.38-1.2,0.38-1.85c0-0.67-0.13-1.29-0.38-1.88c-0.25-0.58-0.6-1.09-1.04-1.53
		c-0.44-0.43-0.96-0.77-1.56-1.03c-0.59-0.25-1.24-0.38-1.93-0.38c-0.69,0-1.34,0.13-1.94,0.38c-0.6,0.25-1.12,0.59-1.56,1.03
		c-0.43,0.43-0.77,0.94-1.02,1.53c-0.25,0.59-0.37,1.21-0.37,1.88c0,0.65,0.12,1.27,0.37,1.85c0.25,0.59,0.59,1.09,1.02,1.53
		c0.43,0.43,0.95,0.78,1.56,1.03C2140.89,75.59,2141.54,75.72,2142.23,75.72z"/>
	<path class="o2-text-st0" d="M2166.05,76.79c-0.61,0.81-1.4,1.44-2.36,1.9c-0.96,0.46-2.01,0.69-3.14,0.69c-1.02,0-2.02-0.19-3.01-0.57
		c-0.99-0.38-1.88-0.93-2.66-1.65c-0.79-0.72-1.42-1.61-1.9-2.65c-0.48-1.05-0.72-2.23-0.72-3.57c0-1.35,0.23-2.55,0.71-3.59
		c0.47-1.05,1.09-1.93,1.87-2.65c0.78-0.72,1.67-1.27,2.68-1.65c1.01-0.38,2.04-0.57,3.1-0.57c1.11,0,2.14,0.22,3.08,0.65
		c0.94,0.43,1.72,1.02,2.33,1.76V62.5h3.89v16.21c0,1.18-0.19,2.27-0.56,3.3c-0.38,1.02-0.93,1.92-1.66,2.69
		c-0.73,0.77-1.64,1.37-2.72,1.82c-1.08,0.45-2.34,0.67-3.76,0.67c-1.09,0-2.09-0.12-2.98-0.36c-0.89-0.24-1.69-0.58-2.41-1.01
		c-0.71-0.43-1.33-0.94-1.87-1.53c-0.54-0.59-1-1.23-1.38-1.94l3.46-2.1c0.61,1.13,1.31,1.98,2.07,2.53
		c0.77,0.56,1.82,0.84,3.17,0.84c0.73,0,1.39-0.13,1.99-0.4c0.6-0.27,1.1-0.62,1.51-1.07c0.41-0.44,0.73-0.96,0.95-1.55
		c0.22-0.6,0.33-1.21,0.33-1.84V76.79z M2161.18,75.81c0.73,0,1.4-0.13,2.02-0.38c0.61-0.25,1.14-0.6,1.59-1.06
		c0.44-0.45,0.79-0.97,1.05-1.57c0.26-0.59,0.39-1.24,0.39-1.92c0-0.67-0.13-1.3-0.39-1.89c-0.26-0.59-0.61-1.11-1.05-1.56
		c-0.44-0.44-0.97-0.79-1.59-1.04c-0.61-0.25-1.29-0.38-2.02-0.38c-0.71,0-1.38,0.13-2,0.38c-0.62,0.25-1.17,0.59-1.63,1.03
		c-0.46,0.43-0.82,0.95-1.08,1.54c-0.26,0.6-0.39,1.24-0.39,1.92c0,0.69,0.13,1.33,0.39,1.93c0.26,0.6,0.62,1.13,1.08,1.57
		c0.46,0.44,1,0.79,1.63,1.04C2159.8,75.68,2160.47,75.81,2161.18,75.81z"/>
	<path class="o2-text-st0" d="M2178,78.62l-6.91-16.12h4.15l4.7,11.53l4.44-11.53h4.09l-10.05,24.6h-3.95L2178,78.62z"/>
</g>
</svg>
