<?xml version="1.0" standalone="no"?>
<!DOCTYPE svg PUBLIC "-//W3C//DTD SVG 1.1//EN" "http://www.w3.org/Graphics/SVG/1.1/DTD/svg11.dtd">
<svg t="1611802660958" class="icon" viewBox="0 0 1024 1024" version="1.1" xmlns="http://www.w3.org/2000/svg" p-id="822" width="128" height="128" xmlns:xlink="http://www.w3.org/1999/xlink">
  <defs>
    <style type="text/css"></style>
  </defs>
  <path d="M583.3 669.5c-13-3-25.8-6.8-38.5-11.3-15.4-5.6-23.4-22.6-17.9-38 5.6-15.4 22.5-23.5 38-17.9 35.8 12.9 73.3 18.1 111.3 15.5 16.4-1.2 30.5 11.2 31.7 27.5 1.1 16.4-11.2 30.6-27.5 31.7-32.8 2.3-65.4-0.2-97.1-7.5z" p-id="823" fill="#ffffff"></path>
  <path d="M472.2 860.7c-15.9-3.7-31.7-8.5-47.2-14.4-15.3-5.9-23-23-17.1-38.4 5.9-15.3 23.1-23 38.4-17.1 71.9 27.5 150.1 25.4 220.3-5.9 70.2-31.3 124.1-88.1 151.6-159.9 56.9-148.2-17.5-315.1-165.7-372-15.3-5.9-23-23-17.1-38.4 5.9-15.3 23-23.1 38.4-17.1 86.6 33.2 155.1 98.2 192.9 182.9 37.7 84.7 40.2 179.1 7 265.7S775.5 801.3 690.8 839c-69.6 31.2-145.7 38.4-218.6 21.7z" p-id="824" fill="#ffffff"></path>
  <path d="M663.1 507.9c-1.3-0.3-2.7-0.7-4-1.2-15.3-5.9-23-23.1-17.1-38.4l16.2-42.3c5.9-15.3 23-23.1 38.4-17.1 15.3 5.9 23 23.1 17.1 38.4l-16.2 42.3c-5.5 14-20.3 21.6-34.4 18.3zM386.2 670.3c-30.7-7.1-60.2-18.5-88.1-34.1-14.3-8-19.4-26.1-11.3-40.4 8-14.3 26.1-19.4 40.4-11.3 33.3 18.7 69.3 30 107.3 33.7 16.5 1.4 28.3 16.1 26.7 32.4s-16.1 28.3-32.4 26.7c-14.5-1.5-28.7-3.8-42.6-7z" p-id="825" fill="#ffffff"></path>
  <path d="M400 845.3c-71.8-16.5-136.2-55.3-185.1-112.2-60.4-70.4-89.8-160.1-82.7-252.7 7.1-92.5 49.7-176.7 120.2-237.1 70.4-60.4 160.1-89.8 252.6-82.7 8.9 0.7 16.9 5.3 22 12.5 5.1 7.3 6.7 16.4 4.3 25l-29.4 106.8 54.8 67.5c8.2 10.1 8.9 24.5 1.6 35.3l-57.2 85 20.2 67.4c2 6.5 1.6 13.5-1 19.8L487.4 660l0.8 1.8 0.9-4c0.8-3.6 2.3-7.1 4.5-10.2l51.9-75.5-11.6-76.8c-1.3-8.8 1.4-17.8 7.4-24.4l70-77-21.3-77.5c-2.2-8.2-0.9-17 3.8-24.1l53.1-81.1c9-13.7 27.4-17.5 41.1-8.6 13.7 9 17.6 27.4 8.6 41.1L651 313.5l22.1 80.3c2.7 9.8 0.2 20.3-6.7 27.8L595 500.3l11.2 74.5c1.1 7.4-0.6 15-4.9 21.2l-55.4 80.5-19.3 83.9c-2.9 12.4-13.3 21.6-25.9 22.9-12.7 1.2-24.8-5.7-30-17.2l-42.5-93.3c-3.4-7.5-3.6-16-0.4-23.6l33.8-82.2-21.2-70.7c-2.6-8.5-1.2-17.7 3.8-25.1l52.7-78.4-50.6-62.3c-6.1-7.4-8.1-17.3-5.6-26.6l23.2-84.6c-63.5 3.1-123.9 27-172.9 69.1-58.3 50.1-93.7 119.9-99.6 196.6-5.9 76.7 18.5 151.1 68.6 209.4s119.8 93.7 196.6 99.6c16.3 1.2 28.6 15.5 27.4 31.9-1.3 16.4-15.5 28.6-31.9 27.4-17.6-1.4-35.1-4.1-52.1-8z" p-id="826" fill="#ffffff"></path>
  <path d="M379 478.6c-14.1-3.2-24.1-16.4-22.9-31.2l3.5-45.2c1.3-16.3 15.5-28.6 31.9-27.3 16.7 1.2 28.6 15.5 27.4 31.9l-3.5 45.2c-1.3 16.3-15.5 28.6-31.9 27.3-1.6-0.2-3.1-0.4-4.5-0.7z" p-id="827" fill="#ffffff"></path>
</svg>